Fraunces-Groups.ufo
<glyph name="exclam" format="2">
  <advance width="375"/>
  <unicode hex="0021"/>
  <outline>
    <contour>
      <point x="460" y="1426" type="curve" smooth="yes"/>
      <point x="439" y="1426"/>
      <point x="425" y="1416"/>
      <point x="421" y="1401" type="curve" smooth="yes"/>
      <point x="417" y="1385"/>
      <point x="417" y="1380"/>
      <point x="414" y="1371" type="curve" smooth="yes"/>
      <point x="168" y="350" type="line" smooth="yes"/>
      <point x="167" y="348"/>
      <point x="168" y="346"/>
      <point x="170" y="346" type="curve" smooth="yes"/>
      <point x="172" y="346"/>
      <point x="173" y="348"/>
      <point x="174" y="350" type="curve" smooth="yes"/>
      <point x="474" y="1371" type="line" smooth="yes"/>
      <point x="478" y="1383"/>
      <point x="481" y="1391"/>
      <point x="483" y="1399" type="curve" smooth="yes"/>
      <point x="487" y="1413"/>
      <point x="482" y="1426"/>
    </contour>
    <component base="period" xOffset="35" yOffset="11"/>
  </outline>
</glyph>
<glyph name="dollar" format="2">
  <advance width="858"/>
  <unicode hex="0024"/>
  <outline>
    <contour>
      <point x="360" y="7" type="curve" smooth="yes"/>
      <point x="535" y="7"/>
      <point x="712" y="92"/>
      <point x="756" y="247" type="curve" smooth="yes"/>
      <point x="805" y="425"/>
      <point x="753" y="550"/>
      <point x="534" y="719" type="curve" smooth="yes"/>
      <point x="315" y="888"/>
      <point x="274" y="1004"/>
      <point x="313" y="1145" type="curve" smooth="yes"/>
      <point x="351" y="1281"/>
      <point x="504" y="1380"/>
      <point x="687" y="1380" type="curve" smooth="yes"/>
      <point x="842" y="1380"/>
      <point x="906" y="1322"/>
      <point x="931" y="1189" type="curve" smooth="yes"/>
      <point x="943" y="1126" type="line" smooth="yes"/>
      <point x="947" y="1106"/>
      <point x="954" y="1091"/>
      <point x="975" y="1091" type="curve" smooth="yes"/>
      <point x="995" y="1091"/>
      <point x="1008" y="1116"/>
      <point x="1000" y="1169" type="curve" smooth="yes"/>
      <point x="979" y="1305"/>
      <point x="876" y="1390"/>
      <point x="690" y="1390" type="curve" smooth="yes"/>
      <point x="486" y="1390"/>
      <point x="326" y="1275"/>
      <point x="279" y="1119" type="curve" smooth="yes"/>
      <point x="228" y="950"/>
      <point x="281" y="830"/>
      <point x="513" y="662" type="curve" smooth="yes"/>
      <point x="714" y="517"/>
      <point x="764" y="388"/>
      <point x="721" y="229" type="curve" smooth="yes"/>
      <point x="683" y="91"/>
      <point x="533" y="17"/>
      <point x="363" y="17" type="curve" smooth="yes"/>
      <point x="200" y="17"/>
      <point x="111" y="81"/>
      <point x="98" y="217" type="curve" smooth="yes"/>
      <point x="92" y="289" type="line" smooth="yes"/>
      <point x="88" y="329"/>
      <point x="79" y="344"/>
      <point x="64" y="344" type="curve" smooth="yes"/>
      <point x="45" y="344"/>
      <point x="30" y="323"/>
      <point x="34" y="254" type="curve" smooth="yes"/>
      <point x="44" y="100"/>
      <point x="163" y="7"/>
    </contour>
    <contour>
      <point x="531" y="703" type="line"/>
      <point x="689" y="1293"/>
      <point x="730" y="1399"/>
      <point x="742" y="1446" type="curve" smooth="yes"/>
      <point x="747" y="1463"/>
      <point x="743" y="1472"/>
      <point x="733" y="1472" type="curve" smooth="yes"/>
      <point x="722" y="1472"/>
      <point x="714" y="1463"/>
      <point x="710" y="1447" type="curve" smooth="yes"/>
      <point x="695" y="1393"/>
      <point x="679" y="1292"/>
      <point x="521" y="703" type="curve"/>
    </contour>
    <contour>
      <point x="516" y="682" type="line"/>
      <point x="357" y="90"/>
      <point x="319" y="-11"/>
      <point x="305" y="-65" type="curve" smooth="yes"/>
      <point x="301" y="-80"/>
      <point x="305" y="-87"/>
      <point x="316" y="-87" type="curve" smooth="yes"/>
      <point x="326" y="-87"/>
      <point x="334" y="-79"/>
      <point x="338" y="-64" type="curve" smooth="yes"/>
      <point x="350" y="-17"/>
      <point x="367" y="89"/>
      <point x="526" y="682" type="curve"/>
    </contour>
  </outline>
</glyph>
<glyph name="quotesingle" format="2">
  <advance width="195"/>
  <unicode hex="0027"/>
  <outline>
    <contour>
      <point x="326" y="1366" type="curve" smooth="yes"/>
      <point x="344" y="1366" type="line" smooth="yes"/>
      <point x="354" y="1366"/>
      <point x="356" y="1359"/>
      <point x="353" y="1349" type="curve" smooth="yes"/>
      <point x="331" y="1266"/>
      <point x="255" y="1158"/>
      <point x="168" y="1122" type="curve" smooth="yes"/>
      <point x="164" y="1121"/>
      <point x="163" y="1116"/>
      <point x="164" y="1115" type="curve" smooth="yes"/>
      <point x="165" y="1113"/>
      <point x="166" y="1114"/>
      <point x="172" y="1116" type="curve" smooth="yes"/>
      <point x="255" y="1151"/>
      <point x="338" y="1247"/>
      <point x="374" y="1382" type="curve" smooth="yes"/>
      <point x="391" y="1444"/>
      <point x="381" y="1479"/>
      <point x="349" y="1479" type="curve" smooth="yes"/>
      <point x="322" y="1479"/>
      <point x="297" y="1456"/>
      <point x="288" y="1421" type="curve" smooth="yes"/>
      <point x="279" y="1389"/>
      <point x="291" y="1366"/>
    </contour>
  </outline>
</glyph>
<glyph name="parenleft" format="2">
  <advance width="630"/>
  <unicode hex="0028"/>
  <outline>
    <contour>
      <point x="234" y="652" type="curve" smooth="yes"/>
      <point x="126" y="245"/>
      <point x="260" y="-115"/>
      <point x="425" y="-210" type="curve" smooth="yes"/>
      <point x="441" y="-219"/>
      <point x="453" y="-223"/>
      <point x="456" y="-220" type="curve" smooth="yes"/>
      <point x="459" y="-218"/>
      <point x="457" y="-214"/>
      <point x="437" y="-198" type="curve" smooth="yes"/>
      <point x="259" y="-50"/>
      <point x="200" y="297"/>
      <point x="294" y="652" type="curve" smooth="yes"/>
      <point x="378" y="968"/>
      <point x="516" y="1253"/>
      <point x="811" y="1422" type="curve" smooth="yes"/>
      <point x="839" y="1438"/>
      <point x="843" y="1442"/>
      <point x="842" y="1444" type="curve" smooth="yes"/>
      <point x="841" y="1447"/>
      <point x="827" y="1443"/>
      <point x="805" y="1434" type="curve" smooth="yes"/>
      <point x="532" y="1315"/>
      <point x="327" y="1001"/>
    </contour>
  </outline>
</glyph>
<glyph name="asterisk" format="2">
  <advance width="1060"/>
  <unicode hex="002A"/>
  <outline>
    <contour>
      <point x="655" y="1017" type="line"/>
      <point x="732" y="1385"/>
      <point x="767" y="1446"/>
      <point x="776" y="1491" type="curve" smooth="yes"/>
      <point x="781" y="1516"/>
      <point x="775" y="1529"/>
      <point x="759" y="1529" type="curve" smooth="yes"/>
      <point x="741" y="1529"/>
      <point x="729" y="1516"/>
      <point x="724" y="1491" type="curve" smooth="yes"/>
      <point x="715" y="1446"/>
      <point x="725" y="1385"/>
      <point x="648" y="1017" type="curve"/>
    </contour>
    <contour>
      <point x="652" y="1021" type="curve"/>
      <point x="652" y="1013" type="line"/>
      <point x="990" y="1127"/>
      <point x="1049" y="1122"/>
      <point x="1090" y="1136" type="curve" smooth="yes"/>
      <point x="1113" y="1144"/>
      <point x="1124" y="1157"/>
      <point x="1122" y="1174" type="curve" smooth="yes"/>
      <point x="1121" y="1193"/>
      <point x="1109" y="1199"/>
      <point x="1085" y="1191" type="curve" smooth="yes"/>
      <point x="1044" y="1177"/>
      <point x="990" y="1135"/>
    </contour>
    <contour>
      <point x="653" y="1021" type="line"/>
      <point x="362" y="1135"/>
      <point x="326" y="1177"/>
      <point x="290" y="1191" type="curve" smooth="yes"/>
      <point x="270" y="1199"/>
      <point x="255" y="1193"/>
      <point x="247" y="1176" type="curve" smooth="yes"/>
      <point x="237" y="1157"/>
      <point x="242" y="1144"/>
      <point x="262" y="1136" type="curve" smooth="yes"/>
      <point x="298" y="1122"/>
      <point x="358" y="1127"/>
      <point x="650" y="1013" type="curve"/>
    </contour>
    <contour>
      <point x="649" y="1019" type="line"/>
      <point x="392" y="722"/>
      <point x="335" y="687"/>
      <point x="303" y="651" type="curve" smooth="yes"/>
      <point x="285" y="630"/>
      <point x="284" y="614"/>
      <point x="293" y="603" type="curve" smooth="yes"/>
      <point x="306" y="592"/>
      <point x="321" y="596"/>
      <point x="338" y="616" type="curve" smooth="yes"/>
      <point x="370" y="653"/>
      <point x="398" y="717"/>
      <point x="653" y="1015" type="curve"/>
    </contour>
    <contour>
      <point x="648" y="1015" type="line"/>
      <point x="781" y="717"/>
      <point x="782" y="653"/>
      <point x="797" y="616" type="curve" smooth="yes"/>
      <point x="807" y="596"/>
      <point x="821" y="592"/>
      <point x="835" y="602" type="curve" smooth="yes"/>
      <point x="852" y="614"/>
      <point x="856" y="630"/>
      <point x="847" y="651" type="curve" smooth="yes"/>
      <point x="832" y="687"/>
      <point x="788" y="722"/>
      <point x="654" y="1019" type="curve"/>
    </contour>
  </outline>
</glyph>
<glyph name="period" format="2">
  <advance width="235"/>
  <unicode hex="002E"/>
  <outline>
    <contour>
      <point x="53" y="-14" type="curve" smooth="yes"/>
      <point x="80" y="-14"/>
      <point x="108" y="12"/>
      <point x="117" y="46" type="curve" smooth="yes"/>
      <point x="126" y="79"/>
      <point x="114" y="107"/>
      <point x="86" y="107" type="curve" smooth="yes"/>
      <point x="61" y="107"/>
      <point x="31" y="80"/>
      <point x="22" y="46" type="curve" smooth="yes"/>
      <point x="13" y="12"/>
      <point x="25" y="-14"/>
    </contour>
  </outline>
</glyph>
<glyph name="question" format="2">
  <advance width="631"/>
  <unicode hex="003F"/>
  <outline>
    <contour>
      <point x="245" y="580" type="line" smooth="yes"/>
      <point x="254" y="613"/>
      <point x="265" y="635"/>
      <point x="307" y="656" type="curve" smooth="yes"/>
      <point x="352" y="679" type="line" smooth="yes"/>
      <point x="570" y="790"/>
      <point x="676" y="926"/>
      <point x="731" y="1130" type="curve" smooth="yes"/>
      <point x="784" y="1330"/>
      <point x="714" y="1427"/>
      <point x="568" y="1427" type="curve" smooth="yes"/>
      <point x="395" y="1427"/>
      <point x="292" y="1335"/>
      <point x="263" y="1228" type="curve" smooth="yes"/>
      <point x="246" y="1164" type="line" smooth="yes"/>
      <point x="239" y="1140"/>
      <point x="220" y="1122"/>
      <point x="203" y="1122" type="curve" smooth="yes"/>
      <point x="184" y="1122"/>
      <point x="176" y="1141"/>
      <point x="184" y="1172" type="curve" smooth="yes"/>
      <point x="223" y="1317"/>
      <point x="393" y="1438"/>
      <point x="572" y="1438" type="curve" smooth="yes"/>
      <point x="764" y="1438"/>
      <point x="840" y="1321"/>
      <point x="790" y="1136" type="curve" smooth="yes"/>
      <point x="740" y="948"/>
      <point x="612" y="794"/>
      <point x="359" y="669" type="curve" smooth="yes"/>
      <point x="319" y="649" type="line" smooth="yes"/>
      <point x="279" y="629"/>
      <point x="265" y="609"/>
      <point x="256" y="576" type="curve" smooth="yes"/>
      <point x="185" y="310" type="line" smooth="yes"/>
      <point x="184" y="307"/>
      <point x="181" y="304"/>
      <point x="178" y="304" type="curve" smooth="yes"/>
      <point x="175" y="304"/>
      <point x="174" y="306"/>
      <point x="175" y="311" type="curve" smooth="yes"/>
    </contour>
    <component base="period" xOffset="50"/>
  </outline>
</glyph>
<glyph name="A" format="2">
  <advance width="996"/>
  <unicode hex="0041"/>
  <outline>
    <contour>
      <point x="97" y="18"/>
      <point x="59" y="74"/>
      <point x="115" y="167" type="curve" smooth="yes"/>
      <point x="800" y="1292" type="line" smooth="yes"/>
      <point x="810" y="1310"/>
      <point x="812" y="1314"/>
      <point x="816" y="1318" type="curve"/>
      <point x="808" y="1318" type="line"/>
      <point x="808" y="1280"/>
      <point x="748" y="134"/>
      <point x="742" y="60" type="curve" smooth="yes"/>
      <point x="740" y="40"/>
      <point x="736" y="34"/>
      <point x="710" y="30" type="curve" smooth="yes"/>
      <point x="562" y="8" type="line" smooth="yes"/>
      <point x="560" y="8"/>
      <point x="558" y="6"/>
      <point x="558" y="4" type="curve" smooth="yes"/>
      <point x="558" y="2"/>
      <point x="562" y="0"/>
      <point x="564" y="0" type="curve" smooth="yes"/>
      <point x="902" y="0" type="line" smooth="yes"/>
      <point x="906" y="0"/>
      <point x="908" y="2"/>
      <point x="908" y="4" type="curve" smooth="yes"/>
      <point x="908" y="6"/>
      <point x="906" y="8"/>
      <point x="902" y="8" type="curve" smooth="yes"/>
      <point x="808" y="22"/>
      <point x="796" y="36"/>
      <point x="796" y="58" type="curve" smooth="yes"/>
      <point x="798" y="128"/>
      <point x="852" y="1258"/>
      <point x="854" y="1278" type="curve" smooth="yes"/>
      <point x="860" y="1362"/>
      <point x="902" y="1408"/>
      <point x="950" y="1408" type="curve" smooth="yes"/>
      <point x="958" y="1408"/>
      <point x="960" y="1410"/>
      <point x="960" y="1414" type="curve" smooth="yes"/>
      <point x="960" y="1418"/>
      <point x="956" y="1420"/>
      <point x="950" y="1420" type="curve" smooth="yes"/>
      <point x="904" y="1420"/>
      <point x="852" y="1394"/>
      <point x="794" y="1300" type="curve" smooth="yes"/>
      <point x="96" y="166" type="line" smooth="yes"/>
      <point x="25" y="51"/>
      <point x="-19" y="12.0"/>
      <point x="-74" y="12" type="curve" smooth="yes"/>
      <point x="-80" y="12"/>
      <point x="-84" y="10"/>
      <point x="-84" y="6" type="curve" smooth="yes"/>
      <point x="-84" y="2"/>
      <point x="-82" y="0"/>
      <point x="-74" y="0" type="curve" smooth="yes"/>
      <point x="192" y="0" type="line" smooth="yes"/>
      <point x="198" y="0"/>
      <point x="202" y="2"/>
      <point x="202" y="6" type="curve" smooth="yes"/>
      <point x="202" y="10"/>
      <point x="198" y="12"/>
      <point x="192" y="12" type="curve" smooth="yes"/>
      <point x="158" y="14" type="line" smooth="yes"/>
    </contour>
    <contour>
      <point x="276" y="450" type="line"/>
      <point x="802" y="450" type="line"/>
      <point x="802" y="460" type="line"/>
      <point x="280" y="460" type="line"/>
    </contour>
  </outline>
</glyph>
<glyph name="B" format="2">
  <advance width="1052"/>
  <unicode hex="0042"/>
  <outline>
    <contour>
      <point x="543" y="1326" type="curve" smooth="yes"/>
      <point x="553" y="1366"/>
      <point x="569" y="1392"/>
      <point x="683" y="1392" type="curve" smooth="yes"/>
      <point x="886" y="1392.0"/>
      <point x="1012" y="1273"/>
      <point x="990" y="1067" type="curve" smooth="yes"/>
      <point x="965" y="827"/>
      <point x="798" y="670.0"/>
      <point x="545" y="670" type="curve" smooth="yes"/>
      <point x="363" y="670" type="line"/>
      <point x="363" y="662" type="line"/>
      <point x="543" y="662" type="line" smooth="yes"/>
      <point x="785" y="662"/>
      <point x="908" y="535"/>
      <point x="889" y="355" type="curve" smooth="yes"/>
      <point x="867" y="151"/>
      <point x="712" y="10.0"/>
      <point x="437" y="10" type="curve" smooth="yes"/>
      <point x="297" y="10"/>
      <point x="229" y="28"/>
      <point x="239" y="76" type="curve" smooth="yes"/>
      <point x="317" y="438"/>
      <point x="435" y="906"/>
    </contour>
    <contour>
      <point x="333" y="1400" type="line" smooth="yes"/>
      <point x="329" y="1400"/>
      <point x="325" y="1398"/>
      <point x="325" y="1394" type="curve" smooth="yes"/>
      <point x="325" y="1390"/>
      <point x="327" y="1388"/>
      <point x="339" y="1386" type="curve" smooth="yes"/>
      <point x="463" y="1370" type="line" smooth="yes"/>
      <point x="477" y="1368"/>
      <point x="491" y="1358"/>
      <point x="487" y="1336" type="curve" smooth="yes"/>
      <point x="405" y="964"/>
      <point x="273" y="428"/>
      <point x="179" y="72" type="curve" smooth="yes"/>
      <point x="171" y="42"/>
      <point x="159" y="28"/>
      <point x="133" y="26" type="curve" smooth="yes"/>
      <point x="19" y="14" type="line" smooth="yes"/>
      <point x="13" y="14"/>
      <point x="7" y="12"/>
      <point x="7" y="6" type="curve" smooth="yes"/>
      <point x="7" y="2"/>
      <point x="11" y="0"/>
      <point x="17" y="0" type="curve" smooth="yes"/>
      <point x="405" y="0" type="line" smooth="yes"/>
      <point x="747" y="0.0"/>
      <point x="933" y="139"/>
      <point x="952" y="345" type="curve" smooth="yes"/>
      <point x="971" y="545"/>
      <point x="799" y="668"/>
      <point x="549" y="668" type="curve"/>
      <point x="571" y="666" type="line"/>
      <point x="804.0" y="666.0"/>
      <point x="1026.0" y="831.0"/>
      <point x="1048" y="1055" type="curve" smooth="yes"/>
      <point x="1070" y="1275"/>
      <point x="931.0" y="1400.0"/>
      <point x="701" y="1400" type="curve" smooth="yes"/>
    </contour>
  </outline>
</glyph>
<glyph name="C" format="2">
  <advance width="1145"/>
  <unicode hex="0043"/>
  <outline>
    <contour>
      <point x="1041" y="334" type="curve" smooth="yes"/>
      <point x="1039" y="336"/>
      <point x="1031" y="331"/>
      <point x="1027" y="322" type="curve" smooth="yes"/>
      <point x="911" y="81"/>
      <point x="729" y="0"/>
      <point x="573" y="0" type="curve" smooth="yes"/>
      <point x="330" y="0"/>
      <point x="162" y="165"/>
      <point x="224" y="601" type="curve" smooth="yes"/>
      <point x="283" y="1016"/>
      <point x="538" y="1411"/>
      <point x="874" y="1411" type="curve" smooth="yes"/>
      <point x="1013" y="1411"/>
      <point x="1121" y="1355"/>
      <point x="1169" y="1207" type="curve" smooth="yes"/>
      <point x="1207" y="1089" type="line" smooth="yes"/>
      <point x="1210" y="1081"/>
      <point x="1214" y="1073"/>
      <point x="1220" y="1075" type="curve" smooth="yes"/>
      <point x="1223" y="1076"/>
      <point x="1226" y="1079"/>
      <point x="1226" y="1088" type="curve" smooth="yes"/>
      <point x="1222" y="1402" type="line" smooth="yes"/>
      <point x="1222" y="1413"/>
      <point x="1219" y="1416"/>
      <point x="1215" y="1416" type="curve" smooth="yes"/>
      <point x="1205" y="1416"/>
      <point x="1167" y="1288"/>
      <point x="1149" y="1288" type="curve" smooth="yes"/>
      <point x="1138" y="1288"/>
      <point x="1081" y="1418"/>
      <point x="880" y="1418" type="curve" smooth="yes"/>
      <point x="525" y="1418"/>
      <point x="220" y="1027"/>
      <point x="163" y="606" type="curve" smooth="yes"/>
      <point x="106" y="185"/>
      <point x="305" y="-15"/>
      <point x="545" y="-15" type="curve" smooth="yes"/>
      <point x="761" y="-15"/>
      <point x="936" y="97"/>
      <point x="1040" y="316" type="curve" smooth="yes"/>
      <point x="1044" y="325"/>
      <point x="1046" y="329"/>
    </contour>
  </outline>
</glyph>
<glyph name="D" format="2">
  <advance width="1245"/>
  <unicode hex="0044"/>
  <outline>
    <contour>
      <point x="10" y="7" type="curve" smooth="yes"/>
      <point x="10" y="3"/>
      <point x="13" y="0"/>
      <point x="21" y="0" type="curve" smooth="yes"/>
      <point x="398" y="0" type="line" smooth="yes"/>
      <point x="841" y="0"/>
      <point x="1178" y="330"/>
      <point x="1230" y="764" type="curve" smooth="yes"/>
      <point x="1281" y="1185"/>
      <point x="1049" y="1400"/>
      <point x="741" y="1400" type="curve" smooth="yes"/>
      <point x="337" y="1400" type="line" smooth="yes"/>
      <point x="330" y="1400"/>
      <point x="328" y="1398"/>
      <point x="328" y="1394" type="curve" smooth="yes"/>
      <point x="328" y="1389"/>
      <point x="332" y="1387"/>
      <point x="350" y="1385" type="curve" smooth="yes"/>
      <point x="453" y="1372" type="line" smooth="yes"/>
      <point x="489" y="1367"/>
      <point x="496" y="1357"/>
      <point x="488" y="1325" type="curve" smooth="yes"/>
      <point x="387" y="905"/>
      <point x="286" y="490"/>
      <point x="185" y="80" type="curve" smooth="yes"/>
      <point x="175" y="40"/>
      <point x="160" y="27"/>
      <point x="115" y="23" type="curve" smooth="yes"/>
      <point x="23" y="14" type="line" smooth="yes"/>
      <point x="14" y="13"/>
      <point x="10" y="11"/>
    </contour>
    <contour>
      <point x="398" y="10" type="curve" smooth="yes"/>
      <point x="293" y="10" type="line" smooth="yes"/>
      <point x="248" y="10"/>
      <point x="230" y="35"/>
      <point x="241" y="82" type="curve" smooth="yes"/>
      <point x="343" y="498"/>
      <point x="447" y="923"/>
      <point x="553" y="1355" type="curve" smooth="yes"/>
      <point x="560" y="1383"/>
      <point x="572" y="1390"/>
      <point x="589" y="1390" type="curve" smooth="yes"/>
      <point x="742" y="1390" type="line" smooth="yes"/>
      <point x="1011" y="1390"/>
      <point x="1223" y="1191"/>
      <point x="1169" y="768" type="curve" smooth="yes"/>
      <point x="1113" y="329"/>
      <point x="790" y="10"/>
    </contour>
  </outline>
</glyph>
<glyph name="E" format="2">
  <advance width="1050"/>
  <unicode hex="0045"/>
  <outline>
    <contour>
      <point x="361" y="700" type="line"/>
      <point x="361" y="692" type="line"/>
      <point x="725" y="692" type="line" smooth="yes"/>
      <point x="807" y="692"/>
      <point x="851" y="660"/>
      <point x="887" y="554" type="curve" smooth="yes"/>
      <point x="889" y="550"/>
      <point x="891" y="548"/>
      <point x="895" y="550" type="curve" smooth="yes"/>
      <point x="899" y="552"/>
      <point x="897" y="554"/>
      <point x="895" y="566" type="curve" smooth="yes"/>
      <point x="845" y="854" type="line" smooth="yes"/>
      <point x="843" y="866"/>
      <point x="839" y="868"/>
      <point x="835" y="868" type="curve" smooth="yes"/>
      <point x="831" y="868"/>
      <point x="829" y="864"/>
      <point x="829" y="860" type="curve" smooth="yes"/>
      <point x="833" y="734"/>
      <point x="787" y="700"/>
      <point x="725" y="700" type="curve" smooth="yes"/>
    </contour>
    <contour>
      <point x="695" y="0" type="line" smooth="yes"/>
      <point x="711" y="0"/>
      <point x="715" y="-20"/>
      <point x="729" y="-20" type="curve" smooth="yes"/>
      <point x="815" y="-20"/>
      <point x="947" y="156"/>
      <point x="947" y="298" type="curve" smooth="yes"/>
      <point x="947" y="304"/>
      <point x="947" y="308"/>
      <point x="943" y="308" type="curve" smooth="yes"/>
      <point x="941" y="308"/>
      <point x="939" y="306"/>
      <point x="937" y="300" type="curve" smooth="yes"/>
      <point x="855" y="102"/>
      <point x="749" y="8"/>
      <point x="613" y="8" type="curve" smooth="yes"/>
      <point x="417" y="8" type="line" smooth="yes"/>
      <point x="251" y="8"/>
      <point x="229" y="30"/>
      <point x="239" y="78" type="curve" smooth="yes"/>
      <point x="315" y="420"/>
      <point x="443" y="942"/>
      <point x="559" y="1392" type="curve"/>
      <point x="941" y="1392" type="line" smooth="yes"/>
      <point x="1031" y="1392"/>
      <point x="1076" y="1354"/>
      <point x="1131" y="1150" type="curve" smooth="yes"/>
      <point x="1134" y="1142"/>
      <point x="1137" y="1140"/>
      <point x="1141" y="1140" type="curve" smooth="yes"/>
      <point x="1145" y="1140"/>
      <point x="1145" y="1145"/>
      <point x="1143" y="1156" type="curve" smooth="yes"/>
      <point x="1103" y="1412" type="line" smooth="yes"/>
      <point x="1101" y="1426"/>
      <point x="1095" y="1430"/>
      <point x="1087" y="1430" type="curve" smooth="yes"/>
      <point x="1066" y="1430"/>
      <point x="1036" y="1400"/>
      <point x="971" y="1400" type="curve" smooth="yes"/>
      <point x="333" y="1400" type="line" smooth="yes"/>
      <point x="329" y="1400"/>
      <point x="325" y="1398"/>
      <point x="325" y="1394" type="curve"/>
      <point x="325" y="1390"/>
      <point x="327" y="1388"/>
      <point x="339" y="1386" type="curve" smooth="yes"/>
      <point x="463" y="1370" type="line" smooth="yes"/>
      <point x="477" y="1368"/>
      <point x="491" y="1358"/>
      <point x="487" y="1336" type="curve" smooth="yes"/>
      <point x="407" y="970"/>
      <point x="275" y="436"/>
      <point x="179" y="72" type="curve"/>
      <point x="171" y="42"/>
      <point x="159" y="28"/>
      <point x="133" y="26" type="curve" smooth="yes"/>
      <point x="19" y="14" type="line" smooth="yes"/>
      <point x="11" y="14"/>
      <point x="7" y="10"/>
      <point x="7" y="6" type="curve" smooth="yes"/>
      <point x="7" y="2"/>
      <point x="11" y="0"/>
      <point x="17" y="0" type="curve" smooth="yes"/>
    </contour>
  </outline>
</glyph>
<glyph name="F" format="2">
  <advance width="975"/>
  <unicode hex="0046"/>
  <outline>
    <contour>
      <point x="325" y="1394" type="curve" smooth="yes"/>
      <point x="325" y="1390"/>
      <point x="327" y="1388"/>
      <point x="339" y="1386" type="curve" smooth="yes"/>
      <point x="463" y="1370" type="line" smooth="yes"/>
      <point x="477" y="1368"/>
      <point x="491" y="1358"/>
      <point x="487" y="1336" type="curve" smooth="yes"/>
      <point x="407" y="970"/>
      <point x="275" y="436"/>
      <point x="179" y="72" type="curve" smooth="yes"/>
      <point x="171" y="42"/>
      <point x="159" y="28"/>
      <point x="133" y="26" type="curve" smooth="yes"/>
      <point x="19" y="14" type="line" smooth="yes"/>
      <point x="11" y="14"/>
      <point x="7" y="10"/>
      <point x="7" y="6" type="curve" smooth="yes"/>
      <point x="7" y="2"/>
      <point x="11" y="0"/>
      <point x="17" y="0" type="curve" smooth="yes"/>
      <point x="435" y="0" type="line" smooth="yes"/>
      <point x="439" y="0"/>
      <point x="441" y="2"/>
      <point x="441" y="6" type="curve" smooth="yes"/>
      <point x="441" y="10"/>
      <point x="437" y="12"/>
      <point x="433" y="12" type="curve" smooth="yes"/>
      <point x="269" y="24" type="line" smooth="yes"/>
      <point x="237" y="26"/>
      <point x="233" y="50"/>
      <point x="239" y="78" type="curve" smooth="yes"/>
      <point x="317" y="428"/>
      <point x="443" y="940"/>
      <point x="559" y="1392" type="curve"/>
      <point x="903" y="1392" type="line" smooth="yes"/>
      <point x="1007.0" y="1392.0"/>
      <point x="1048" y="1344"/>
      <point x="1084" y="1234" type="curve" smooth="yes"/>
      <point x="1112" y="1148" type="line" smooth="yes"/>
      <point x="1114" y="1142"/>
      <point x="1116" y="1140"/>
      <point x="1118" y="1140" type="curve" smooth="yes"/>
      <point x="1122" y="1140"/>
      <point x="1122" y="1146"/>
      <point x="1120" y="1156" type="curve" smooth="yes"/>
      <point x="1081" y="1412" type="line" smooth="yes"/>
      <point x="1079" y="1426"/>
      <point x="1073" y="1430"/>
      <point x="1065" y="1430" type="curve" smooth="yes"/>
      <point x="1044" y="1430"/>
      <point x="1014" y="1400"/>
      <point x="949" y="1400" type="curve" smooth="yes"/>
      <point x="333" y="1400" type="line" smooth="yes"/>
      <point x="329" y="1400"/>
      <point x="325" y="1398"/>
    </contour>
    <contour>
      <point x="361" y="680" type="line"/>
      <point x="361" y="672" type="line"/>
      <point x="685" y="672" type="line" smooth="yes"/>
      <point x="753" y="672"/>
      <point x="791" y="644"/>
      <point x="847" y="534" type="curve" smooth="yes"/>
      <point x="849" y="530"/>
      <point x="851" y="528"/>
      <point x="855" y="530" type="curve" smooth="yes"/>
      <point x="859" y="532"/>
      <point x="857" y="534"/>
      <point x="855" y="546" type="curve" smooth="yes"/>
      <point x="805" y="834" type="line" smooth="yes"/>
      <point x="803" y="846"/>
      <point x="799" y="848"/>
      <point x="795" y="848" type="curve" smooth="yes"/>
      <point x="791" y="848"/>
      <point x="789" y="844"/>
      <point x="789" y="840" type="curve" smooth="yes"/>
      <point x="775" y="710"/>
      <point x="733" y="680"/>
      <point x="685" y="680" type="curve" smooth="yes"/>
    </contour>
  </outline>
</glyph>
<glyph name="G" format="2">
  <advance width="1240"/>
  <unicode hex="0047"/>
  <outline>
    <contour>
      <point x="922" y="1428" type="curve" smooth="yes"/>
      <point x="508" y="1428"/>
      <point x="163" y="984"/>
      <point x="128" y="571" type="curve" smooth="yes"/>
      <point x="94" y="178"/>
      <point x="290" y="-20"/>
      <point x="564" y="-20" type="curve" smooth="yes"/>
      <point x="798" y="-20"/>
      <point x="907" y="143"/>
      <point x="923" y="143" type="curve" smooth="yes"/>
      <point x="928" y="143"/>
      <point x="936" y="-18"/>
      <point x="938" y="-18" type="curve" smooth="yes"/>
      <point x="942" y="-18"/>
      <point x="944" y="-16"/>
      <point x="946" y="-6" type="curve" smooth="yes"/>
      <point x="1088" y="522" type="line" smooth="yes"/>
      <point x="1094" y="546"/>
      <point x="1104" y="556"/>
      <point x="1122" y="560" type="curve" smooth="yes"/>
      <point x="1222" y="582" type="line" smooth="yes"/>
      <point x="1232" y="584"/>
      <point x="1234" y="586"/>
      <point x="1234" y="590" type="curve" smooth="yes"/>
      <point x="1234" y="592"/>
      <point x="1232" y="594"/>
      <point x="1228" y="594" type="curve" smooth="yes"/>
      <point x="878" y="594" type="line" smooth="yes"/>
      <point x="874" y="594"/>
      <point x="870" y="592"/>
      <point x="870" y="588" type="curve" smooth="yes"/>
      <point x="870" y="584"/>
      <point x="872" y="582"/>
      <point x="884" y="580" type="curve" smooth="yes"/>
      <point x="1006" y="564" type="line" smooth="yes"/>
      <point x="1032" y="560"/>
      <point x="1034" y="542"/>
      <point x="1026" y="512" type="curve" smooth="yes"/>
      <point x="950" y="238" type="line" smooth="yes"/>
      <point x="914" y="109"/>
      <point x="747" y="-6"/>
      <point x="564" y="-6" type="curve" smooth="yes"/>
      <point x="305" y="-6"/>
      <point x="153" y="174"/>
      <point x="190" y="598" type="curve" smooth="yes"/>
      <point x="224" y="982"/>
      <point x="535" y="1420"/>
      <point x="922" y="1420" type="curve" smooth="yes"/>
      <point x="1096" y="1420"/>
      <point x="1190" y="1347"/>
      <point x="1241" y="1176" type="curve" smooth="yes"/>
      <point x="1265" y="1096" type="line" smooth="yes"/>
      <point x="1267" y="1088"/>
      <point x="1270" y="1086"/>
      <point x="1272" y="1086" type="curve" smooth="yes"/>
      <point x="1276" y="1086"/>
      <point x="1276" y="1089"/>
      <point x="1276" y="1095" type="curve" smooth="yes"/>
      <point x="1278" y="1393" type="line" smooth="yes"/>
      <point x="1278" y="1401"/>
      <point x="1275" y="1404"/>
      <point x="1271" y="1404" type="curve" smooth="yes"/>
      <point x="1262" y="1404"/>
      <point x="1219" y="1300"/>
      <point x="1208" y="1300" type="curve" smooth="yes"/>
      <point x="1194" y="1300"/>
      <point x="1142" y="1428"/>
    </contour>
  </outline>
</glyph>
<glyph name="H" format="2">
  <advance width="1289"/>
  <unicode hex="0048"/>
  <outline>
    <contour>
      <point x="239" y="78" type="curve" smooth="yes"/>
      <point x="315" y="420"/>
      <point x="449" y="960"/>
      <point x="543" y="1328" type="curve" smooth="yes"/>
      <point x="549" y="1354"/>
      <point x="561" y="1364"/>
      <point x="577" y="1366" type="curve" smooth="yes"/>
      <point x="707" y="1388" type="line" smooth="yes"/>
      <point x="717" y="1390"/>
      <point x="719" y="1392"/>
      <point x="719" y="1396" type="curve" smooth="yes"/>
      <point x="719" y="1398"/>
      <point x="717" y="1400"/>
      <point x="713" y="1400" type="curve" smooth="yes"/>
      <point x="333" y="1400" type="line" smooth="yes"/>
      <point x="329" y="1400"/>
      <point x="325" y="1398"/>
      <point x="325" y="1394" type="curve" smooth="yes"/>
      <point x="325" y="1390"/>
      <point x="327" y="1388"/>
      <point x="339" y="1386" type="curve" smooth="yes"/>
      <point x="463" y="1370" type="line" smooth="yes"/>
      <point x="477" y="1368"/>
      <point x="491" y="1358"/>
      <point x="487" y="1336" type="curve" smooth="yes"/>
      <point x="407" y="970"/>
      <point x="275" y="436"/>
      <point x="179" y="72" type="curve" smooth="yes"/>
      <point x="171" y="42"/>
      <point x="159" y="28"/>
      <point x="133" y="26" type="curve" smooth="yes"/>
      <point x="19" y="14" type="line" smooth="yes"/>
      <point x="13" y="14"/>
      <point x="7" y="12"/>
      <point x="7" y="6" type="curve" smooth="yes"/>
      <point x="7" y="4"/>
      <point x="11" y="0"/>
      <point x="17" y="0" type="curve" smooth="yes"/>
      <point x="395" y="0" type="line" smooth="yes"/>
      <point x="399" y="0"/>
      <point x="401" y="2"/>
      <point x="401" y="6" type="curve" smooth="yes"/>
      <point x="401" y="10"/>
      <point x="397" y="12"/>
      <point x="393" y="12" type="curve" smooth="yes"/>
      <point x="261" y="24" type="line" smooth="yes"/>
      <point x="241" y="26"/>
      <point x="233" y="50"/>
    </contour>
    <contour>
      <point x="367" y="674" type="line"/>
      <point x="365" y="666" type="line"/>
      <point x="1069" y="666" type="line"/>
      <point x="1073" y="674" type="line"/>
    </contour>
    <contour>
      <point x="965" y="78" type="curve" smooth="yes"/>
      <point x="1041" y="420"/>
      <point x="1175" y="960"/>
      <point x="1269" y="1328" type="curve" smooth="yes"/>
      <point x="1275" y="1354"/>
      <point x="1287" y="1364"/>
      <point x="1303" y="1366" type="curve" smooth="yes"/>
      <point x="1433" y="1388" type="line" smooth="yes"/>
      <point x="1443" y="1390"/>
      <point x="1445" y="1392"/>
      <point x="1445" y="1396" type="curve" smooth="yes"/>
      <point x="1445" y="1398"/>
      <point x="1443" y="1400"/>
      <point x="1439" y="1400" type="curve" smooth="yes"/>
      <point x="1059" y="1400" type="line" smooth="yes"/>
      <point x="1055" y="1400"/>
      <point x="1051" y="1398"/>
      <point x="1051" y="1394" type="curve" smooth="yes"/>
      <point x="1051" y="1390"/>
      <point x="1053" y="1388"/>
      <point x="1065" y="1386" type="curve" smooth="yes"/>
      <point x="1189" y="1370" type="line" smooth="yes"/>
      <point x="1203" y="1368"/>
      <point x="1217" y="1358"/>
      <point x="1213" y="1336" type="curve" smooth="yes"/>
      <point x="1133" y="970"/>
      <point x="1001" y="436"/>
      <point x="905" y="72" type="curve" smooth="yes"/>
      <point x="897" y="42"/>
      <point x="885" y="28"/>
      <point x="859" y="26" type="curve" smooth="yes"/>
      <point x="745" y="14" type="line" smooth="yes"/>
      <point x="739" y="14"/>
      <point x="733" y="12"/>
      <point x="733" y="6" type="curve" smooth="yes"/>
      <point x="733" y="4"/>
      <point x="737" y="0"/>
      <point x="743" y="0" type="curve" smooth="yes"/>
      <point x="1121" y="0" type="line" smooth="yes"/>
      <point x="1125" y="0"/>
      <point x="1127" y="2"/>
      <point x="1127" y="6" type="curve" smooth="yes"/>
      <point x="1127" y="10"/>
      <point x="1123" y="12"/>
      <point x="1119" y="12" type="curve" smooth="yes"/>
      <point x="987" y="24" type="line" smooth="yes"/>
      <point x="967" y="26"/>
      <point x="959" y="50"/>
    </contour>
  </outline>
</glyph>
<glyph name="I" format="2">
  <advance width="582"/>
  <unicode hex="0049"/>
  <outline>
    <contour>
      <point x="242" y="78" type="curve" smooth="yes"/>
      <point x="318" y="420"/>
      <point x="452" y="960"/>
      <point x="546" y="1328" type="curve" smooth="yes"/>
      <point x="552" y="1354"/>
      <point x="564" y="1364"/>
      <point x="580" y="1366" type="curve" smooth="yes"/>
      <point x="710" y="1388" type="line" smooth="yes"/>
      <point x="720" y="1390"/>
      <point x="722" y="1392"/>
      <point x="722" y="1396" type="curve" smooth="yes"/>
      <point x="722" y="1398"/>
      <point x="720" y="1400"/>
      <point x="716" y="1400" type="curve" smooth="yes"/>
      <point x="336" y="1400" type="line" smooth="yes"/>
      <point x="332" y="1400"/>
      <point x="328" y="1398"/>
      <point x="328" y="1394" type="curve" smooth="yes"/>
      <point x="328" y="1390"/>
      <point x="330" y="1388"/>
      <point x="342" y="1386" type="curve" smooth="yes"/>
      <point x="466" y="1370" type="line" smooth="yes"/>
      <point x="480" y="1368"/>
      <point x="494" y="1358"/>
      <point x="490" y="1336" type="curve" smooth="yes"/>
      <point x="410" y="970"/>
      <point x="278" y="436"/>
      <point x="182" y="72" type="curve" smooth="yes"/>
      <point x="174" y="42"/>
      <point x="162" y="28"/>
      <point x="136" y="26" type="curve" smooth="yes"/>
      <point x="22" y="14" type="line" smooth="yes"/>
      <point x="16" y="14"/>
      <point x="10" y="12"/>
      <point x="10" y="6" type="curve" smooth="yes"/>
      <point x="10" y="4"/>
      <point x="14" y="0"/>
      <point x="20" y="0" type="curve" smooth="yes"/>
      <point x="398" y="0" type="line" smooth="yes"/>
      <point x="402" y="0"/>
      <point x="404" y="2"/>
      <point x="404" y="6" type="curve" smooth="yes"/>
      <point x="404" y="10"/>
      <point x="400" y="12"/>
      <point x="396" y="12" type="curve" smooth="yes"/>
      <point x="264" y="24" type="line" smooth="yes"/>
      <point x="244" y="26"/>
      <point x="236" y="50"/>
    </contour>
  </outline>
</glyph>
<glyph name="J" format="2">
  <advance width="541"/>
  <unicode hex="004A"/>
  <outline>
    <contour>
      <point x="542" y="1335" type="curve" smooth="yes"/>
      <point x="548" y="1360"/>
      <point x="555" y="1362"/>
      <point x="582" y="1367" type="curve" smooth="yes"/>
      <point x="704" y="1388" type="line" smooth="yes"/>
      <point x="712" y="1389"/>
      <point x="716" y="1392"/>
      <point x="716" y="1395" type="curve" smooth="yes"/>
      <point x="716" y="1399"/>
      <point x="714" y="1400"/>
      <point x="710" y="1400" type="curve" smooth="yes"/>
      <point x="332" y="1400" type="line" smooth="yes"/>
      <point x="327" y="1400"/>
      <point x="322" y="1398"/>
      <point x="322" y="1394" type="curve" smooth="yes"/>
      <point x="322" y="1388"/>
      <point x="328" y="1387"/>
      <point x="338" y="1386" type="curve" smooth="yes"/>
      <point x="450" y="1372" type="line" smooth="yes"/>
      <point x="478" y="1369"/>
      <point x="489" y="1356"/>
      <point x="484" y="1331" type="curve" smooth="yes"/>
      <point x="469" y="1255"/>
      <point x="176" y="58"/>
      <point x="155" y="-2" type="curve" smooth="yes"/>
      <point x="149" y="-18"/>
      <point x="143" y="-53"/>
      <point x="143" y="-76" type="curve" smooth="yes"/>
      <point x="143" y="-217"/>
      <point x="109" y="-254"/>
      <point x="67" y="-254" type="curve" smooth="yes"/>
      <point x="26" y="-254"/>
      <point x="-11" y="-221"/>
      <point x="-58" y="-221" type="curve" smooth="yes"/>
      <point x="-83" y="-221"/>
      <point x="-99" y="-235"/>
      <point x="-99" y="-258" type="curve" smooth="yes"/>
      <point x="-99" y="-284"/>
      <point x="-74" y="-304"/>
      <point x="-27" y="-304" type="curve" smooth="yes"/>
      <point x="85" y="-304"/>
      <point x="166" y="-236"/>
      <point x="205" y="-51" type="curve" smooth="yes"/>
      <point x="217" y="7"/>
      <point x="521" y="1249"/>
    </contour>
  </outline>
</glyph>
<glyph name="K" format="2">
  <advance width="1138"/>
  <unicode hex="004B"/>
  <outline>
    <contour>
      <point x="239" y="78" type="curve" smooth="yes"/>
      <point x="315" y="420"/>
      <point x="449" y="960"/>
      <point x="543" y="1328" type="curve" smooth="yes"/>
      <point x="549" y="1354"/>
      <point x="561" y="1364"/>
      <point x="577" y="1366" type="curve" smooth="yes"/>
      <point x="707" y="1388" type="line" smooth="yes"/>
      <point x="717" y="1390"/>
      <point x="719" y="1392"/>
      <point x="719" y="1396" type="curve" smooth="yes"/>
      <point x="719" y="1398"/>
      <point x="717" y="1400"/>
      <point x="713" y="1400" type="curve" smooth="yes"/>
      <point x="333" y="1400" type="line" smooth="yes"/>
      <point x="329" y="1400"/>
      <point x="325" y="1398"/>
      <point x="325" y="1394" type="curve" smooth="yes"/>
      <point x="325" y="1390"/>
      <point x="327" y="1388"/>
      <point x="339" y="1386" type="curve" smooth="yes"/>
      <point x="463" y="1370" type="line" smooth="yes"/>
      <point x="477" y="1368"/>
      <point x="491" y="1358"/>
      <point x="487" y="1336" type="curve" smooth="yes"/>
      <point x="407" y="970"/>
      <point x="275" y="436"/>
      <point x="179" y="72" type="curve" smooth="yes"/>
      <point x="171" y="42"/>
      <point x="159" y="28"/>
      <point x="133" y="26" type="curve" smooth="yes"/>
      <point x="19" y="14" type="line" smooth="yes"/>
      <point x="13" y="14"/>
      <point x="7" y="12"/>
      <point x="7" y="6" type="curve" smooth="yes"/>
      <point x="7" y="4"/>
      <point x="11" y="0"/>
      <point x="17" y="0" type="curve" smooth="yes"/>
      <point x="395" y="0" type="line" smooth="yes"/>
      <point x="399" y="0"/>
      <point x="401" y="2"/>
      <point x="401" y="6" type="curve" smooth="yes"/>
      <point x="401" y="10"/>
      <point x="397" y="12"/>
      <point x="393" y="12" type="curve" smooth="yes"/>
      <point x="261" y="24" type="line" smooth="yes"/>
      <point x="241" y="26"/>
      <point x="233" y="50"/>
    </contour>
    <contour>
      <point x="590" y="769" type="line"/>
      <point x="813" y="146" type="line" smooth="yes"/>
      <point x="857" y="24"/>
      <point x="891" y="-20"/>
      <point x="948" y="-20" type="curve" smooth="yes"/>
      <point x="992.0" y="-20.0"/>
      <point x="1031.0" y="3.0"/>
      <point x="1046" y="38" type="curve" smooth="yes"/>
      <point x="1048" y="44"/>
      <point x="1047" y="48.0"/>
      <point x="1045" y="48" type="curve" smooth="yes"/>
      <point x="1043" y="48"/>
      <point x="1041" y="47"/>
      <point x="1039" y="43" type="curve" smooth="yes"/>
      <point x="1025" y="17.0"/>
      <point x="1009.0" y="6.0"/>
      <point x="984" y="6" type="curve" smooth="yes"/>
      <point x="936" y="6"/>
      <point x="904" y="52"/>
      <point x="857" y="178" type="curve" smooth="yes"/>
      <point x="622" y="802" type="line"/>
    </contour>
    <contour>
      <point x="311" y="446" type="line"/>
      <point x="1048" y="1270" type="line" smooth="yes"/>
      <point x="1120" y="1351"/>
      <point x="1161" y="1372"/>
      <point x="1196" y="1372" type="curve" smooth="yes"/>
      <point x="1239" y="1372"/>
      <point x="1265" y="1341"/>
      <point x="1306" y="1341" type="curve" smooth="yes"/>
      <point x="1344" y="1341"/>
      <point x="1363" y="1356"/>
      <point x="1363" y="1377" type="curve" smooth="yes"/>
      <point x="1363" y="1399"/>
      <point x="1340" y="1420"/>
      <point x="1295" y="1420" type="curve" smooth="yes"/>
      <point x="1197" y="1420"/>
      <point x="1126" y="1377"/>
      <point x="1033" y="1273" type="curve" smooth="yes"/>
      <point x="304" y="459" type="line"/>
    </contour>
  </outline>
</glyph>
<glyph name="L" format="2">
  <advance width="874"/>
  <unicode hex="004C"/>
  <outline>
    <contour>
      <point x="580" y="0" type="line" smooth="yes"/>
      <point x="608" y="0"/>
      <point x="615" y="-18"/>
      <point x="640" y="-18" type="curve" smooth="yes"/>
      <point x="709" y="-18"/>
      <point x="848" y="150"/>
      <point x="848" y="298" type="curve" smooth="yes"/>
      <point x="848" y="304"/>
      <point x="848" y="308"/>
      <point x="844" y="308" type="curve" smooth="yes"/>
      <point x="842" y="308"/>
      <point x="840" y="306"/>
      <point x="834" y="292" type="curve" smooth="yes"/>
      <point x="750" y="108"/>
      <point x="677" y="10"/>
      <point x="494" y="10" type="curve" smooth="yes"/>
      <point x="349" y="10" type="line" smooth="yes"/>
      <point x="255" y="10"/>
      <point x="231" y="31"/>
      <point x="240" y="78" type="curve" smooth="yes"/>
      <point x="316" y="420"/>
      <point x="450" y="960"/>
      <point x="544" y="1328" type="curve" smooth="yes"/>
      <point x="550" y="1354"/>
      <point x="562" y="1364"/>
      <point x="578" y="1366" type="curve" smooth="yes"/>
      <point x="708" y="1388" type="line" smooth="yes"/>
      <point x="718" y="1390"/>
      <point x="720" y="1392"/>
      <point x="720" y="1396" type="curve" smooth="yes"/>
      <point x="720" y="1398"/>
      <point x="718" y="1400"/>
      <point x="714" y="1400" type="curve" smooth="yes"/>
      <point x="334" y="1400" type="line" smooth="yes"/>
      <point x="330" y="1400"/>
      <point x="326" y="1398"/>
      <point x="326" y="1394" type="curve"/>
      <point x="326" y="1390"/>
      <point x="328" y="1388"/>
      <point x="340" y="1386" type="curve" smooth="yes"/>
      <point x="464" y="1370" type="line" smooth="yes"/>
      <point x="478" y="1368"/>
      <point x="492" y="1358"/>
      <point x="488" y="1336" type="curve" smooth="yes"/>
      <point x="408" y="970"/>
      <point x="276" y="436"/>
      <point x="180" y="72" type="curve" smooth="yes"/>
      <point x="172" y="42"/>
      <point x="160" y="28"/>
      <point x="134" y="26" type="curve" smooth="yes"/>
      <point x="20" y="14" type="line" smooth="yes"/>
      <point x="14" y="14"/>
      <point x="8" y="12"/>
      <point x="8" y="6" type="curve" smooth="yes"/>
      <point x="8" y="2"/>
      <point x="12" y="0"/>
      <point x="18" y="0" type="curve" smooth="yes"/>
    </contour>
  </outline>
</glyph>
<glyph name="M" format="2">
  <advance width="1413"/>
  <unicode hex="004D"/>
  <outline>
    <contour>
      <point x="712" y="266" type="line"/>
      <point x="660" y="608"/>
      <point x="602" y="1074"/>
      <point x="566" y="1370" type="curve" smooth="yes"/>
      <point x="564" y="1394"/>
      <point x="556" y="1400"/>
      <point x="528" y="1400" type="curve" smooth="yes"/>
      <point x="356" y="1400" type="line" smooth="yes"/>
      <point x="352" y="1400"/>
      <point x="348" y="1398"/>
      <point x="348" y="1394" type="curve" smooth="yes"/>
      <point x="348" y="1390"/>
      <point x="350" y="1388"/>
      <point x="362" y="1386" type="curve" smooth="yes"/>
      <point x="486" y="1370" type="line" smooth="yes"/>
      <point x="508" y="1368"/>
      <point x="516" y="1356"/>
      <point x="508" y="1328" type="curve" smooth="yes"/>
      <point x="155" y="173" type="line" smooth="yes"/>
      <point x="120" y="60"/>
      <point x="78" y="25"/>
      <point x="18" y="19" type="curve" smooth="yes"/>
      <point x="-32" y="14" type="line" smooth="yes"/>
      <point x="-38" y="14"/>
      <point x="-44" y="12"/>
      <point x="-44" y="6" type="curve" smooth="yes"/>
      <point x="-44" y="2"/>
      <point x="-40" y="0"/>
      <point x="-34" y="0" type="curve" smooth="yes"/>
      <point x="294" y="0" type="line" smooth="yes"/>
      <point x="298" y="0"/>
      <point x="300" y="2"/>
      <point x="300" y="6" type="curve" smooth="yes"/>
      <point x="300" y="10"/>
      <point x="296" y="12"/>
      <point x="292" y="12" type="curve" smooth="yes"/>
      <point x="231" y="18" type="line" smooth="yes"/>
      <point x="159" y="25"/>
      <point x="132" y="61"/>
      <point x="164" y="167" type="curve" smooth="yes"/>
      <point x="522" y="1344" type="line"/>
      <point x="514" y="1338" type="line"/>
      <point x="554" y="1076"/>
      <point x="628" y="524"/>
      <point x="664" y="210" type="curve" smooth="yes"/>
      <point x="664" y="206"/>
      <point x="664" y="196"/>
      <point x="668" y="196" type="curve" smooth="yes"/>
      <point x="672" y="196"/>
      <point x="676" y="202"/>
      <point x="680" y="210" type="curve" smooth="yes"/>
      <point x="1354" y="1364" type="line"/>
      <point x="1316" y="1308" type="line"/>
      <point x="1248" y="866"/>
      <point x="1158" y="456"/>
      <point x="1086" y="74" type="curve" smooth="yes"/>
      <point x="1080" y="42"/>
      <point x="1066" y="28"/>
      <point x="1040" y="26" type="curve" smooth="yes"/>
      <point x="926" y="14" type="line" smooth="yes"/>
      <point x="920" y="14"/>
      <point x="914" y="12"/>
      <point x="914" y="6" type="curve" smooth="yes"/>
      <point x="914" y="2"/>
      <point x="918" y="0"/>
      <point x="924" y="0" type="curve" smooth="yes"/>
      <point x="1302" y="0" type="line" smooth="yes"/>
      <point x="1306" y="0"/>
      <point x="1308" y="2"/>
      <point x="1308" y="6" type="curve" smooth="yes"/>
      <point x="1308" y="10"/>
      <point x="1304" y="12"/>
      <point x="1300" y="12" type="curve" smooth="yes"/>
      <point x="1168" y="24" type="line" smooth="yes"/>
      <point x="1148" y="26"/>
      <point x="1142" y="50"/>
      <point x="1146" y="78" type="curve" smooth="yes"/>
      <point x="1198" y="420"/>
      <point x="1308" y="958"/>
      <point x="1376" y="1328" type="curve" smooth="yes"/>
      <point x="1380" y="1354"/>
      <point x="1392" y="1362"/>
      <point x="1410" y="1366" type="curve" smooth="yes"/>
      <point x="1540" y="1388" type="line" smooth="yes"/>
      <point x="1550" y="1390"/>
      <point x="1552" y="1392"/>
      <point x="1552" y="1396" type="curve" smooth="yes"/>
      <point x="1552" y="1398"/>
      <point x="1550" y="1400"/>
      <point x="1546" y="1400" type="curve" smooth="yes"/>
      <point x="1402" y="1400" type="line" smooth="yes"/>
      <point x="1368" y="1400"/>
      <point x="1360" y="1398"/>
      <point x="1346" y="1374" type="curve" smooth="yes"/>
      <point x="668" y="208" type="line"/>
    </contour>
  </outline>
</glyph>
<glyph name="N" format="2">
  <advance width="1161"/>
  <unicode hex="004E"/>
  <outline>
    <contour>
      <point x="168" y="154" type="line" smooth="yes"/>
      <point x="146" y="65"/>
      <point x="173" y="25"/>
      <point x="232" y="19" type="curve" smooth="yes"/>
      <point x="304" y="12" type="line" smooth="yes"/>
      <point x="308" y="12"/>
      <point x="312" y="10"/>
      <point x="312" y="6" type="curve" smooth="yes"/>
      <point x="312" y="2"/>
      <point x="310" y="0"/>
      <point x="306" y="0" type="curve" smooth="yes"/>
      <point x="-12" y="0" type="line" smooth="yes"/>
      <point x="-26" y="0"/>
      <point x="-32" y="0"/>
      <point x="-32" y="6" type="curve"/>
      <point x="-32" y="10"/>
      <point x="-28" y="14"/>
      <point x="-20" y="14" type="curve" smooth="yes"/>
      <point x="32" y="19" type="line" smooth="yes"/>
      <point x="90" y="25"/>
      <point x="136" y="65"/>
      <point x="159" y="157" type="curve" smooth="yes"/>
      <point x="410" y="1138" type="line" smooth="yes"/>
      <point x="418" y="1168"/>
      <point x="415" y="1186"/>
      <point x="405" y="1208" type="curve" smooth="yes"/>
      <point x="322" y="1388" type="line" smooth="yes"/>
      <point x="320" y="1394"/>
      <point x="322" y="1400"/>
      <point x="330" y="1400" type="curve" smooth="yes"/>
      <point x="356" y="1400" type="line" smooth="yes"/>
      <point x="374" y="1400"/>
      <point x="384" y="1390"/>
      <point x="394" y="1364" type="curve" smooth="yes"/>
      <point x="629" y="817"/>
      <point x="761" y="496"/>
      <point x="901" y="160" type="curve"/>
      <point x="889" y="160" type="line"/>
      <point x="1145" y="1224" type="line" smooth="yes"/>
      <point x="1179" y="1364"/>
      <point x="1231" y="1414"/>
      <point x="1283" y="1414" type="curve" smooth="yes"/>
      <point x="1307" y="1414"/>
      <point x="1326" y="1398"/>
      <point x="1326" y="1378" type="curve" smooth="yes"/>
      <point x="1326" y="1350"/>
      <point x="1303" y="1328"/>
      <point x="1245" y="1306" type="curve" smooth="yes"/>
      <point x="1188" y="1284"/>
      <point x="1157" y="1244"/>
      <point x="1141" y="1178" type="curve" smooth="yes"/>
      <point x="907" y="186" type="line" smooth="yes"/>
      <point x="904" y="172"/>
      <point x="901" y="160"/>
      <point x="918" y="120" type="curve" smooth="yes"/>
      <point x="962" y="18" type="line" smooth="yes"/>
      <point x="966" y="6"/>
      <point x="964" y="0"/>
      <point x="954" y="0" type="curve" smooth="yes"/>
      <point x="902" y="0" type="line" smooth="yes"/>
      <point x="890" y="0"/>
      <point x="890" y="6"/>
      <point x="890" y="22" type="curve" smooth="yes"/>
      <point x="889" y="42"/>
      <point x="887" y="50"/>
      <point x="875" y="82" type="curve" smooth="yes"/>
      <point x="749" y="394"/>
      <point x="599" y="752"/>
      <point x="418" y="1172" type="curve"/>
      <point x="431" y="1184" type="line"/>
    </contour>
  </outline>
</glyph>
<glyph name="O" format="2">
  <advance width="1316"/>
  <unicode hex="004F"/>
  <outline>
    <contour>
      <point x="911" y="1420" type="curve" smooth="yes"/>
      <point x="603" y="1420"/>
      <point x="282" y="1136"/>
      <point x="181" y="719" type="curve" smooth="yes"/>
      <point x="70" y="262"/>
      <point x="284" y="-20"/>
      <point x="551" y="-20" type="curve" smooth="yes"/>
      <point x="863" y="-20"/>
      <point x="1168" y="253"/>
      <point x="1269" y="690" type="curve" smooth="yes"/>
      <point x="1371" y="1127"/>
      <point x="1191" y="1420"/>
    </contour>
    <contour>
      <point x="555" y="-12" type="curve" smooth="yes"/>
      <point x="291" y="-12"/>
      <point x="145" y="250"/>
      <point x="239" y="718" type="curve" smooth="yes"/>
      <point x="319" y="1108"/>
      <point x="602" y="1412"/>
      <point x="907" y="1412" type="curve" smooth="yes"/>
      <point x="1144" y="1412"/>
      <point x="1331" y="1149"/>
      <point x="1207" y="677" type="curve" smooth="yes"/>
      <point x="1087" y="220"/>
      <point x="827" y="-12"/>
    </contour>
  </outline>
</glyph>
<glyph name="P" format="2">
  <advance width="1064"/>
  <unicode hex="0050"/>
  <outline>
    <contour>
      <point x="1130" y="966" type="curve" smooth="yes"/>
      <point x="1157" y="1242"/>
      <point x="966" y="1400"/>
      <point x="685" y="1400" type="curve" smooth="yes"/>
      <point x="342" y="1400" type="line" smooth="yes"/>
      <point x="331" y="1400"/>
      <point x="326" y="1400"/>
      <point x="326" y="1394" type="curve" smooth="yes"/>
      <point x="326" y="1391"/>
      <point x="328" y="1388"/>
      <point x="344" y="1386" type="curve" smooth="yes"/>
      <point x="455" y="1372" type="line" smooth="yes"/>
      <point x="483" y="1368"/>
      <point x="491" y="1351"/>
      <point x="486" y="1320" type="curve" smooth="yes"/>
      <point x="470" y="1223"/>
      <point x="191" y="106"/>
      <point x="180" y="72" type="curve" smooth="yes"/>
      <point x="169" y="38"/>
      <point x="159" y="29"/>
      <point x="123" y="25" type="curve" smooth="yes"/>
      <point x="17" y="14" type="line" smooth="yes"/>
      <point x="9" y="13"/>
      <point x="7" y="10"/>
      <point x="7" y="6" type="curve" smooth="yes"/>
      <point x="7" y="2"/>
      <point x="11" y="0"/>
      <point x="17" y="0" type="curve" smooth="yes"/>
      <point x="389" y="0" type="line" smooth="yes"/>
      <point x="398" y="0"/>
      <point x="401" y="1"/>
      <point x="401" y="6" type="curve" smooth="yes"/>
      <point x="401" y="10"/>
      <point x="398" y="11"/>
      <point x="392" y="12" type="curve" smooth="yes"/>
      <point x="270" y="23" type="line" smooth="yes"/>
      <point x="243" y="25"/>
      <point x="233" y="44"/>
      <point x="239" y="76" type="curve" smooth="yes"/>
      <point x="246" y="116"/>
      <point x="519" y="1239"/>
      <point x="546" y="1335" type="curve" smooth="yes"/>
      <point x="557" y="1375"/>
      <point x="602" y="1393"/>
      <point x="681" y="1393" type="curve" smooth="yes"/>
      <point x="942" y="1393"/>
      <point x="1101" y="1270"/>
      <point x="1070" y="970" type="curve" smooth="yes"/>
      <point x="1039" y="675"/>
      <point x="873" y="531"/>
      <point x="599" y="531" type="curve" smooth="yes"/>
      <point x="501" y="531"/>
      <point x="443" y="548"/>
      <point x="345" y="595" type="curve"/>
      <point x="340" y="592" type="line"/>
      <point x="434" y="538"/>
      <point x="508" y="523"/>
      <point x="596" y="523" type="curve" smooth="yes"/>
      <point x="891" y="523"/>
      <point x="1104" y="695"/>
    </contour>
  </outline>
</glyph>
<glyph name="Q" format="2">
  <advance width="1321"/>
  <unicode hex="0051"/>
  <outline>
    <contour>
      <point x="617" y="324" type="curve" smooth="yes"/>
      <point x="499" y="-97"/>
      <point x="648" y="-290"/>
      <point x="896" y="-290" type="curve" smooth="yes"/>
      <point x="917" y="-290"/>
      <point x="926" y="-284"/>
      <point x="935" y="-273" type="curve" smooth="yes"/>
      <point x="988" y="-210" type="line" smooth="yes"/>
      <point x="990" y="-207"/>
      <point x="990" y="-204"/>
      <point x="988" y="-202" type="curve" smooth="yes"/>
      <point x="980" y="-194"/>
      <point x="933" y="-233"/>
      <point x="828" y="-225" type="curve" smooth="yes"/>
      <point x="664" y="-213"/>
      <point x="512" y="-96"/>
      <point x="626" y="322" type="curve" smooth="yes"/>
      <point x="628" y="329"/>
      <point x="626" y="330"/>
      <point x="623" y="331" type="curve" smooth="yes"/>
      <point x="619" y="332"/>
      <point x="618" y="329"/>
    </contour>
    <contour>
      <point x="904" y="1420" type="curve" smooth="yes"/>
      <point x="596" y="1420"/>
      <point x="282" y="1124"/>
      <point x="186" y="730" type="curve" smooth="yes"/>
      <point x="68" y="238"/>
      <point x="282" y="-20"/>
      <point x="554" y="-20" type="curve" smooth="yes"/>
      <point x="872" y="-20"/>
      <point x="1166" y="238"/>
      <point x="1272" y="690" type="curve" smooth="yes"/>
      <point x="1372" y="1120"/>
      <point x="1190" y="1420"/>
    </contour>
    <contour>
      <point x="558" y="-12" type="curve" smooth="yes"/>
      <point x="294" y="-12"/>
      <point x="148" y="250"/>
      <point x="242" y="718" type="curve" smooth="yes"/>
      <point x="322" y="1108"/>
      <point x="600" y="1412"/>
      <point x="900" y="1412" type="curve" smooth="yes"/>
      <point x="1150" y="1412"/>
      <point x="1338" y="1172"/>
      <point x="1216" y="702" type="curve" smooth="yes"/>
      <point x="1092" y="228"/>
      <point x="820" y="-12"/>
    </contour>
  </outline>
</glyph>
<glyph name="R" format="2">
  <advance width="1083"/>
  <unicode hex="0052"/>
  <outline>
    <contour>
      <point x="339" y="632" type="line"/>
      <point x="390" y="596"/>
      <point x="471" y="572"/>
      <point x="557" y="572" type="curve" smooth="yes"/>
      <point x="871" y="572"/>
      <point x="1062" y="752"/>
      <point x="1097" y="965" type="curve" smooth="yes"/>
      <point x="1144" y="1245"/>
      <point x="969" y="1400"/>
      <point x="685" y="1400" type="curve" smooth="yes"/>
      <point x="333" y="1400" type="line" smooth="yes"/>
      <point x="329" y="1400"/>
      <point x="325" y="1398"/>
      <point x="325" y="1394" type="curve" smooth="yes"/>
      <point x="325" y="1390"/>
      <point x="327" y="1388"/>
      <point x="339" y="1386" type="curve" smooth="yes"/>
      <point x="463" y="1370" type="line" smooth="yes"/>
      <point x="477" y="1368"/>
      <point x="491" y="1358"/>
      <point x="487" y="1336" type="curve" smooth="yes"/>
      <point x="405" y="964"/>
      <point x="275" y="436"/>
      <point x="179" y="72" type="curve" smooth="yes"/>
      <point x="171" y="42"/>
      <point x="159" y="28"/>
      <point x="133" y="26" type="curve" smooth="yes"/>
      <point x="19" y="14" type="line" smooth="yes"/>
      <point x="13" y="14"/>
      <point x="7" y="12"/>
      <point x="7" y="6" type="curve" smooth="yes"/>
      <point x="7" y="2"/>
      <point x="11" y="0"/>
      <point x="17" y="0" type="curve" smooth="yes"/>
      <point x="395" y="0" type="line" smooth="yes"/>
      <point x="399" y="0"/>
      <point x="401" y="2"/>
      <point x="401" y="6" type="curve" smooth="yes"/>
      <point x="401" y="10"/>
      <point x="397" y="12"/>
      <point x="393" y="12" type="curve" smooth="yes"/>
      <point x="261" y="24" type="line" smooth="yes"/>
      <point x="241" y="26"/>
      <point x="233" y="50"/>
      <point x="239" y="78" type="curve" smooth="yes"/>
      <point x="317" y="438"/>
      <point x="451" y="966"/>
      <point x="543" y="1328" type="curve" smooth="yes"/>
      <point x="555" y="1378"/>
      <point x="605" y="1392"/>
      <point x="685" y="1392" type="curve" smooth="yes"/>
      <point x="961" y="1392"/>
      <point x="1093" y="1249"/>
      <point x="1047" y="975" type="curve" smooth="yes"/>
      <point x="1009" y="753"/>
      <point x="857" y="580"/>
      <point x="557" y="580" type="curve" smooth="yes"/>
      <point x="471" y="580"/>
      <point x="401" y="605"/>
      <point x="345" y="636" type="curve"/>
    </contour>
    <contour>
      <point x="615" y="576" type="line"/>
      <point x="729" y="232" type="line" smooth="yes"/>
      <point x="795" y="32"/>
      <point x="833" y="-20"/>
      <point x="897" y="-20" type="curve" smooth="yes"/>
      <point x="949" y="-20"/>
      <point x="995" y="20"/>
      <point x="995" y="44" type="curve" smooth="yes"/>
      <point x="995" y="46"/>
      <point x="995" y="48"/>
      <point x="993" y="48" type="curve" smooth="yes"/>
      <point x="991" y="48"/>
      <point x="989" y="46"/>
      <point x="987" y="42" type="curve" smooth="yes"/>
      <point x="973" y="18"/>
      <point x="959" y="6"/>
      <point x="935" y="6" type="curve" smooth="yes"/>
      <point x="887" y="6"/>
      <point x="853" y="40"/>
      <point x="789" y="220" type="curve" smooth="yes"/>
      <point x="661" y="584" type="line"/>
    </contour>
  </outline>
</glyph>
<glyph name="S" format="2">
  <advance width="980"/>
  <unicode hex="0053"/>
  <outline>
    <contour>
      <point x="426" y="-20" type="curve" smooth="yes"/>
      <point x="626" y="-20"/>
      <point x="804" y="116"/>
      <point x="804" y="358" type="curve" smooth="yes"/>
      <point x="804" y="466"/>
      <point x="756" y="562"/>
      <point x="598" y="694" type="curve" smooth="yes"/>
      <point x="426" y="838"/>
      <point x="356" y="940"/>
      <point x="356" y="1064" type="curve" smooth="yes"/>
      <point x="356" y="1252"/>
      <point x="504" y="1412"/>
      <point x="732" y="1412" type="curve" smooth="yes"/>
      <point x="866" y="1412"/>
      <point x="958" y="1342"/>
      <point x="994" y="1190" type="curve" smooth="yes"/>
      <point x="1010" y="1120" type="line" smooth="yes"/>
      <point x="1016" y="1096"/>
      <point x="1028" y="1086"/>
      <point x="1040" y="1086" type="curve" smooth="yes"/>
      <point x="1060" y="1086"/>
      <point x="1072" y="1106"/>
      <point x="1072" y="1148" type="curve" smooth="yes"/>
      <point x="1072" y="1292"/>
      <point x="946" y="1420"/>
      <point x="732" y="1420" type="curve" smooth="yes"/>
      <point x="478" y="1420"/>
      <point x="316" y="1212"/>
      <point x="316" y="1022" type="curve" smooth="yes"/>
      <point x="316" y="890"/>
      <point x="384" y="790"/>
      <point x="562" y="646" type="curve" smooth="yes"/>
      <point x="714" y="522"/>
      <point x="768" y="430"/>
      <point x="768" y="312" type="curve" smooth="yes"/>
      <point x="768" y="140"/>
      <point x="630" y="-12"/>
      <point x="428" y="-12" type="curve" smooth="yes"/>
      <point x="262" y="-12"/>
      <point x="144" y="80"/>
      <point x="112" y="290" type="curve" smooth="yes"/>
      <point x="102" y="356" type="line" smooth="yes"/>
      <point x="102" y="360"/>
      <point x="100" y="362"/>
      <point x="98" y="362" type="curve" smooth="yes"/>
      <point x="96" y="362"/>
      <point x="96" y="360"/>
      <point x="96" y="356" type="curve" smooth="yes"/>
      <point x="66" y="6" type="line" smooth="yes"/>
      <point x="66" y="0"/>
      <point x="68" y="-4"/>
      <point x="72" y="-4" type="curve" smooth="yes"/>
      <point x="86" y="-4"/>
      <point x="128" y="98"/>
      <point x="150" y="98" type="curve" smooth="yes"/>
      <point x="174" y="98"/>
      <point x="236" y="-20"/>
    </contour>
  </outline>
</glyph>
<glyph name="T" format="2">
  <advance width="903"/>
  <unicode hex="0054"/>
  <outline>
    <contour>
      <point x="439" y="1428" type="curve" smooth="yes"/>
      <point x="307" y="1428"/>
      <point x="239" y="1385"/>
      <point x="216" y="1306" type="curve" smooth="yes"/>
      <point x="194" y="1229"/>
      <point x="221" y="1173"/>
      <point x="258" y="1169" type="curve" smooth="yes"/>
      <point x="283" y="1167"/>
      <point x="298" y="1184"/>
      <point x="300" y="1204" type="curve" smooth="yes"/>
      <point x="303" y="1240"/>
      <point x="245" y="1260"/>
      <point x="264" y="1334" type="curve" smooth="yes"/>
      <point x="276" y="1380"/>
      <point x="329" y="1420"/>
      <point x="437" y="1420" type="curve" smooth="yes"/>
      <point x="540" y="1420"/>
      <point x="901" y="1308"/>
      <point x="1019" y="1308" type="curve" smooth="yes"/>
      <point x="1096.0555555555557" y="1308.0"/>
      <point x="1165.0" y="1362.1153846153845"/>
      <point x="1165" y="1442" type="curve" smooth="yes"/>
      <point x="1165" y="1473"/>
      <point x="1152" y="1486"/>
      <point x="1137" y="1486" type="curve" smooth="yes"/>
      <point x="1120.0" y="1486.0"/>
      <point x="1107" y="1476"/>
      <point x="1102" y="1454" type="curve" smooth="yes"/>
      <point x="1095.6843260292414" y="1427.1583856242758"/>
      <point x="1101.299256047708" y="1395.0473961669782"/>
      <point x="1095" y="1373" type="curve" smooth="yes"/>
      <point x="1085" y="1337"/>
      <point x="1054.0" y="1321.0"/>
      <point x="993" y="1321.0" type="curve" smooth="yes"/>
      <point x="909" y="1321"/>
      <point x="545" y="1428"/>
    </contour>
    <contour>
      <point x="404" y="78" type="curve" smooth="yes"/>
      <point x="488" y="417"/>
      <point x="628" y="954"/>
      <point x="742" y="1370" type="curve"/>
      <point x="684" y="1380" type="line"/>
      <point x="584" y="970"/>
      <point x="446" y="439"/>
      <point x="344" y="72" type="curve" smooth="yes"/>
      <point x="336" y="42"/>
      <point x="324" y="28"/>
      <point x="298" y="26" type="curve" smooth="yes"/>
      <point x="184" y="14" type="line" smooth="yes"/>
      <point x="178" y="14"/>
      <point x="172" y="12"/>
      <point x="172" y="6" type="curve" smooth="yes"/>
      <point x="172" y="2"/>
      <point x="176" y="0"/>
      <point x="182" y="0" type="curve" smooth="yes"/>
      <point x="558" y="0" type="line" smooth="yes"/>
      <point x="564" y="0"/>
      <point x="566" y="2"/>
      <point x="566" y="6" type="curve" smooth="yes"/>
      <point x="566" y="10"/>
      <point x="562" y="12"/>
      <point x="558" y="12" type="curve" smooth="yes"/>
      <point x="432" y="24" type="line" smooth="yes"/>
      <point x="406" y="26"/>
      <point x="396" y="42"/>
    </contour>
  </outline>
</glyph>
<glyph name="U" format="2">
  <advance width="1156"/>
  <unicode hex="0055"/>
  <outline>
    <contour>
      <point x="926" y="374" type="line" smooth="yes"/>
      <point x="854" y="114"/>
      <point x="712" y="-2"/>
      <point x="530" y="-2" type="curve" smooth="yes"/>
      <point x="358" y="-2"/>
      <point x="246" y="84"/>
      <point x="246" y="252" type="curve" smooth="yes"/>
      <point x="246" y="330"/>
      <point x="274" y="450"/>
      <point x="330" y="666" type="curve" smooth="yes"/>
      <point x="504" y="1328" type="line" smooth="yes"/>
      <point x="512" y="1356"/>
      <point x="522" y="1364"/>
      <point x="538" y="1366" type="curve" smooth="yes"/>
      <point x="668" y="1388" type="line" smooth="yes"/>
      <point x="678" y="1390"/>
      <point x="680" y="1392"/>
      <point x="680" y="1396" type="curve" smooth="yes"/>
      <point x="680" y="1398"/>
      <point x="678" y="1400"/>
      <point x="674" y="1400" type="curve" smooth="yes"/>
      <point x="294" y="1400" type="line" smooth="yes"/>
      <point x="290" y="1400"/>
      <point x="286" y="1398"/>
      <point x="286" y="1394" type="curve" smooth="yes"/>
      <point x="286" y="1390"/>
      <point x="288" y="1388"/>
      <point x="300" y="1386" type="curve" smooth="yes"/>
      <point x="424" y="1370" type="line" smooth="yes"/>
      <point x="438" y="1368"/>
      <point x="454" y="1356"/>
      <point x="448" y="1336" type="curve" smooth="yes"/>
      <point x="274" y="672" type="line" smooth="yes"/>
      <point x="234" y="522"/>
      <point x="186" y="324"/>
      <point x="186" y="258" type="curve" smooth="yes"/>
      <point x="186" y="96"/>
      <point x="286" y="-20"/>
      <point x="490" y="-20" type="curve" smooth="yes"/>
      <point x="730" y="-20"/>
      <point x="866" y="112"/>
      <point x="942" y="384" type="curve" smooth="yes"/>
      <point x="1181" y="1244" type="line" smooth="yes"/>
      <point x="1206" y="1334"/>
      <point x="1235" y="1367"/>
      <point x="1291" y="1376" type="curve" smooth="yes"/>
      <point x="1366" y="1388" type="line" smooth="yes"/>
      <point x="1376" y="1390"/>
      <point x="1378" y="1392"/>
      <point x="1378" y="1396" type="curve" smooth="yes"/>
      <point x="1378" y="1398"/>
      <point x="1376" y="1400"/>
      <point x="1372" y="1400" type="curve" smooth="yes"/>
      <point x="1040" y="1400" type="line" smooth="yes"/>
      <point x="1036" y="1400"/>
      <point x="1032" y="1398"/>
      <point x="1032" y="1394" type="curve" smooth="yes"/>
      <point x="1032" y="1390"/>
      <point x="1034" y="1388"/>
      <point x="1046" y="1386" type="curve" smooth="yes"/>
      <point x="1112" y="1378" type="line" smooth="yes"/>
      <point x="1176" y="1370"/>
      <point x="1192" y="1330"/>
      <point x="1169" y="1248" type="curve" smooth="yes"/>
    </contour>
  </outline>
</glyph>
<glyph name="V" format="2">
  <advance width="936"/>
  <unicode hex="0056"/>
  <outline>
    <contour>
      <point x="896" y="1394" type="curve" smooth="yes"/>
      <point x="896" y="1390"/>
      <point x="900" y="1388"/>
      <point x="910" y="1386" type="curve" smooth="yes"/>
      <point x="968" y="1378" type="line" smooth="yes"/>
      <point x="1028" y="1370"/>
      <point x="1062" y="1316"/>
      <point x="1019" y="1241" type="curve" smooth="yes"/>
      <point x="374" y="120" type="line"/>
      <point x="384" y="122" type="line"/>
      <point x="384" y="508"/>
      <point x="394" y="970"/>
      <point x="398" y="1290" type="curve" smooth="yes"/>
      <point x="398" y="1324"/>
      <point x="404" y="1360"/>
      <point x="438" y="1366" type="curve" smooth="yes"/>
      <point x="568" y="1388" type="line" smooth="yes"/>
      <point x="578" y="1390"/>
      <point x="580" y="1392"/>
      <point x="580" y="1396" type="curve" smooth="yes"/>
      <point x="580" y="1398"/>
      <point x="578" y="1400"/>
      <point x="574" y="1400" type="curve" smooth="yes"/>
      <point x="214" y="1400" type="line" smooth="yes"/>
      <point x="210" y="1400"/>
      <point x="206" y="1398"/>
      <point x="206" y="1394" type="curve" smooth="yes"/>
      <point x="206" y="1390"/>
      <point x="208" y="1388"/>
      <point x="220" y="1386" type="curve" smooth="yes"/>
      <point x="308" y="1366" type="line" smooth="yes"/>
      <point x="338" y="1360"/>
      <point x="344" y="1340"/>
      <point x="344" y="1296" type="curve" smooth="yes"/>
      <point x="344" y="990"/>
      <point x="340" y="268"/>
      <point x="328" y="146" type="curve" smooth="yes"/>
      <point x="326" y="122"/>
      <point x="324" y="116"/>
      <point x="318" y="96" type="curve" smooth="yes"/>
      <point x="300" y="30" type="line" smooth="yes"/>
      <point x="296" y="14"/>
      <point x="296" y="0"/>
      <point x="312" y="0" type="curve" smooth="yes"/>
      <point x="342" y="0" type="line" smooth="yes"/>
      <point x="354" y="0"/>
      <point x="360" y="6"/>
      <point x="364" y="20" type="curve" smooth="yes"/>
      <point x="394" y="130" type="line" smooth="yes"/>
      <point x="400" y="152"/>
      <point x="415" y="175"/>
      <point x="428" y="198" type="curve" smooth="yes"/>
      <point x="1028" y="1236" type="line" smooth="yes"/>
      <point x="1078" y="1322"/>
      <point x="1116.0" y="1361.0"/>
      <point x="1166" y="1376" type="curve" smooth="yes"/>
      <point x="1206" y="1388" type="line" smooth="yes"/>
      <point x="1216" y="1391"/>
      <point x="1218" y="1392"/>
      <point x="1218" y="1396" type="curve" smooth="yes"/>
      <point x="1218" y="1398"/>
      <point x="1216" y="1400"/>
      <point x="1212" y="1400" type="curve" smooth="yes"/>
      <point x="904" y="1400" type="line" smooth="yes"/>
      <point x="900" y="1400"/>
      <point x="896" y="1398"/>
    </contour>
  </outline>
</glyph>
<glyph name="W" format="2">
  <advance width="1588"/>
  <unicode hex="0057"/>
  <outline>
    <contour>
      <point x="998" y="1210" type="line"/>
      <point x="376" y="124" type="line"/>
      <point x="382" y="118" type="line"/>
      <point x="388" y="499"/>
      <point x="397" y="1054"/>
      <point x="397" y="1301" type="curve" smooth="yes"/>
      <point x="398" y="1338"/>
      <point x="411" y="1363"/>
      <point x="450" y="1369" type="curve" smooth="yes"/>
      <point x="564" y="1387" type="line" smooth="yes"/>
      <point x="575" y="1389"/>
      <point x="579" y="1390"/>
      <point x="579" y="1394" type="curve" smooth="yes"/>
      <point x="579" y="1398"/>
      <point x="576" y="1400"/>
      <point x="566" y="1400" type="curve" smooth="yes"/>
      <point x="219" y="1400" type="line" smooth="yes"/>
      <point x="211" y="1400"/>
      <point x="208" y="1399"/>
      <point x="208" y="1395" type="curve" smooth="yes"/>
      <point x="208" y="1391"/>
      <point x="211" y="1389"/>
      <point x="223" y="1386" type="curve" smooth="yes"/>
      <point x="299" y="1368" type="line" smooth="yes"/>
      <point x="333" y="1360"/>
      <point x="342" y="1344"/>
      <point x="343" y="1304" type="curve" smooth="yes"/>
      <point x="352" y="920"/>
      <point x="335" y="257"/>
      <point x="327" y="144" type="curve" smooth="yes"/>
      <point x="326" y="131"/>
      <point x="321" y="113"/>
      <point x="316" y="93" type="curve" smooth="yes"/>
      <point x="297" y="22" type="line" smooth="yes"/>
      <point x="294" y="10"/>
      <point x="302" y="0"/>
      <point x="318" y="0" type="curve" smooth="yes"/>
      <point x="336" y="0" type="line" smooth="yes"/>
      <point x="351" y="0"/>
      <point x="359" y="7"/>
      <point x="363" y="20" type="curve" smooth="yes"/>
      <point x="385" y="101" type="line" smooth="yes"/>
      <point x="392" y="128"/>
      <point x="396" y="147"/>
      <point x="405" y="163" type="curve" smooth="yes"/>
      <point x="1006" y="1199" type="line"/>
    </contour>
    <contour>
      <point x="1547" y="1394" type="curve" smooth="yes"/>
      <point x="1547" y="1391"/>
      <point x="1552" y="1388"/>
      <point x="1558" y="1387" type="curve" smooth="yes"/>
      <point x="1632" y="1377" type="line" smooth="yes"/>
      <point x="1714" y="1366"/>
      <point x="1721" y="1327"/>
      <point x="1693" y="1279" type="curve" smooth="yes"/>
      <point x="1026" y="123" type="line"/>
      <point x="1036" y="122" type="line"/>
      <point x="1030" y="239"/>
      <point x="1046" y="1142"/>
      <point x="1049" y="1294" type="curve" smooth="yes"/>
      <point x="1050" y="1346"/>
      <point x="1065" y="1363"/>
      <point x="1103" y="1369" type="curve" smooth="yes"/>
      <point x="1214" y="1387" type="line" smooth="yes"/>
      <point x="1227" y="1389"/>
      <point x="1231" y="1392"/>
      <point x="1231" y="1395" type="curve" smooth="yes"/>
      <point x="1231" y="1398"/>
      <point x="1229" y="1400"/>
      <point x="1224" y="1400" type="curve" smooth="yes"/>
      <point x="867" y="1400" type="line" smooth="yes"/>
      <point x="862" y="1400"/>
      <point x="857" y="1399"/>
      <point x="857" y="1394" type="curve" smooth="yes"/>
      <point x="857" y="1390"/>
      <point x="865" y="1387"/>
      <point x="870" y="1386" type="curve" smooth="yes"/>
      <point x="954" y="1368" type="line" smooth="yes"/>
      <point x="986" y="1361"/>
      <point x="995" y="1342"/>
      <point x="995" y="1304" type="curve" smooth="yes"/>
      <point x="995" y="1131"/>
      <point x="987" y="253"/>
      <point x="980" y="168" type="curve" smooth="yes"/>
      <point x="978" y="147"/>
      <point x="978" y="124"/>
      <point x="972" y="103" type="curve" smooth="yes"/>
      <point x="950" y="26" type="line" smooth="yes"/>
      <point x="945" y="9"/>
      <point x="951" y="0"/>
      <point x="964" y="0" type="curve" smooth="yes"/>
      <point x="989" y="0" type="line" smooth="yes"/>
      <point x="1003" y="0"/>
      <point x="1012" y="6"/>
      <point x="1017" y="24" type="curve" smooth="yes"/>
      <point x="1035" y="92" type="line" smooth="yes"/>
      <point x="1042" y="119"/>
      <point x="1046" y="138"/>
      <point x="1052" y="149" type="curve" smooth="yes"/>
      <point x="1700" y="1275" type="line" smooth="yes"/>
      <point x="1731" y="1330"/>
      <point x="1768" y="1359"/>
      <point x="1812" y="1374" type="curve" smooth="yes"/>
      <point x="1827" y="1379" type="line" smooth="yes"/>
      <point x="1857" y="1389"/>
      <point x="1869" y="1391"/>
      <point x="1869" y="1395" type="curve" smooth="yes"/>
      <point x="1869" y="1398"/>
      <point x="1867" y="1400"/>
      <point x="1859" y="1400" type="curve" smooth="yes"/>
      <point x="1555" y="1400" type="line" smooth="yes"/>
      <point x="1550" y="1400"/>
      <point x="1547" y="1398"/>
    </contour>
  </outline>
</glyph>
<glyph name="X" format="2">
  <advance width="1084"/>
  <unicode hex="0058"/>
  <outline>
    <contour>
      <point x="617" y="738" type="line"/>
      <point x="216" y="158" type="line" smooth="yes"/>
      <point x="144" y="53"/>
      <point x="65" y="15"/>
      <point x="-42" y="15" type="curve" smooth="yes"/>
      <point x="-52" y="15"/>
      <point x="-60" y="15"/>
      <point x="-60" y="7" type="curve" smooth="yes"/>
      <point x="-60" y="3"/>
      <point x="-60" y="0"/>
      <point x="-52" y="0" type="curve" smooth="yes"/>
      <point x="322" y="0" type="line" smooth="yes"/>
      <point x="332" y="0"/>
      <point x="338" y="4"/>
      <point x="338" y="10" type="curve" smooth="yes"/>
      <point x="338" y="15"/>
      <point x="331" y="18"/>
      <point x="318" y="18" type="curve" smooth="yes"/>
      <point x="243" y="23" type="line" smooth="yes"/>
      <point x="156" y="29"/>
      <point x="152.95652173913044" y="43.173913043478265"/>
      <point x="224" y="146" type="curve" smooth="yes"/>
      <point x="622" y="732" type="line"/>
    </contour>
    <contour>
      <point x="463" y="1328" type="curve" smooth="yes"/>
      <point x="453" y="1360"/>
      <point x="465" y="1376"/>
      <point x="510" y="1381" type="curve" smooth="yes"/>
      <point x="583" y="1389" type="line" smooth="yes"/>
      <point x="590" y="1390"/>
      <point x="593" y="1392"/>
      <point x="593" y="1395" type="curve" smooth="yes"/>
      <point x="593" y="1398"/>
      <point x="591" y="1400"/>
      <point x="586" y="1400" type="curve" smooth="yes"/>
      <point x="284" y="1400" type="line" smooth="yes"/>
      <point x="279" y="1400"/>
      <point x="274" y="1399"/>
      <point x="274" y="1395" type="curve" smooth="yes"/>
      <point x="274" y="1391"/>
      <point x="278" y="1389"/>
      <point x="293" y="1387" type="curve" smooth="yes"/>
      <point x="362" y="1380"/>
      <point x="385" y="1372"/>
      <point x="399" y="1333" type="curve" smooth="yes"/>
      <point x="466" y="1151"/>
      <point x="802" y="195"/>
      <point x="832" y="98" type="curve" smooth="yes"/>
      <point x="844.6" y="60.2"/>
      <point x="835" y="35"/>
      <point x="786" y="28" type="curve" smooth="yes"/>
      <point x="699" y="15" type="line" smooth="yes"/>
      <point x="687" y="13"/>
      <point x="682" y="12"/>
      <point x="682" y="6" type="curve" smooth="yes"/>
      <point x="682" y="1"/>
      <point x="687" y="0"/>
      <point x="698" y="0" type="curve" smooth="yes"/>
      <point x="1024" y="0" type="line" smooth="yes"/>
      <point x="1031" y="0"/>
      <point x="1034" y="1"/>
      <point x="1034" y="5" type="curve" smooth="yes"/>
      <point x="1034" y="8"/>
      <point x="1033" y="11"/>
      <point x="1022" y="12" type="curve" smooth="yes"/>
      <point x="935" y="22"/>
      <point x="914" y="37"/>
      <point x="894" y="88" type="curve" smooth="yes"/>
      <point x="849" y="205"/>
      <point x="513" y="1165"/>
    </contour>
    <contour>
      <point x="656" y="732" type="line"/>
      <point x="992" y="1239" type="line" smooth="yes"/>
      <point x="1053" y="1331"/>
      <point x="1114.0" y="1365.0"/>
      <point x="1146" y="1365" type="curve" smooth="yes"/>
      <point x="1180" y="1365"/>
      <point x="1202" y="1346"/>
      <point x="1244" y="1346" type="curve" smooth="yes"/>
      <point x="1271" y="1346.0"/>
      <point x="1287.0" y="1362"/>
      <point x="1287" y="1379" type="curve" smooth="yes"/>
      <point x="1287" y="1399"/>
      <point x="1275.0" y="1418.0"/>
      <point x="1227" y="1418" type="curve" smooth="yes"/>
      <point x="1143.0" y="1418.0"/>
      <point x="1054" y="1357"/>
      <point x="982" y="1247" type="curve" smooth="yes"/>
      <point x="646" y="736" type="line"/>
    </contour>
  </outline>
</glyph>
<glyph name="Y" format="2">
  <advance width="944"/>
  <unicode hex="0059"/>
  <outline>
    <contour>
      <point x="513" y="446" type="line"/>
      <point x="517" y="444" type="line"/>
      <point x="506" y="531"/>
      <point x="395" y="1274"/>
      <point x="383" y="1341" type="curve" smooth="yes"/>
      <point x="376" y="1378"/>
      <point x="358" y="1400"/>
      <point x="321" y="1400" type="curve" smooth="yes"/>
      <point x="213" y="1400" type="line" smooth="yes"/>
      <point x="208" y="1400"/>
      <point x="205" y="1399"/>
      <point x="205" y="1394" type="curve" smooth="yes"/>
      <point x="205" y="1389"/>
      <point x="209" y="1387"/>
      <point x="214" y="1387" type="curve" smooth="yes"/>
      <point x="289" y="1383"/>
      <point x="320" y="1361"/>
      <point x="328" y="1317" type="curve" smooth="yes"/>
      <point x="338" y="1260"/>
      <point x="449" y="522"/>
      <point x="456" y="466" type="curve" smooth="yes"/>
      <point x="459" y="443"/>
      <point x="464" y="429"/>
      <point x="459" y="407" type="curve" smooth="yes"/>
      <point x="383" y="80" type="line" smooth="yes"/>
      <point x="376" y="49"/>
      <point x="350" y="27"/>
      <point x="299" y="23" type="curve" smooth="yes"/>
      <point x="206" y="16" type="line" smooth="yes"/>
      <point x="198" y="15"/>
      <point x="192" y="13"/>
      <point x="192" y="8" type="curve" smooth="yes"/>
      <point x="192" y="4"/>
      <point x="195" y="0"/>
      <point x="202" y="0" type="curve" smooth="yes"/>
      <point x="565" y="0" type="line" smooth="yes"/>
      <point x="575" y="0"/>
      <point x="585" y="2"/>
      <point x="585" y="9" type="curve" smooth="yes"/>
      <point x="585" y="12"/>
      <point x="580" y="14"/>
      <point x="568" y="15" type="curve" smooth="yes"/>
      <point x="481" y="22" type="line" smooth="yes"/>
      <point x="436" y="26"/>
      <point x="428" y="43"/>
      <point x="435" y="75" type="curve" smooth="yes"/>
      <point x="509" y="404" type="line" smooth="yes"/>
      <point x="513" y="422"/>
      <point x="515" y="433"/>
      <point x="522" y="446" type="curve" smooth="yes"/>
      <point x="968" y="1214" type="line" smooth="yes"/>
      <point x="1016" y="1296"/>
      <point x="1057.0" y="1328"/>
      <point x="1115" y="1335" type="curve" smooth="yes"/>
      <point x="1156" y="1340"/>
      <point x="1183.0" y="1356"/>
      <point x="1183" y="1387" type="curve" smooth="yes"/>
      <point x="1183.0" y="1404"/>
      <point x="1171" y="1420.0"/>
      <point x="1145" y="1420" type="curve" smooth="yes"/>
      <point x="1097" y="1420.0"/>
      <point x="1045" y="1371"/>
      <point x="962" y="1226" type="curve" smooth="yes"/>
    </contour>
  </outline>
</glyph>
<glyph name="Z" format="2">
  <advance width="1026"/>
  <unicode hex="005A"/>
  <outline>
    <contour>
      <point x="660" y="0" type="line" smooth="yes"/>
      <point x="679" y="0"/>
      <point x="695" y="-18"/>
      <point x="718" y="-18" type="curve" smooth="yes"/>
      <point x="789" y="-18"/>
      <point x="926" y="170"/>
      <point x="925" y="298" type="curve" smooth="yes"/>
      <point x="925" y="302"/>
      <point x="925" y="306"/>
      <point x="921" y="306" type="curve" smooth="yes"/>
      <point x="918" y="307"/>
      <point x="917" y="305"/>
      <point x="913" y="296" type="curve" smooth="yes"/>
      <point x="809" y="47"/>
      <point x="687" y="11"/>
      <point x="600" y="11" type="curve" smooth="yes"/>
      <point x="51" y="11" type="line"/>
      <point x="61" y="6" type="line"/>
      <point x="134" y="97"/>
      <point x="1165" y="1334"/>
      <point x="1195" y="1374" type="curve" smooth="yes"/>
      <point x="1199" y="1380"/>
      <point x="1204" y="1384"/>
      <point x="1204" y="1391" type="curve" smooth="yes"/>
      <point x="1204" y="1398"/>
      <point x="1199" y="1400"/>
      <point x="1190" y="1400" type="curve" smooth="yes"/>
      <point x="584" y="1400" type="line" smooth="yes"/>
      <point x="542" y="1400"/>
      <point x="509" y="1430"/>
      <point x="490" y="1430" type="curve" smooth="yes"/>
      <point x="479" y="1430"/>
      <point x="473" y="1424"/>
      <point x="462" y="1409" type="curve" smooth="yes"/>
      <point x="331" y="1218" type="line" smooth="yes"/>
      <point x="326" y="1211"/>
      <point x="324" y="1204"/>
      <point x="328" y="1200" type="curve" smooth="yes"/>
      <point x="333" y="1195"/>
      <point x="342" y="1200"/>
      <point x="346" y="1207" type="curve" smooth="yes"/>
      <point x="428" y="1332"/>
      <point x="514" y="1388"/>
      <point x="591" y="1388" type="curve" smooth="yes"/>
      <point x="1163" y="1388" type="line"/>
      <point x="1157" y="1395" type="line"/>
      <point x="1125" y="1357"/>
      <point x="98" y="118"/>
      <point x="19" y="26" type="curve" smooth="yes"/>
      <point x="15" y="21"/>
      <point x="11" y="15"/>
      <point x="11" y="10" type="curve" smooth="yes"/>
      <point x="11" y="4"/>
      <point x="17" y="0"/>
      <point x="24" y="0" type="curve" smooth="yes"/>
    </contour>
  </outline>
</glyph>
<glyph name="bracketleft" format="2">
  <advance width="647"/>
  <unicode hex="005B"/>
  <outline>
    <contour>
      <point x="612" y="1432" type="line" smooth="yes"/>
      <point x="613" y="1436"/>
      <point x="615" y="1438"/>
      <point x="619" y="1438" type="curve" smooth="yes"/>
      <point x="849" y="1438" type="line" smooth="yes"/>
      <point x="852" y="1438"/>
      <point x="856" y="1439"/>
      <point x="857" y="1443" type="curve" smooth="yes"/>
      <point x="858" y="1447"/>
      <point x="855" y="1448"/>
      <point x="852" y="1448" type="curve" smooth="yes"/>
      <point x="568" y="1448" type="line" smooth="yes"/>
      <point x="562" y="1448"/>
      <point x="557" y="1444"/>
      <point x="555" y="1437" type="curve" smooth="yes"/>
      <point x="113" y="-213" type="line" smooth="yes"/>
      <point x="111" y="-220"/>
      <point x="114" y="-224"/>
      <point x="120" y="-224" type="curve" smooth="yes"/>
      <point x="404" y="-224" type="line" smooth="yes"/>
      <point x="407" y="-224"/>
      <point x="410" y="-223"/>
      <point x="411" y="-219" type="curve" smooth="yes"/>
      <point x="412" y="-215"/>
      <point x="410" y="-214"/>
      <point x="407" y="-214" type="curve" smooth="yes"/>
      <point x="177" y="-214" type="line" smooth="yes"/>
      <point x="173" y="-214"/>
      <point x="171" y="-212"/>
      <point x="172" y="-208" type="curve" smooth="yes"/>
    </contour>
  </outline>
</glyph>
<glyph name="underscore" format="2">
  <advance width="581"/>
  <unicode hex="005F"/>
  <outline>
    <contour>
      <point x="-80" y="-296" type="curve" smooth="yes"/>
      <point x="-80" y="-312"/>
      <point x="-75" y="-315"/>
      <point x="-59" y="-315" type="curve" smooth="yes"/>
      <point x="480" y="-315" type="line" smooth="yes"/>
      <point x="494" y="-315"/>
      <point x="501" y="-312"/>
      <point x="501" y="-296" type="curve" smooth="yes"/>
      <point x="501" y="-280"/>
      <point x="494" y="-277"/>
      <point x="480" y="-277" type="curve" smooth="yes"/>
      <point x="-59" y="-277" type="line" smooth="yes"/>
      <point x="-75" y="-277"/>
      <point x="-80" y="-280"/>
    </contour>
  </outline>
</glyph>
<glyph name="b" format="2">
  <advance width="810"/>
  <unicode hex="0062"/>
  <outline>
    <contour>
      <point x="373" y="1054" type="line" smooth="yes"/>
      <point x="432" y="1270"/>
      <point x="568" y="1404"/>
      <point x="731" y="1404" type="curve" smooth="yes"/>
      <point x="791" y="1404"/>
      <point x="846" y="1378"/>
      <point x="897" y="1378" type="curve" smooth="yes"/>
      <point x="928" y="1378"/>
      <point x="947" y="1388"/>
      <point x="947" y="1406" type="curve" smooth="yes"/>
      <point x="947" y="1425"/>
      <point x="930" y="1438"/>
      <point x="876" y="1438" type="curve" smooth="yes"/>
      <point x="550" y="1438"/>
      <point x="389" y="1277"/>
      <point x="307" y="980" type="curve" smooth="yes"/>
      <point x="41" y="16" type="line" smooth="yes"/>
      <point x="39" y="7"/>
      <point x="40" y="1"/>
      <point x="45" y="0" type="curve" smooth="yes"/>
      <point x="51" y="-1"/>
      <point x="54" y="2"/>
      <point x="58" y="10" type="curve" smooth="yes"/>
      <point x="145" y="186" type="line"/>
      <point x="137" y="186" type="line"/>
      <point x="137.0" y="44.0"/>
      <point x="188.66666666666666" y="-15.0"/>
      <point x="323" y="-15" type="curve" smooth="yes"/>
      <point x="491" y="-15"/>
      <point x="720" y="207"/>
      <point x="770" y="509" type="curve" smooth="yes"/>
      <point x="811" y="757"/>
      <point x="732" y="865"/>
      <point x="630" y="865" type="curve" smooth="yes"/>
      <point x="467.71971496437055" y="865.0"/>
      <point x="300.2054388914777" y="696.4934769248897"/>
      <point x="203" y="463" type="curve"/>
      <point x="211" y="463" type="line"/>
    </contour>
    <contour>
      <point x="604" y="843" type="curve" smooth="yes"/>
      <point x="689" y="843"/>
      <point x="755" y="762"/>
      <point x="718" y="512" type="curve" smooth="yes"/>
      <point x="673" y="211"/>
      <point x="469" y="-1"/>
      <point x="303" y="-1" type="curve" smooth="yes"/>
      <point x="204.0958904109589" y="-1.0"/>
      <point x="151.0" y="55.0"/>
      <point x="151" y="186" type="curve" smooth="yes"/>
      <point x="151.0" y="452.0"/>
      <point x="391.1812080536913" y="843.0"/>
    </contour>
  </outline>
</glyph>
<glyph name="c" format="2">
  <advance width="637"/>
  <unicode hex="0063"/>
  <outline>
    <contour>
      <point x="483" y="858" type="curve" smooth="yes"/>
      <point x="560" y="858"/>
      <point x="609" y="822"/>
      <point x="609" y="772" type="curve" smooth="yes"/>
      <point x="609" y="736"/>
      <point x="589" y="694"/>
      <point x="589" y="662" type="curve" smooth="yes"/>
      <point x="589" y="646"/>
      <point x="600" y="634"/>
      <point x="612" y="634" type="curve" smooth="yes"/>
      <point x="634" y="634"/>
      <point x="650" y="660"/>
      <point x="650" y="718" type="curve" smooth="yes"/>
      <point x="650" y="805"/>
      <point x="585" y="870"/>
      <point x="487" y="870" type="curve" smooth="yes"/>
      <point x="296.0" y="870.0"/>
      <point x="78.75572687384842" y="619.9199773197395"/>
      <point x="46" y="341" type="curve" smooth="yes"/>
      <point x="16.679607900686158" y="95.31533516781852"/>
      <point x="90.0" y="-20.0"/>
      <point x="243" y="-20" type="curve" smooth="yes"/>
      <point x="368.0" y="-20.0"/>
      <point x="516.7933614917889" y="74.0143013900221"/>
      <point x="562" y="256" type="curve" smooth="yes"/>
      <point x="564" y="263"/>
      <point x="562" y="267"/>
      <point x="559" y="267" type="curve" smooth="yes"/>
      <point x="556" y="267"/>
      <point x="555" y="264"/>
      <point x="552" y="256" type="curve" smooth="yes"/>
      <point x="497" y="80"/>
      <point x="373" y="2.0"/>
      <point x="270" y="2" type="curve" smooth="yes"/>
      <point x="143.75147928994085" y="2.0"/>
      <point x="74.00478283256467" y="110.03928755320982"/>
      <point x="102" y="340" type="curve" smooth="yes"/>
      <point x="137.9972485860696" y="634.9774536914035"/>
      <point x="325.4136125654451" y="858.0"/>
    </contour>
  </outline>
</glyph>
<glyph name="h" format="2">
  <advance width="828"/>
  <unicode hex="0068"/>
  <outline>
    <contour>
      <point x="150" y="252" type="curve" smooth="yes"/>
      <point x="115" y="131"/>
      <point x="110.0" y="106.0"/>
      <point x="110" y="70" type="curve" smooth="yes"/>
      <point x="110" y="54"/>
      <point x="120" y="44"/>
      <point x="120" y="32" type="curve" smooth="yes"/>
      <point x="120" y="6"/>
      <point x="92" y="-15"/>
      <point x="62" y="-15" type="curve" smooth="yes"/>
      <point x="34" y="-15"/>
      <point x="33" y="-3"/>
      <point x="54" y="70" type="curve" smooth="yes"/>
      <point x="302" y="952" type="line" smooth="yes"/>
      <point x="398" y="1292"/>
      <point x="542" y="1438"/>
      <point x="931" y="1438" type="curve" smooth="yes"/>
      <point x="977" y="1438"/>
      <point x="995" y="1425"/>
      <point x="995" y="1406" type="curve" smooth="yes"/>
      <point x="995.0" y="1388.0"/>
      <point x="976.6666666666666" y="1378.0"/>
      <point x="945" y="1378" type="curve" smooth="yes"/>
      <point x="897.3529411764706" y="1378.0"/>
      <point x="839.1176470588235" y="1404.0"/>
      <point x="765" y="1404" type="curve" smooth="yes"/>
      <point x="620" y="1404.0"/>
      <point x="455" y="1328"/>
      <point x="389" y="1091" type="curve" smooth="yes"/>
      <point x="201" y="421" type="line"/>
      <point x="200" y="423" type="line"/>
      <point x="356" y="731.0"/>
      <point x="524" y="865"/>
      <point x="672" y="865" type="curve" smooth="yes"/>
      <point x="789" y="865"/>
      <point x="773" y="762"/>
      <point x="728" y="625" type="curve" smooth="yes"/>
      <point x="583" y="181" type="line" smooth="yes"/>
      <point x="539" y="46"/>
      <point x="561.1052631578948" y="19.0"/>
      <point x="599" y="19" type="curve" smooth="yes"/>
      <point x="629.6870229007634" y="19.0"/>
      <point x="670.4104863135578" y="38.296386890375416"/>
      <point x="733" y="113" type="curve" smooth="yes"/>
      <point x="736" y="117"/>
      <point x="739" y="119"/>
      <point x="742" y="117" type="curve" smooth="yes"/>
      <point x="744" y="115"/>
      <point x="743" y="112"/>
      <point x="740" y="108" type="curve" smooth="yes"/>
      <point x="676" y="22"/>
      <point x="620" y="-15"/>
      <point x="572" y="-15" type="curve" smooth="yes"/>
      <point x="513" y="-15"/>
      <point x="486" y="33"/>
      <point x="519" y="135" type="curve" smooth="yes"/>
      <point x="682" y="639" type="line" smooth="yes"/>
      <point x="731" y="791"/>
      <point x="704" y="835"/>
      <point x="635" y="835" type="curve" smooth="yes"/>
      <point x="502" y="835"/>
      <point x="257.0" y="623.0"/>
    </contour>
  </outline>
</glyph>
<glyph name="i" format="2">
  <advance width="412"/>
  <unicode hex="0069"/>
  <outline>
    <contour>
      <point x="130" y="19"/>
      <point x="111" y="54"/>
      <point x="155" y="181" type="curve" smooth="yes"/>
      <point x="336" y="698" type="line" smooth="yes"/>
      <point x="379" y="822"/>
      <point x="347" y="865.0"/>
      <point x="289" y="865" type="curve" smooth="yes"/>
      <point x="241" y="865"/>
      <point x="185" y="828"/>
      <point x="121" y="742" type="curve" smooth="yes"/>
      <point x="118" y="738"/>
      <point x="117" y="735"/>
      <point x="119" y="733" type="curve" smooth="yes"/>
      <point x="121" y="731"/>
      <point x="125" y="733"/>
      <point x="128" y="737" type="curve" smooth="yes"/>
      <point x="190" y="811"/>
      <point x="229" y="831"/>
      <point x="259" y="831" type="curve" smooth="yes"/>
      <point x="307.0" y="831.0"/>
      <point x="322" y="792"/>
      <point x="267" y="635" type="curve" smooth="yes"/>
      <point x="92" y="135" type="line" smooth="yes"/>
      <point x="56" y="32"/>
      <point x="89" y="-15.0"/>
      <point x="144" y="-15" type="curve" smooth="yes"/>
      <point x="192" y="-15"/>
      <point x="248" y="22"/>
      <point x="312" y="108" type="curve" smooth="yes"/>
      <point x="315" y="112"/>
      <point x="316" y="115"/>
      <point x="314" y="117" type="curve" smooth="yes"/>
      <point x="311" y="119"/>
      <point x="308" y="117"/>
      <point x="305" y="113" type="curve" smooth="yes"/>
      <point x="242" y="38"/>
      <point x="202" y="19"/>
      <point x="171" y="19" type="curve" smooth="yes"/>
    </contour>
    <contour>
      <point x="370" y="1062" type="curve" smooth="yes"/>
      <point x="400" y="1062"/>
      <point x="444" y="1156"/>
      <point x="444" y="1208" type="curve" smooth="yes"/>
      <point x="444" y="1222"/>
      <point x="440" y="1236"/>
      <point x="424" y="1236" type="curve" smooth="yes"/>
      <point x="392" y="1236"/>
      <point x="348" y="1130"/>
      <point x="348" y="1090" type="curve" smooth="yes"/>
      <point x="348" y="1074"/>
      <point x="352" y="1062"/>
    </contour>
  </outline>
</glyph>
<glyph name="k" format="2">
  <advance width="813"/>
  <unicode hex="006B"/>
  <outline>
    <contour>
      <point x="221" y="500" type="curve"/>
      <point x="196" y="455" type="line"/>
      <point x="276.89624884770745" y="704.6797803941588"/>
      <point x="542" y="889"/>
      <point x="705" y="875" type="curve" smooth="yes"/>
      <point x="807" y="867"/>
      <point x="833" y="809"/>
      <point x="824" y="737" type="curve" smooth="yes"/>
      <point x="807" y="604"/>
      <point x="623.4100279066897" y="445.93068782002"/>
      <point x="173" y="341" type="curve"/>
      <point x="171" y="352" type="line"/>
      <point x="602.2137179063255" y="451.89125116637354"/>
      <point x="755.0017915499208" y="612.0168917563958"/>
      <point x="769" y="744" type="curve" smooth="yes"/>
      <point x="777" y="814"/>
      <point x="758" y="856"/>
      <point x="692" y="863" type="curve" smooth="yes"/>
      <point x="550.9920099105456" y="877.7910479114812"/>
      <point x="267.93353574243775" y="676.7613328932991"/>
      <point x="202" y="440" type="curve" smooth="yes"/>
      <point x="125.05909215056208" y="163.21257825591817"/>
      <point x="110.0" y="112.0"/>
      <point x="110" y="72" type="curve" smooth="yes"/>
      <point x="110.0" y="53.0"/>
      <point x="120.0" y="45.0"/>
      <point x="120" y="33" type="curve" smooth="yes"/>
      <point x="120.0" y="3.0"/>
      <point x="92.359375" y="-15.0"/>
      <point x="59" y="-15" type="curve" smooth="yes"/>
      <point x="39" y="-15"/>
      <point x="34" y="-1"/>
      <point x="43" y="30" type="curve" smooth="yes"/>
      <point x="311" y="983" type="line" smooth="yes"/>
      <point x="403.56255663306484" y="1312.1496883257864"/>
      <point x="573" y="1438"/>
      <point x="931" y="1438" type="curve" smooth="yes"/>
      <point x="977" y="1438.0"/>
      <point x="995.0" y="1425"/>
      <point x="995" y="1406" type="curve" smooth="yes"/>
      <point x="995" y="1388"/>
      <point x="977" y="1378.0"/>
      <point x="945" y="1378" type="curve" smooth="yes"/>
      <point x="897" y="1378"/>
      <point x="839" y="1404"/>
      <point x="765" y="1404" type="curve" smooth="yes"/>
      <point x="619" y="1404"/>
      <point x="455" y="1327"/>
      <point x="389" y="1091" type="curve" smooth="yes"/>
      <point x="323" y="855"/>
      <point x="262.9234619561661" y="635.2031648086356"/>
    </contour>
    <contour>
      <point x="386" y="411" type="line"/>
      <point x="434" y="428" type="line"/>
      <point x="527" y="128" type="line" smooth="yes"/>
      <point x="552.7965810124525" y="44.78522254047557"/>
      <point x="571" y="19"/>
      <point x="606" y="19" type="curve" smooth="yes"/>
      <point x="630" y="19.0"/>
      <point x="670.5100209460892" y="43.92731081107125"/>
      <point x="703" y="103" type="curve" smooth="yes"/>
      <point x="705" y="107"/>
      <point x="708" y="109"/>
      <point x="711" y="107" type="curve" smooth="yes"/>
      <point x="713" y="105"/>
      <point x="713" y="103"/>
      <point x="710" y="98" type="curve" smooth="yes"/>
      <point x="667.199884378635" y="16.381174861583048"/>
      <point x="625" y="-15.0"/>
      <point x="575" y="-15" type="curve" smooth="yes"/>
      <point x="531" y="-15"/>
      <point x="504.9470411120578" y="9.717125039541344"/>
      <point x="477" y="104" type="curve" smooth="yes"/>
    </contour>
  </outline>
</glyph>
<glyph name="braceleft" format="2">
  <advance width="628"/>
  <unicode hex="007B"/>
  <outline>
    <contour>
      <point x="321" y="612" type="curve" smooth="yes"/>
      <point x="325" y="627"/>
      <point x="335" y="632"/>
      <point x="349" y="632" type="curve" smooth="yes"/>
      <point x="437" y="632"/>
      <point x="507" y="683"/>
      <point x="527" y="756" type="curve" smooth="yes"/>
      <point x="563" y="892"/>
      <point x="411" y="995"/>
      <point x="463" y="1190" type="curve" smooth="yes"/>
      <point x="500" y="1327"/>
      <point x="608" y="1438"/>
      <point x="765" y="1438" type="curve" smooth="yes"/>
      <point x="795" y="1438" type="line" smooth="yes"/>
      <point x="798" y="1438"/>
      <point x="802" y="1439"/>
      <point x="803" y="1443" type="curve" smooth="yes"/>
      <point x="804" y="1447"/>
      <point x="801" y="1448"/>
      <point x="798" y="1448" type="curve" smooth="yes"/>
      <point x="768" y="1448" type="line" smooth="yes"/>
      <point x="576" y="1448"/>
      <point x="445" y="1340"/>
      <point x="403" y="1184" type="curve" smooth="yes"/>
      <point x="346" y="971"/>
      <point x="526" y="867"/>
      <point x="494" y="745" type="curve" smooth="yes"/>
      <point x="479" y="689"/>
      <point x="422" y="643"/>
      <point x="351" y="643" type="curve" smooth="yes"/>
      <point x="320" y="643"/>
      <point x="305" y="660"/>
      <point x="282" y="660" type="curve" smooth="yes"/>
      <point x="247" y="660"/>
      <point x="221" y="638"/>
      <point x="214" y="612" type="curve" smooth="yes"/>
      <point x="207" y="586"/>
      <point x="221" y="564"/>
      <point x="256" y="564" type="curve" smooth="yes"/>
      <point x="279" y="564"/>
      <point x="304" y="581"/>
      <point x="335" y="581" type="curve" smooth="yes"/>
      <point x="406" y="581"/>
      <point x="437" y="535"/>
      <point x="422" y="479" type="curve" smooth="yes"/>
      <point x="390" y="357"/>
      <point x="154" y="253"/>
      <point x="97" y="40" type="curve" smooth="yes"/>
      <point x="55" y="-116"/>
      <point x="128" y="-224"/>
      <point x="320" y="-224" type="curve" smooth="yes"/>
      <point x="350" y="-224" type="line" smooth="yes"/>
      <point x="353" y="-224"/>
      <point x="356" y="-223"/>
      <point x="357" y="-219" type="curve" smooth="yes"/>
      <point x="358" y="-215"/>
      <point x="356" y="-214"/>
      <point x="353" y="-214" type="curve" smooth="yes"/>
      <point x="323" y="-214" type="line" smooth="yes"/>
      <point x="166" y="-214"/>
      <point x="116" y="-103"/>
      <point x="153" y="34" type="curve" smooth="yes"/>
      <point x="205" y="229"/>
      <point x="413" y="332"/>
      <point x="449" y="468" type="curve" smooth="yes"/>
      <point x="469" y="541"/>
      <point x="427" y="592"/>
      <point x="339" y="592" type="curve" smooth="yes"/>
      <point x="325" y="592"/>
      <point x="317" y="597"/>
    </contour>
  </outline>
</glyph>
<glyph name="bar" format="2">
  <advance width="444"/>
  <unicode hex="007C"/>
  <outline>
    <contour>
      <point x="256" y="612" type="curve" smooth="yes"/>
      <point x="209" y="435"/>
      <point x="86" y="21"/>
      <point x="27" y="-196" type="curve" smooth="yes"/>
      <point x="23" y="-213"/>
      <point x="28" y="-224"/>
      <point x="42" y="-224" type="curve" smooth="yes"/>
      <point x="56" y="-224"/>
      <point x="67" y="-213"/>
      <point x="71" y="-196" type="curve" smooth="yes"/>
      <point x="121" y="-12"/>
      <point x="227" y="422"/>
      <point x="278" y="612" type="curve" smooth="yes"/>
      <point x="329" y="802"/>
      <point x="455" y="1236"/>
      <point x="504" y="1420" type="curve" smooth="yes"/>
      <point x="509" y="1437"/>
      <point x="504" y="1448"/>
      <point x="490" y="1448" type="curve" smooth="yes"/>
      <point x="476" y="1448"/>
      <point x="465" y="1437"/>
      <point x="460" y="1420" type="curve" smooth="yes"/>
      <point x="402" y="1203"/>
      <point x="303" y="788"/>
    </contour>
  </outline>
</glyph>
<glyph name="yen" format="2">
  <advance width="979"/>
  <unicode hex="00A5"/>
  <outline>
    <contour>
      <point x="533" y="446" type="line"/>
      <point x="537" y="444" type="line"/>
      <point x="526" y="531"/>
      <point x="415" y="1274"/>
      <point x="403" y="1341" type="curve" smooth="yes"/>
      <point x="396" y="1378"/>
      <point x="378" y="1400"/>
      <point x="341" y="1400" type="curve" smooth="yes"/>
      <point x="233" y="1400" type="line" smooth="yes"/>
      <point x="228" y="1400"/>
      <point x="225" y="1399"/>
      <point x="225" y="1394" type="curve" smooth="yes"/>
      <point x="225" y="1389"/>
      <point x="229" y="1387"/>
      <point x="234" y="1387" type="curve" smooth="yes"/>
      <point x="309" y="1383"/>
      <point x="340" y="1361"/>
      <point x="348" y="1317" type="curve" smooth="yes"/>
      <point x="358" y="1260"/>
      <point x="469" y="522"/>
      <point x="476" y="466" type="curve" smooth="yes"/>
      <point x="479" y="443"/>
      <point x="484" y="429"/>
      <point x="479" y="407" type="curve" smooth="yes"/>
      <point x="403" y="80" type="line" smooth="yes"/>
      <point x="396" y="49"/>
      <point x="370" y="27"/>
      <point x="319" y="23" type="curve" smooth="yes"/>
      <point x="226" y="16" type="line" smooth="yes"/>
      <point x="218" y="15"/>
      <point x="212" y="13"/>
      <point x="212" y="8" type="curve" smooth="yes"/>
      <point x="212" y="4"/>
      <point x="215" y="0"/>
      <point x="222" y="0" type="curve" smooth="yes"/>
      <point x="585" y="0" type="line" smooth="yes"/>
      <point x="595" y="0"/>
      <point x="605" y="2"/>
      <point x="605" y="9" type="curve" smooth="yes"/>
      <point x="605" y="12"/>
      <point x="600" y="14"/>
      <point x="588" y="15" type="curve" smooth="yes"/>
      <point x="501" y="22" type="line" smooth="yes"/>
      <point x="456" y="26"/>
      <point x="448" y="43"/>
      <point x="455" y="75" type="curve" smooth="yes"/>
      <point x="529" y="404" type="line" smooth="yes"/>
      <point x="533" y="422"/>
      <point x="535" y="433"/>
      <point x="542" y="446" type="curve" smooth="yes"/>
      <point x="988" y="1214" type="line" smooth="yes"/>
      <point x="1036" y="1296"/>
      <point x="1077" y="1328"/>
      <point x="1135" y="1335" type="curve" smooth="yes"/>
      <point x="1176" y="1340"/>
      <point x="1203" y="1356"/>
      <point x="1203" y="1387" type="curve" smooth="yes"/>
      <point x="1203" y="1404"/>
      <point x="1191" y="1420"/>
      <point x="1165" y="1420" type="curve" smooth="yes"/>
      <point x="1117" y="1420"/>
      <point x="1065" y="1371"/>
      <point x="982" y="1226" type="curve" smooth="yes"/>
    </contour>
    <contour>
      <point x="65" y="447" type="curve" smooth="yes"/>
      <point x="64" y="444"/>
      <point x="66" y="442"/>
      <point x="69" y="442" type="curve" smooth="yes"/>
      <point x="957" y="442" type="line" smooth="yes"/>
      <point x="960" y="442"/>
      <point x="962" y="444"/>
      <point x="963" y="447" type="curve" smooth="yes"/>
      <point x="964" y="450"/>
      <point x="962" y="452"/>
      <point x="959" y="452" type="curve" smooth="yes"/>
      <point x="71" y="452" type="line" smooth="yes"/>
      <point x="68" y="452"/>
      <point x="66" y="450"/>
    </contour>
    <contour>
      <point x="148" y="782" type="curve" smooth="yes"/>
      <point x="147" y="779"/>
      <point x="148" y="777"/>
      <point x="151" y="777" type="curve" smooth="yes"/>
      <point x="476" y="777" type="line"/>
      <point x="471" y="787" type="line"/>
      <point x="154" y="787" type="line" smooth="yes"/>
      <point x="151" y="787"/>
      <point x="149" y="785"/>
    </contour>
    <contour>
      <point x="726" y="777" type="line"/>
      <point x="1039" y="777" type="line" smooth="yes"/>
      <point x="1042" y="777"/>
      <point x="1045" y="779"/>
      <point x="1046" y="782" type="curve" smooth="yes"/>
      <point x="1047" y="785"/>
      <point x="1045" y="787"/>
      <point x="1042" y="787" type="curve" smooth="yes"/>
      <point x="736" y="787" type="line"/>
    </contour>
  </outline>
</glyph>
<glyph name="brokenbar" format="2">
  <advance width="444"/>
  <unicode hex="00A6"/>
  <outline>
    <contour>
      <point x="310" y="668" type="curve" smooth="yes"/>
      <point x="384" y="943"/>
      <point x="472" y="1223"/>
      <point x="524" y="1417" type="curve" smooth="yes"/>
      <point x="529" y="1436"/>
      <point x="524" y="1446"/>
      <point x="510" y="1446" type="curve" smooth="yes"/>
      <point x="495" y="1446"/>
      <point x="485" y="1436"/>
      <point x="480" y="1417" type="curve" smooth="yes"/>
      <point x="428" y="1223"/>
      <point x="366" y="944"/>
      <point x="292" y="668" type="curve" smooth="yes"/>
      <point x="290" y="659"/>
      <point x="291" y="654"/>
      <point x="297" y="654" type="curve" smooth="yes"/>
      <point x="302" y="654"/>
      <point x="307" y="658"/>
    </contour>
    <contour>
      <point x="262" y="556" type="curve" smooth="yes"/>
      <point x="188" y="281"/>
      <point x="100" y="1"/>
      <point x="48" y="-193" type="curve" smooth="yes"/>
      <point x="43" y="-212"/>
      <point x="48" y="-222"/>
      <point x="62" y="-222" type="curve" smooth="yes"/>
      <point x="77" y="-222"/>
      <point x="87" y="-212"/>
      <point x="92" y="-193" type="curve" smooth="yes"/>
      <point x="144" y="1"/>
      <point x="206" y="280"/>
      <point x="280" y="556" type="curve" smooth="yes"/>
      <point x="282" y="565"/>
      <point x="281" y="570"/>
      <point x="275" y="570" type="curve" smooth="yes"/>
      <point x="269" y="570"/>
      <point x="265" y="566"/>
    </contour>
  </outline>
</glyph>
<glyph name="section" format="2">
  <advance width="898"/>
  <unicode hex="00A7"/>
  <outline>
    <contour>
      <point x="333" y="-346" type="curve" smooth="yes"/>
      <point x="508" y="-346"/>
      <point x="641" y="-225"/>
      <point x="682" y="-72" type="curve" smooth="yes"/>
      <point x="717" y="60"/>
      <point x="672" y="172"/>
      <point x="446" y="271" type="curve" smooth="yes"/>
      <point x="226" y="367"/>
      <point x="183" y="476"/>
      <point x="217" y="603" type="curve" smooth="yes"/>
      <point x="251" y="733"/>
      <point x="342" y="819"/>
      <point x="453" y="852" type="curve"/>
      <point x="445" y="860" type="line"/>
      <point x="321" y="819"/>
      <point x="212" y="716"/>
      <point x="175" y="577" type="curve" smooth="yes"/>
      <point x="135" y="428"/>
      <point x="190" y="323"/>
      <point x="407" y="227" type="curve" smooth="yes"/>
      <point x="627" y="131"/>
      <point x="672" y="23"/>
      <point x="640" y="-97" type="curve" smooth="yes"/>
      <point x="601" y="-243"/>
      <point x="481" y="-333"/>
      <point x="337" y="-333" type="curve" smooth="yes"/>
      <point x="173" y="-333"/>
      <point x="51" y="-251"/>
      <point x="31" y="-52" type="curve" smooth="yes"/>
      <point x="31" y="-48"/>
      <point x="29" y="-47"/>
      <point x="24" y="-48" type="curve" smooth="yes"/>
      <point x="21" y="-49"/>
      <point x="19" y="-52"/>
      <point x="19" y="-55" type="curve" smooth="yes"/>
      <point x="22" y="-339" type="line" smooth="yes"/>
      <point x="22" y="-342"/>
      <point x="24" y="-344"/>
      <point x="28" y="-344" type="curve" smooth="yes"/>
      <point x="34" y="-344"/>
      <point x="75" y="-249"/>
      <point x="82" y="-249" type="curve" smooth="yes"/>
      <point x="104" y="-249"/>
      <point x="151" y="-346"/>
    </contour>
    <contour>
      <point x="709" y="1412" type="curve" smooth="yes"/>
      <point x="843" y="1412"/>
      <point x="935" y="1342"/>
      <point x="971" y="1190" type="curve" smooth="yes"/>
      <point x="987" y="1120" type="line" smooth="yes"/>
      <point x="993" y="1096"/>
      <point x="1005" y="1086"/>
      <point x="1017" y="1086" type="curve" smooth="yes"/>
      <point x="1037" y="1086"/>
      <point x="1049" y="1106"/>
      <point x="1049" y="1148" type="curve" smooth="yes"/>
      <point x="1049" y="1292"/>
      <point x="923" y="1420"/>
      <point x="709" y="1420" type="curve" smooth="yes"/>
      <point x="528.0" y="1420.0"/>
      <point x="367" y="1317"/>
      <point x="323" y="1160" type="curve" smooth="yes"/>
      <point x="280" y="1007"/>
      <point x="341" y="861"/>
      <point x="552" y="767" type="curve" smooth="yes"/>
      <point x="772" y="669"/>
      <point x="817" y="563"/>
      <point x="785" y="443" type="curve" smooth="yes"/>
      <point x="751" y="318"/>
      <point x="659" y="235"/>
      <point x="542" y="213" type="curve"/>
      <point x="544" y="200" type="line"/>
      <point x="686" y="226"/>
      <point x="791" y="335"/>
      <point x="826" y="468" type="curve" smooth="yes"/>
      <point x="862" y="600"/>
      <point x="817" y="713"/>
      <point x="590" y="811" type="curve" smooth="yes"/>
      <point x="389" y="898"/>
      <point x="323" y="1019"/>
      <point x="361" y="1153" type="curve" smooth="yes"/>
      <point x="407" y="1316"/>
      <point x="539" y="1412.0"/>
    </contour>
  </outline>
</glyph>
<glyph name="ordfeminine" format="2">
  <advance width="746"/>
  <unicode hex="00AA"/>
  <outline>
    <contour>
      <point x="674" y="856" type="curve" smooth="yes"/>
      <point x="807" y="1363" type="line" smooth="yes"/>
      <point x="809" y="1372"/>
      <point x="823" y="1379"/>
      <point x="823" y="1390" type="curve" smooth="yes"/>
      <point x="823.0" y="1402.0"/>
      <point x="805.0795454545455" y="1418.0"/>
      <point x="740" y="1418" type="curve" smooth="yes"/>
      <point x="515" y="1418"/>
      <point x="267" y="1201"/>
      <point x="215" y="947" type="curve" smooth="yes"/>
      <point x="172" y="740"/>
      <point x="224" y="660"/>
      <point x="314" y="660" type="curve" smooth="yes"/>
      <point x="462" y="660"/>
      <point x="602" y="863"/>
      <point x="706" y="1139" type="curve"/>
      <point x="701" y="1143" type="line"/>
      <point x="623" y="879"/>
      <point x="597" y="770"/>
      <point x="597" y="721" type="curve" smooth="yes"/>
      <point x="597" y="678"/>
      <point x="621" y="660"/>
      <point x="651" y="660" type="curve" smooth="yes"/>
      <point x="693.5714285714286" y="660.0"/>
      <point x="744.6329822493674" y="690.8590473384272"/>
      <point x="800" y="766" type="curve" smooth="yes"/>
      <point x="803" y="770"/>
      <point x="804" y="772"/>
      <point x="802" y="774" type="curve" smooth="yes"/>
      <point x="799" y="776"/>
      <point x="797" y="774"/>
      <point x="794" y="770" type="curve" smooth="yes"/>
      <point x="740" y="706"/>
      <point x="707" y="690"/>
      <point x="681" y="690" type="curve" smooth="yes"/>
      <point x="641" y="690"/>
      <point x="638" y="718"/>
    </contour>
    <contour>
      <point x="260" y="927" type="curve" smooth="yes"/>
      <point x="321.0296290960339" y="1206.1355166851388"/>
      <point x="512.6483050847457" y="1405.0"/>
      <point x="737" y="1405" type="curve" smooth="yes"/>
      <point x="769" y="1405"/>
      <point x="775" y="1392"/>
      <point x="767" y="1363" type="curve" smooth="yes"/>
      <point x="628" y="883"/>
      <point x="461" y="681"/>
      <point x="339" y="681" type="curve" smooth="yes"/>
      <point x="273.8783783783784" y="681.0"/>
      <point x="222.8806330227511" y="758.4580094005997"/>
    </contour>
  </outline>
</glyph>
<glyph name="degree" format="2">
  <advance width="613"/>
  <unicode hex="00B0"/>
  <outline>
    <contour>
      <point x="566" y="1420" type="curve" smooth="yes"/>
      <point x="436" y="1420"/>
      <point x="318" y="1321"/>
      <point x="284" y="1192" type="curve" smooth="yes"/>
      <point x="243" y="1040"/>
      <point x="313" y="928"/>
      <point x="435" y="928" type="curve" smooth="yes"/>
      <point x="560" y="928"/>
      <point x="681" y="1017"/>
      <point x="717" y="1150" type="curve" smooth="yes"/>
      <point x="759" y="1307"/>
      <point x="690" y="1420"/>
    </contour>
    <contour>
      <point x="563" y="1407" type="curve" smooth="yes"/>
      <point x="680" y="1407"/>
      <point x="743" y="1297"/>
      <point x="703" y="1149" type="curve" smooth="yes"/>
      <point x="670" y="1025"/>
      <point x="554" y="941"/>
      <point x="438" y="941" type="curve" smooth="yes"/>
      <point x="324" y="941"/>
      <point x="257" y="1045"/>
      <point x="297" y="1192" type="curve" smooth="yes"/>
      <point x="329" y="1314"/>
      <point x="440" y="1407"/>
    </contour>
  </outline>
</glyph>
<glyph name="threesuperior" format="2">
  <advance width="509"/>
  <unicode hex="00B3"/>
  <outline>
    <contour>
      <point x="383" y="1093" type="line"/>
      <point x="725" y="1384" type="line" smooth="yes"/>
      <point x="731" y="1389"/>
      <point x="732" y="1392"/>
      <point x="733" y="1394" type="curve" smooth="yes"/>
      <point x="734" y="1398"/>
      <point x="731" y="1400"/>
      <point x="728" y="1400" type="curve" smooth="yes"/>
      <point x="374" y="1400" type="line" smooth="yes"/>
      <point x="368" y="1400"/>
      <point x="364" y="1394"/>
      <point x="361" y="1387" type="curve" smooth="yes"/>
      <point x="311" y="1266" type="line" smooth="yes"/>
      <point x="310" y="1263"/>
      <point x="310" y="1260"/>
      <point x="312" y="1260" type="curve" smooth="yes"/>
      <point x="314" y="1260"/>
      <point x="316" y="1262"/>
      <point x="318" y="1264" type="curve" smooth="yes"/>
      <point x="356" y="1336" type="line" smooth="yes"/>
      <point x="362" y="1347"/>
      <point x="369" y="1352"/>
      <point x="376" y="1352" type="curve" smooth="yes"/>
      <point x="674" y="1352" type="line"/>
      <point x="674" y="1355" type="line"/>
      <point x="378" y="1101" type="line" smooth="yes"/>
      <point x="373" y="1097"/>
      <point x="371" y="1095"/>
      <point x="371" y="1093" type="curve" smooth="yes"/>
      <point x="370" y="1090"/>
      <point x="372" y="1088"/>
      <point x="376" y="1088" type="curve" smooth="yes"/>
      <point x="407" y="1088" type="line" smooth="yes"/>
      <point x="510" y="1088.0"/>
      <point x="563" y="1019"/>
      <point x="535" y="916" type="curve" smooth="yes"/>
      <point x="503.0" y="800"/>
      <point x="431.0" y="744.0"/>
      <point x="347" y="744" type="curve" smooth="yes"/>
      <point x="246" y="744"/>
      <point x="216.71067364534423" y="781.5316630094961"/>
      <point x="237" y="859" type="curve" smooth="yes"/>
      <point x="248" y="901" type="line" smooth="yes"/>
      <point x="255" y="927"/>
      <point x="252" y="943"/>
      <point x="235" y="943" type="curve" smooth="yes"/>
      <point x="217" y="943"/>
      <point x="197" y="922"/>
      <point x="185" y="878" type="curve" smooth="yes"/>
      <point x="164.91128406066298" y="800.6584436335525"/>
      <point x="217" y="733"/>
      <point x="342" y="733" type="curve" smooth="yes"/>
      <point x="460.0" y="733.0"/>
      <point x="560" y="800"/>
      <point x="586" y="906" type="curve" smooth="yes"/>
      <point x="615" y="1024"/>
      <point x="550" y="1099.0"/>
      <point x="410" y="1099" type="curve" smooth="yes"/>
      <point x="405" y="1099"/>
      <point x="389" y="1099"/>
      <point x="381" y="1099" type="curve"/>
    </contour>
  </outline>
</glyph>
<glyph name="mu.math" format="2">
  <advance width="833"/>
  <unicode hex="00B5"/>
  <outline>
    <contour>
      <point x="118" y="225" type="line"/>
      <point x="11" y="-131"/>
      <point x="-66" y="-308"/>
      <point x="-87" y="-376" type="curve" smooth="yes"/>
      <point x="-95" y="-402"/>
      <point x="-90" y="-416"/>
      <point x="-73" y="-416" type="curve" smooth="yes"/>
      <point x="-60" y="-416"/>
      <point x="-47" y="-404"/>
      <point x="-41" y="-386" type="curve" smooth="yes"/>
      <point x="-20" y="-318"/>
      <point x="14" y="-136"/>
      <point x="123" y="224" type="curve"/>
    </contour>
    <contour>
      <point x="263" y="669" type="curve" smooth="yes"/>
      <point x="118" y="225" type="line" smooth="yes"/>
      <point x="73" y="88"/>
      <point x="57" y="-15"/>
      <point x="174" y="-15" type="curve" smooth="yes"/>
      <point x="298" y="-15"/>
      <point x="476" y="100"/>
      <point x="620" y="408" type="curve"/>
      <point x="616" y="410" type="line"/>
      <point x="610" y="371"/>
      <point x="504" y="140"/>
      <point x="504" y="55" type="curve" smooth="yes"/>
      <point x="504" y="5"/>
      <point x="529" y="-15"/>
      <point x="569" y="-15" type="curve" smooth="yes"/>
      <point x="617" y="-15"/>
      <point x="673" y="22"/>
      <point x="737" y="108" type="curve" smooth="yes"/>
      <point x="740" y="112"/>
      <point x="741" y="115"/>
      <point x="739" y="117" type="curve" smooth="yes"/>
      <point x="737" y="119"/>
      <point x="733" y="117"/>
      <point x="730" y="113" type="curve" smooth="yes"/>
      <point x="668" y="39"/>
      <point x="629" y="19"/>
      <point x="599" y="19" type="curve" smooth="yes"/>
      <point x="553" y="19"/>
      <point x="534" y="54"/>
      <point x="590" y="213" type="curve" smooth="yes"/>
      <point x="800" y="809" type="line" smooth="yes"/>
      <point x="813" y="844"/>
      <point x="813" y="865"/>
      <point x="782" y="865" type="curve" smooth="yes"/>
      <point x="754" y="865"/>
      <point x="726" y="841"/>
      <point x="726" y="821" type="curve" smooth="yes"/>
      <point x="726" y="805"/>
      <point x="736" y="799"/>
      <point x="736" y="783" type="curve" smooth="yes"/>
      <point x="736" y="761"/>
      <point x="732" y="735"/>
      <point x="684" y="587" type="curve" smooth="yes"/>
      <point x="547" y="164"/>
      <point x="313" y="15"/>
      <point x="211" y="15" type="curve" smooth="yes"/>
      <point x="142" y="15"/>
      <point x="115" y="59"/>
      <point x="164" y="211" type="curve" smooth="yes"/>
      <point x="358" y="808" type="line" smooth="yes"/>
      <point x="368" y="840"/>
      <point x="364" y="865"/>
      <point x="334" y="865" type="curve" smooth="yes"/>
      <point x="306" y="865"/>
      <point x="278" y="841"/>
      <point x="278" y="821" type="curve" smooth="yes"/>
      <point x="278" y="805"/>
      <point x="288" y="799"/>
      <point x="288" y="783" type="curve" smooth="yes"/>
      <point x="288" y="771"/>
      <point x="289" y="750"/>
    </contour>
  </outline>
</glyph>
<glyph name="paragraph" format="2">
  <advance width="932"/>
  <unicode hex="00B6"/>
  <outline>
    <contour>
      <point x="234" y="1047" type="curve" smooth="yes"/>
      <point x="182" y="853"/>
      <point x="262" y="740"/>
      <point x="432" y="740" type="curve" smooth="yes"/>
      <point x="484" y="740"/>
      <point x="510" y="750"/>
      <point x="527" y="754" type="curve"/>
      <point x="338" y="48" type="line" smooth="yes"/>
      <point x="334" y="32"/>
      <point x="324" y="27"/>
      <point x="303" y="24" type="curve" smooth="yes"/>
      <point x="181" y="8" type="line" smooth="yes"/>
      <point x="177" y="7"/>
      <point x="175" y="6"/>
      <point x="174" y="4" type="curve" smooth="yes"/>
      <point x="174" y="2"/>
      <point x="175" y="0"/>
      <point x="179" y="0" type="curve" smooth="yes"/>
      <point x="748" y="0" type="line" smooth="yes"/>
      <point x="752" y="0"/>
      <point x="755" y="2"/>
      <point x="755" y="4" type="curve" smooth="yes"/>
      <point x="756" y="6"/>
      <point x="754" y="7"/>
      <point x="750" y="8" type="curve" smooth="yes"/>
      <point x="636" y="24" type="line" smooth="yes"/>
      <point x="617" y="27"/>
      <point x="611" y="32"/>
      <point x="615" y="48" type="curve" smooth="yes"/>
      <point x="964" y="1352" type="line" smooth="yes"/>
      <point x="969" y="1368"/>
      <point x="978" y="1373"/>
      <point x="999" y="1376" type="curve" smooth="yes"/>
      <point x="1121" y="1392" type="line" smooth="yes"/>
      <point x="1125" y="1393"/>
      <point x="1128" y="1394"/>
      <point x="1128" y="1396" type="curve" smooth="yes"/>
      <point x="1129" y="1398"/>
      <point x="1127" y="1400"/>
      <point x="1123" y="1400" type="curve" smooth="yes"/>
      <point x="729" y="1400" type="line" smooth="yes"/>
      <point x="472" y="1400"/>
      <point x="291" y="1262"/>
    </contour>
    <contour>
      <point x="565" y="48" type="line" smooth="yes"/>
      <point x="561" y="32"/>
      <point x="537" y="22"/>
      <point x="475" y="22" type="curve" smooth="yes"/>
      <point x="407" y="22"/>
      <point x="383" y="31"/>
      <point x="388" y="48" type="curve" smooth="yes"/>
      <point x="736" y="1349" type="line" smooth="yes"/>
      <point x="741" y="1367"/>
      <point x="770" y="1379"/>
      <point x="836" y="1379" type="curve" smooth="yes"/>
      <point x="900" y="1379"/>
      <point x="918" y="1366"/>
      <point x="913" y="1349" type="curve" smooth="yes"/>
    </contour>
  </outline>
</glyph>
<glyph name="ordmasculine" format="2">
  <advance width="764"/>
  <unicode hex="00BA"/>
  <outline>
    <contour>
      <point x="618" y="1414" type="curve" smooth="yes"/>
      <point x="452" y="1428"/>
      <point x="253" y="1264"/>
      <point x="210" y="1013" type="curve" smooth="yes"/>
      <point x="170" y="772"/>
      <point x="283" y="661"/>
      <point x="425" y="661" type="curve" smooth="yes"/>
      <point x="592" y="661"/>
      <point x="770" y="830"/>
      <point x="807" y="1046" type="curve" smooth="yes"/>
      <point x="845" y="1272"/>
      <point x="770" y="1403"/>
    </contour>
    <contour>
      <point x="426" y="668" type="curve" smooth="yes"/>
      <point x="304" y="668.0"/>
      <point x="217.03688120690958" y="752.2137433582261"/>
      <point x="261" y="1007" type="curve" smooth="yes"/>
      <point x="301.9840056893029" y="1246.9063747666512"/>
      <point x="470.04801241382904" y="1419.821314353156"/>
      <point x="617" y="1407" type="curve" smooth="yes"/>
      <point x="732.768918137713" y="1398.3173311396715"/>
      <point x="795.9541342819125" y="1293.741872005182"/>
      <point x="753" y="1052" type="curve" smooth="yes"/>
      <point x="717.0152237606213" y="841.0892281525305"/>
      <point x="568" y="668.0"/>
    </contour>
  </outline>
</glyph>
<glyph name="AE" format="2">
  <advance width="1673"/>
  <unicode hex="00C6"/>
  <outline>
    <contour>
      <point x="1149" y="1400" type="line"/>
      <point x="1046" y="1400" type="line" smooth="yes"/>
      <point x="1042" y="1400"/>
      <point x="1039" y="1398"/>
      <point x="1039" y="1396" type="curve" smooth="yes"/>
      <point x="1038" y="1394"/>
      <point x="1040" y="1392"/>
      <point x="1046" y="1392" type="curve" smooth="yes"/>
      <point x="1090" y="1392"/>
      <point x="1103" y="1384"/>
      <point x="1086" y="1364" type="curve" smooth="yes"/>
      <point x="37" y="106" type="line" smooth="yes"/>
      <point x="-11" y="48"/>
      <point x="-39" y="31"/>
      <point x="-73" y="20" type="curve" smooth="yes"/>
      <point x="-109" y="8" type="line" smooth="yes"/>
      <point x="-111" y="7"/>
      <point x="-114" y="6"/>
      <point x="-114" y="4" type="curve" smooth="yes"/>
      <point x="-115" y="2"/>
      <point x="-113" y="0"/>
      <point x="-111" y="0" type="curve" smooth="yes"/>
      <point x="111" y="0" type="line" smooth="yes"/>
      <point x="113" y="0"/>
      <point x="115" y="2"/>
      <point x="116" y="4" type="curve" smooth="yes"/>
      <point x="116" y="6"/>
      <point x="115" y="7"/>
      <point x="111" y="8" type="curve" smooth="yes"/>
      <point x="68" y="19" type="line" smooth="yes"/>
      <point x="28" y="29"/>
      <point x="3" y="48"/>
      <point x="51" y="106" type="curve" smooth="yes"/>
      <point x="1119" y="1388" type="line"/>
      <point x="1146" y="1388" type="line"/>
    </contour>
    <contour>
      <point x="419" y="564" type="line"/>
      <point x="411" y="552" type="line"/>
      <point x="937" y="552" type="line"/>
      <point x="940" y="564" type="line"/>
    </contour>
    <contour>
      <point x="984" y="700" type="line"/>
      <point x="984" y="692" type="line"/>
      <point x="1348" y="692" type="line" smooth="yes"/>
      <point x="1430" y="692"/>
      <point x="1474" y="660"/>
      <point x="1510" y="554" type="curve" smooth="yes"/>
      <point x="1512" y="550"/>
      <point x="1514" y="548"/>
      <point x="1518" y="550" type="curve" smooth="yes"/>
      <point x="1522" y="552"/>
      <point x="1520" y="554"/>
      <point x="1518" y="566" type="curve" smooth="yes"/>
      <point x="1468" y="854" type="line" smooth="yes"/>
      <point x="1466" y="866"/>
      <point x="1462" y="868"/>
      <point x="1458" y="868" type="curve" smooth="yes"/>
      <point x="1454" y="868"/>
      <point x="1452" y="864"/>
      <point x="1452" y="860" type="curve" smooth="yes"/>
      <point x="1456" y="734"/>
      <point x="1410" y="700"/>
      <point x="1348" y="700" type="curve" smooth="yes"/>
    </contour>
    <contour>
      <point x="1318" y="0" type="line" smooth="yes"/>
      <point x="1334" y="0"/>
      <point x="1338" y="-20"/>
      <point x="1352" y="-20" type="curve" smooth="yes"/>
      <point x="1438" y="-20"/>
      <point x="1570" y="156"/>
      <point x="1570" y="298" type="curve" smooth="yes"/>
      <point x="1570" y="304"/>
      <point x="1570" y="308"/>
      <point x="1566" y="308" type="curve" smooth="yes"/>
      <point x="1564" y="308"/>
      <point x="1562" y="306"/>
      <point x="1560" y="300" type="curve" smooth="yes"/>
      <point x="1478" y="102"/>
      <point x="1372" y="8"/>
      <point x="1236" y="8" type="curve" smooth="yes"/>
      <point x="1040" y="8" type="line" smooth="yes"/>
      <point x="874" y="8"/>
      <point x="852" y="30"/>
      <point x="862" y="78" type="curve" smooth="yes"/>
      <point x="938" y="420"/>
      <point x="1066" y="942"/>
      <point x="1182" y="1392" type="curve"/>
      <point x="1564" y="1392" type="line" smooth="yes"/>
      <point x="1654" y="1392"/>
      <point x="1699" y="1354"/>
      <point x="1754" y="1150" type="curve" smooth="yes"/>
      <point x="1757" y="1142"/>
      <point x="1760" y="1140"/>
      <point x="1764" y="1140" type="curve" smooth="yes"/>
      <point x="1768" y="1140"/>
      <point x="1768" y="1145"/>
      <point x="1766" y="1156" type="curve" smooth="yes"/>
      <point x="1726" y="1412" type="line" smooth="yes"/>
      <point x="1724" y="1426"/>
      <point x="1718" y="1430"/>
      <point x="1710" y="1430" type="curve" smooth="yes"/>
      <point x="1689" y="1430"/>
      <point x="1659" y="1400"/>
      <point x="1594" y="1400" type="curve"/>
      <point x="1124" y="1400" type="line"/>
      <point x="1040" y="1019"/>
      <point x="902" y="451"/>
      <point x="802" y="72" type="curve" smooth="yes"/>
      <point x="794" y="42"/>
      <point x="782" y="28"/>
      <point x="756" y="26" type="curve" smooth="yes"/>
      <point x="642" y="14" type="line" smooth="yes"/>
      <point x="634" y="14"/>
      <point x="630" y="10"/>
      <point x="630" y="6" type="curve" smooth="yes"/>
      <point x="630" y="2"/>
      <point x="634" y="0"/>
      <point x="640" y="0" type="curve" smooth="yes"/>
    </contour>
  </outline>
</glyph>
<glyph name="Eth" format="2">
  <advance width="1245"/>
  <unicode hex="00D0"/>
  <outline>
    <contour>
      <point x="80" y="700.0" type="curve" smooth="yes"/>
      <point x="79" y="697.0"/>
      <point x="80" y="695.0"/>
      <point x="83" y="695.0" type="curve" smooth="yes"/>
      <point x="738" y="695.0" type="line" smooth="yes"/>
      <point x="741" y="695.0"/>
      <point x="744" y="697.0"/>
      <point x="745" y="700.0" type="curve" smooth="yes"/>
      <point x="745" y="703.0"/>
      <point x="744.0" y="705.0"/>
      <point x="741.0" y="705.0" type="curve" smooth="yes"/>
      <point x="86.0" y="705.0" type="line" smooth="yes"/>
      <point x="83.0" y="705.0"/>
      <point x="80" y="703.0"/>
    </contour>
    <component base="D"/>
  </outline>
</glyph>
<glyph name="Thorn" format="2">
  <advance width="1012"/>
  <unicode hex="00DE"/>
  <outline>
    <contour>
      <point x="242" y="78" type="curve" smooth="yes"/>
      <point x="318" y="420"/>
      <point x="452" y="960"/>
      <point x="546" y="1328" type="curve" smooth="yes"/>
      <point x="552" y="1354"/>
      <point x="564" y="1364"/>
      <point x="580" y="1366" type="curve" smooth="yes"/>
      <point x="710" y="1388" type="line" smooth="yes"/>
      <point x="720" y="1390"/>
      <point x="722" y="1392"/>
      <point x="722" y="1396" type="curve" smooth="yes"/>
      <point x="722" y="1398"/>
      <point x="720" y="1400"/>
      <point x="716" y="1400" type="curve" smooth="yes"/>
      <point x="336" y="1400" type="line" smooth="yes"/>
      <point x="332" y="1400"/>
      <point x="328" y="1398"/>
      <point x="328" y="1394" type="curve" smooth="yes"/>
      <point x="328" y="1390"/>
      <point x="330" y="1388"/>
      <point x="342" y="1386" type="curve" smooth="yes"/>
      <point x="466" y="1370" type="line" smooth="yes"/>
      <point x="480" y="1368"/>
      <point x="494" y="1358"/>
      <point x="490" y="1336" type="curve" smooth="yes"/>
      <point x="410" y="970"/>
      <point x="278" y="436"/>
      <point x="182" y="72" type="curve" smooth="yes"/>
      <point x="174" y="42"/>
      <point x="162" y="28"/>
      <point x="136" y="26" type="curve" smooth="yes"/>
      <point x="22" y="14" type="line" smooth="yes"/>
      <point x="16" y="14"/>
      <point x="10" y="12"/>
      <point x="10" y="6" type="curve" smooth="yes"/>
      <point x="10" y="4"/>
      <point x="14" y="0"/>
      <point x="20" y="0" type="curve" smooth="yes"/>
      <point x="398" y="0" type="line" smooth="yes"/>
      <point x="402" y="0"/>
      <point x="404" y="2"/>
      <point x="404" y="6" type="curve" smooth="yes"/>
      <point x="404" y="10"/>
      <point x="400" y="12"/>
      <point x="396" y="12" type="curve" smooth="yes"/>
      <point x="264" y="24" type="line" smooth="yes"/>
      <point x="244" y="26"/>
      <point x="236" y="50"/>
    </contour>
    <contour>
      <point x="1047" y="656" type="curve" smooth="yes"/>
      <point x="1121" y="931"/>
      <point x="951" y="1116"/>
      <point x="662" y="1116" type="curve" smooth="yes"/>
      <point x="484" y="1116" type="line"/>
      <point x="481" y="1106" type="line"/>
      <point x="659" y="1106" type="line" smooth="yes"/>
      <point x="915" y="1106"/>
      <point x="1059" y="926"/>
      <point x="986" y="654" type="curve" smooth="yes"/>
      <point x="935" y="463"/>
      <point x="762" y="343"/>
      <point x="543" y="343" type="curve" smooth="yes"/>
      <point x="461" y="343"/>
      <point x="346" y="352"/>
      <point x="280" y="410" type="curve"/>
      <point x="275" y="406" type="line"/>
      <point x="346" y="343"/>
      <point x="457" y="329"/>
      <point x="548" y="329" type="curve" smooth="yes"/>
      <point x="786" y="329"/>
      <point x="990" y="442"/>
    </contour>
  </outline>
</glyph>
<glyph name="oslash" format="2">
  <advance width="759"/>
  <unicode hex="00F8"/>
  <outline>
    <contour>
      <point x="-32" y="-17" type="curve" smooth="yes"/>
      <point x="-30" y="-19"/>
      <point x="-27" y="-19"/>
      <point x="-25" y="-16" type="curve" smooth="yes"/>
      <point x="93" y="111" type="line"/>
      <point x="104" y="122" type="line"/>
      <point x="656" y="716" type="line"/>
      <point x="664" y="724" type="line"/>
      <point x="791" y="861" type="line" smooth="yes"/>
      <point x="793" y="863"/>
      <point x="793" y="866"/>
      <point x="791" y="868" type="curve" smooth="yes"/>
      <point x="788" y="870"/>
      <point x="786" y="870"/>
      <point x="784" y="867" type="curve" smooth="yes"/>
      <point x="659" y="733" type="line"/>
      <point x="649" y="722" type="line"/>
      <point x="101" y="134" type="line"/>
      <point x="89" y="121" type="line"/>
      <point x="-33" y="-10" type="line" smooth="yes"/>
      <point x="-35" y="-12"/>
      <point x="-35" y="-15"/>
    </contour>
    <component base="o"/>
  </outline>
</glyph>
<glyph name="Aogonek" format="2">
  <advance width="996"/>
  <unicode hex="0104"/>
  <outline>
    <contour>
      <point x="783" y="17" type="line"/>
      <point x="597.0100772711066" y="-44.99664090963113"/>
      <point x="506.0" y="-176"/>
      <point x="506" y="-277" type="curve" smooth="yes"/>
      <point x="506" y="-345"/>
      <point x="553" y="-384"/>
      <point x="638" y="-384" type="curve" smooth="yes"/>
      <point x="708" y="-384"/>
      <point x="766" y="-342"/>
      <point x="792" y="-305" type="curve" smooth="yes"/>
      <point x="795" y="-301"/>
      <point x="796" y="-297"/>
      <point x="794" y="-296" type="curve" smooth="yes"/>
      <point x="791" y="-295"/>
      <point x="788" y="-297"/>
      <point x="785" y="-301" type="curve" smooth="yes"/>
      <point x="757" y="-339"/>
      <point x="703" y="-369"/>
      <point x="655" y="-369" type="curve" smooth="yes"/>
      <point x="593.0" y="-369.0"/>
      <point x="562" y="-333"/>
      <point x="562" y="-272" type="curve" smooth="yes"/>
      <point x="562.0" y="-179"/>
      <point x="632.8551800972506" y="-50.68002298033468"/>
      <point x="786" y="10" type="curve"/>
    </contour>
    <component base="A"/>
  </outline>
</glyph>
<glyph name="dcroat" format="2">
  <advance width="794"/>
  <unicode hex="0111"/>
  <outline>
    <contour>
      <point x="940" y="1404" type="line" smooth="yes"/>
      <point x="946" y="1424"/>
      <point x="944.0" y="1438.0"/>
      <point x="932" y="1438.0" type="curve" smooth="yes"/>
      <point x="916" y="1438"/>
      <point x="894" y="1417"/>
      <point x="884" y="1383" type="curve" smooth="yes"/>
      <point x="675" y="678" type="line" smooth="yes"/>
      <point x="559" y="287"/>
      <point x="295" y="13"/>
      <point x="178" y="13" type="curve" smooth="yes"/>
      <point x="118" y="13"/>
      <point x="65" y="56"/>
      <point x="78" y="222" type="curve" smooth="yes"/>
      <point x="106" y="574"/>
      <point x="379" y="856"/>
      <point x="599" y="856" type="curve" smooth="yes"/>
      <point x="683" y="856"/>
      <point x="711" y="804"/>
      <point x="700" y="756" type="curve"/>
      <point x="714" y="753" type="line"/>
      <point x="728" y="813"/>
      <point x="699" y="866"/>
      <point x="591" y="866" type="curve" smooth="yes"/>
      <point x="371" y="866"/>
      <point x="47" y="559"/>
      <point x="25" y="215" type="curve" smooth="yes"/>
      <point x="15" y="59"/>
      <point x="63" y="-15"/>
      <point x="140" y="-15" type="curve" smooth="yes"/>
      <point x="272" y="-15"/>
      <point x="480" y="182"/>
      <point x="632" y="526" type="curve"/>
      <point x="624" y="530" type="line"/>
      <point x="532" y="228"/>
      <point x="500" y="112"/>
      <point x="500" y="55" type="curve" smooth="yes"/>
      <point x="500" y="4"/>
      <point x="530" y="-15"/>
      <point x="569" y="-15" type="curve" smooth="yes"/>
      <point x="617" y="-15"/>
      <point x="673" y="22"/>
      <point x="737" y="108" type="curve" smooth="yes"/>
      <point x="740" y="112"/>
      <point x="741" y="115"/>
      <point x="739" y="117" type="curve" smooth="yes"/>
      <point x="736" y="119"/>
      <point x="733" y="117"/>
      <point x="730" y="113" type="curve" smooth="yes"/>
      <point x="667" y="38"/>
      <point x="629" y="19"/>
      <point x="599" y="19" type="curve" smooth="yes"/>
      <point x="553" y="19"/>
      <point x="542" y="51"/>
      <point x="590" y="213" type="curve" smooth="yes"/>
    </contour>
    <contour>
      <point x="580" y="1112" type="curve" smooth="yes"/>
      <point x="580" y="1109"/>
      <point x="582" y="1107"/>
      <point x="585" y="1107" type="curve" smooth="yes"/>
      <point x="957" y="1107" type="line" smooth="yes"/>
      <point x="960.0" y="1107.0"/>
      <point x="962" y="1109"/>
      <point x="962" y="1112" type="curve" smooth="yes"/>
      <point x="962" y="1115"/>
      <point x="960.0" y="1117.0"/>
      <point x="957" y="1117" type="curve" smooth="yes"/>
      <point x="585" y="1117" type="line" smooth="yes"/>
      <point x="582" y="1117"/>
      <point x="580" y="1115"/>
    </contour>
  </outline>
</glyph>
<glyph name="Hbar" format="2">
  <advance width="1289"/>
  <unicode hex="0126"/>
  <outline>
    <contour>
      <point x="192" y="1006.0" type="curve" smooth="yes"/>
      <point x="191" y="1003.0"/>
      <point x="192" y="1001.0"/>
      <point x="195" y="1001.0" type="curve" smooth="yes"/>
      <point x="1394" y="1001.0" type="line" smooth="yes"/>
      <point x="1397" y="1001.0"/>
      <point x="1400" y="1003.0"/>
      <point x="1401" y="1006.0" type="curve" smooth="yes"/>
      <point x="1401" y="1009.0"/>
      <point x="1400.0" y="1011.0"/>
      <point x="1397.0" y="1011.0" type="curve" smooth="yes"/>
      <point x="198" y="1011.0" type="line" smooth="yes"/>
      <point x="195" y="1011.0"/>
      <point x="192" y="1009.0"/>
    </contour>
    <component base="H"/>
  </outline>
</glyph>
<glyph name="Lslash" format="2">
  <advance width="874"/>
  <unicode hex="0141"/>
  <outline>
    <contour>
      <point x="110" y="502" type="curve" smooth="yes"/>
      <point x="112" y="499"/>
      <point x="115" y="499"/>
      <point x="117" y="501" type="curve" smooth="yes"/>
      <point x="727" y="944" type="line" smooth="yes"/>
      <point x="729" y="945"/>
      <point x="731" y="948"/>
      <point x="729" y="951" type="curve" smooth="yes"/>
      <point x="727" y="954"/>
      <point x="724" y="953"/>
      <point x="721" y="951" type="curve" smooth="yes"/>
      <point x="111" y="509" type="line" smooth="yes"/>
      <point x="109" y="508"/>
      <point x="108" y="505"/>
    </contour>
    <component base="L"/>
  </outline>
</glyph>
<glyph name="lslash" format="2">
  <advance width="724"/>
  <unicode hex="0142"/>
  <outline>
    <contour>
      <point x="35" y="560" type="curve" smooth="yes"/>
      <point x="59" y="532"/>
      <point x="89" y="529"/>
      <point x="122" y="555" type="curve" smooth="yes"/>
      <point x="343" y="726" type="line"/>
      <point x="529" y="778" type="line"/>
      <point x="748" y="961" type="line" smooth="yes"/>
      <point x="776" y="987"/>
      <point x="783" y="1021"/>
      <point x="759" y="1052" type="curve" smooth="yes"/>
      <point x="735" y="1079"/>
      <point x="695" y="1079"/>
      <point x="667" y="1056" type="curve" smooth="yes"/>
      <point x="471" y="891" type="line"/>
      <point x="289" y="842" type="line"/>
      <point x="46" y="651" type="line" smooth="yes"/>
      <point x="18" y="629"/>
      <point x="12" y="589"/>
    </contour>
    <component base="l" xOffset="10"/>
  </outline>
</glyph>
<glyph name="Eng" format="2">
  <advance width="1131"/>
  <unicode hex="014A"/>
  <outline>
    <contour>
      <point x="1155" y="1224" type="line" smooth="yes"/>
      <point x="1190" y="1364"/>
      <point x="1241" y="1414"/>
      <point x="1293" y="1414" type="curve" smooth="yes"/>
      <point x="1317" y="1414"/>
      <point x="1336" y="1398"/>
      <point x="1336" y="1378" type="curve" smooth="yes"/>
      <point x="1336" y="1350"/>
      <point x="1313" y="1328"/>
      <point x="1255" y="1306" type="curve" smooth="yes"/>
      <point x="1198" y="1284"/>
      <point x="1167" y="1244"/>
      <point x="1151" y="1178" type="curve" smooth="yes"/>
      <point x="789" y="-296" type="line" smooth="yes"/>
      <point x="758" y="-422"/>
      <point x="691" y="-490"/>
      <point x="572" y="-490" type="curve" smooth="yes"/>
      <point x="533" y="-490"/>
      <point x="515" y="-473"/>
      <point x="515" y="-453" type="curve" smooth="yes"/>
      <point x="515" y="-435"/>
      <point x="529" y="-417"/>
      <point x="558" y="-417" type="curve" smooth="yes"/>
      <point x="599" y="-417"/>
      <point x="633" y="-441"/>
      <point x="668" y="-441" type="curve" smooth="yes"/>
      <point x="723" y="-441"/>
      <point x="753" y="-388"/>
      <point x="777" y="-292" type="curve" smooth="yes"/>
      <point x="784" y="-264"/>
      <point x="836" y="-56"/>
      <point x="850" y="9" type="curve" smooth="yes"/>
      <point x="855" y="34"/>
      <point x="853" y="48"/>
      <point x="847" y="65" type="curve" smooth="yes"/>
      <point x="744" y="359"/>
      <point x="576" y="784"/>
      <point x="418" y="1172" type="curve"/>
      <point x="431" y="1184" type="line"/>
      <point x="168" y="154" type="line" smooth="yes"/>
      <point x="146" y="65"/>
      <point x="173" y="25"/>
      <point x="232" y="19" type="curve" smooth="yes"/>
      <point x="304" y="12" type="line" smooth="yes"/>
      <point x="308" y="12"/>
      <point x="312" y="10"/>
      <point x="312" y="6" type="curve" smooth="yes"/>
      <point x="312" y="2"/>
      <point x="310" y="0"/>
      <point x="306" y="0" type="curve" smooth="yes"/>
      <point x="-12" y="0" type="line" smooth="yes"/>
      <point x="-26" y="0"/>
      <point x="-32" y="0"/>
      <point x="-32" y="6" type="curve"/>
      <point x="-32" y="10"/>
      <point x="-28" y="14"/>
      <point x="-20" y="14" type="curve" smooth="yes"/>
      <point x="32" y="19" type="line" smooth="yes"/>
      <point x="90" y="25"/>
      <point x="136" y="65"/>
      <point x="159" y="157" type="curve" smooth="yes"/>
      <point x="410" y="1138" type="line" smooth="yes"/>
      <point x="418" y="1168"/>
      <point x="415" y="1186"/>
      <point x="405" y="1208" type="curve" smooth="yes"/>
      <point x="326" y="1388" type="line" smooth="yes"/>
      <point x="323" y="1394"/>
      <point x="326" y="1400"/>
      <point x="334" y="1400" type="curve" smooth="yes"/>
      <point x="356" y="1400" type="line" smooth="yes"/>
      <point x="374" y="1400"/>
      <point x="384" y="1390"/>
      <point x="394" y="1364" type="curve" smooth="yes"/>
      <point x="616" y="804"/>
      <point x="755" y="458"/>
      <point x="889" y="110" type="curve"/>
      <point x="877" y="110" type="line"/>
    </contour>
  </outline>
</glyph>
<glyph name="OE" format="2">
  <advance width="1751"/>
  <unicode hex="0152"/>
  <outline>
    <contour>
      <point x="1396" y="0" type="line" smooth="yes"/>
      <point x="1412" y="0"/>
      <point x="1416" y="-20"/>
      <point x="1430" y="-20" type="curve" smooth="yes"/>
      <point x="1516" y="-20"/>
      <point x="1648" y="156"/>
      <point x="1648" y="298" type="curve" smooth="yes"/>
      <point x="1648" y="304"/>
      <point x="1648" y="308"/>
      <point x="1644" y="308" type="curve" smooth="yes"/>
      <point x="1642" y="308"/>
      <point x="1640" y="306"/>
      <point x="1638" y="300" type="curve" smooth="yes"/>
      <point x="1556" y="102"/>
      <point x="1450" y="8"/>
      <point x="1314" y="8" type="curve" smooth="yes"/>
      <point x="1118" y="8" type="line" smooth="yes"/>
      <point x="952" y="8"/>
      <point x="930" y="30"/>
      <point x="940" y="78" type="curve" smooth="yes"/>
      <point x="1016" y="420"/>
      <point x="1144" y="942"/>
      <point x="1260" y="1392" type="curve"/>
      <point x="1642" y="1392" type="line" smooth="yes"/>
      <point x="1732" y="1392"/>
      <point x="1777" y="1354"/>
      <point x="1832" y="1150" type="curve" smooth="yes"/>
      <point x="1835" y="1142"/>
      <point x="1838" y="1140"/>
      <point x="1842" y="1140" type="curve" smooth="yes"/>
      <point x="1846" y="1140"/>
      <point x="1846" y="1145"/>
      <point x="1844" y="1156" type="curve" smooth="yes"/>
      <point x="1804" y="1412" type="line" smooth="yes"/>
      <point x="1802" y="1426"/>
      <point x="1796" y="1430"/>
      <point x="1788" y="1430" type="curve" smooth="yes"/>
      <point x="1767" y="1430"/>
      <point x="1737" y="1400"/>
      <point x="1672" y="1400" type="curve" smooth="yes"/>
      <point x="1066" y="1400" type="line" smooth="yes"/>
      <point x="628" y="1400"/>
      <point x="295" y="1127"/>
      <point x="181" y="702" type="curve" smooth="yes"/>
      <point x="75" y="306"/>
      <point x="246" y="0"/>
      <point x="653" y="0" type="curve" smooth="yes"/>
    </contour>
    <contour>
      <point x="254" y="736" type="curve" smooth="yes"/>
      <point x="366" y="1155"/>
      <point x="670" y="1388"/>
      <point x="1066" y="1388" type="curve" smooth="yes"/>
      <point x="1201" y="1388" type="line"/>
      <point x="863" y="12" type="line"/>
      <point x="701" y="12" type="line" smooth="yes"/>
      <point x="290" y="12"/>
      <point x="134" y="286"/>
    </contour>
    <contour>
      <point x="1062" y="700" type="line"/>
      <point x="1062" y="692" type="line"/>
      <point x="1426" y="692" type="line" smooth="yes"/>
      <point x="1508" y="692"/>
      <point x="1552" y="660"/>
      <point x="1588" y="554" type="curve" smooth="yes"/>
      <point x="1590" y="550"/>
      <point x="1592" y="548"/>
      <point x="1596" y="550" type="curve" smooth="yes"/>
      <point x="1600" y="552"/>
      <point x="1598" y="554"/>
      <point x="1596" y="566" type="curve" smooth="yes"/>
      <point x="1546" y="854" type="line" smooth="yes"/>
      <point x="1544" y="866"/>
      <point x="1540" y="868"/>
      <point x="1536" y="868" type="curve" smooth="yes"/>
      <point x="1532" y="868"/>
      <point x="1530" y="864"/>
      <point x="1530" y="860" type="curve" smooth="yes"/>
      <point x="1534" y="734"/>
      <point x="1488" y="700"/>
      <point x="1426" y="700" type="curve" smooth="yes"/>
    </contour>
  </outline>
</glyph>
<glyph name="oe" format="2">
  <advance width="1211"/>
  <unicode hex="0153"/>
  <outline>
    <contour>
      <point x="506" y="861" type="curve" smooth="yes"/>
      <point x="322" y="876"/>
      <point x="105" y="687"/>
      <point x="55" y="395" type="curve" smooth="yes"/>
      <point x="8" y="116"/>
      <point x="131" y="-15"/>
      <point x="281" y="-15" type="curve" smooth="yes"/>
      <point x="404" y="-15"/>
      <point x="530" y="79"/>
      <point x="628" y="244" type="curve"/>
      <point x="612" y="248" type="line"/>
      <point x="619" y="65"/>
      <point x="693" y="-15"/>
      <point x="806" y="-15" type="curve" smooth="yes"/>
      <point x="972" y="-15"/>
      <point x="1092" y="89"/>
      <point x="1149" y="260" type="curve" smooth="yes"/>
      <point x="1152" y="268"/>
      <point x="1149" y="272"/>
      <point x="1147" y="272" type="curve" smooth="yes"/>
      <point x="1143" y="272"/>
      <point x="1141" y="268"/>
      <point x="1139" y="262" type="curve" smooth="yes"/>
      <point x="1072" y="84"/>
      <point x="961" y="2"/>
      <point x="834" y="2" type="curve" smooth="yes"/>
      <point x="716" y="2"/>
      <point x="637" y="111"/>
      <point x="668" y="317" type="curve" smooth="yes"/>
      <point x="717" y="642"/>
      <point x="882" y="856"/>
      <point x="1037" y="856" type="curve" smooth="yes"/>
      <point x="1102" y="856"/>
      <point x="1147" y="773"/>
      <point x="1147" y="668" type="curve" smooth="yes"/>
      <point x="1147" y="656"/>
      <point x="1146" y="648"/>
      <point x="1143" y="623" type="curve"/>
      <point x="1151" y="633" type="line"/>
      <point x="1054" y="594"/>
      <point x="665" y="429"/>
      <point x="665" y="429" type="curve"/>
      <point x="665" y="416" type="line"/>
      <point x="665" y="416"/>
      <point x="1203" y="640"/>
      <point x="1225" y="650" type="curve" smooth="yes"/>
      <point x="1229" y="652"/>
      <point x="1233" y="655"/>
      <point x="1231" y="660" type="curve" smooth="yes"/>
      <point x="1229" y="664"/>
      <point x="1226" y="665"/>
      <point x="1219" y="663" type="curve" smooth="yes"/>
      <point x="1201" y="656"/>
      <point x="1193" y="661"/>
      <point x="1193" y="674" type="curve" smooth="yes"/>
      <point x="1193" y="776"/>
      <point x="1139" y="865"/>
      <point x="1045" y="865" type="curve" smooth="yes"/>
      <point x="922" y="865"/>
      <point x="791" y="750"/>
      <point x="690" y="561" type="curve"/>
      <point x="705" y="557" type="line"/>
      <point x="698" y="755"/>
      <point x="624" y="852"/>
    </contour>
    <contour>
      <point x="283" y="-7" type="curve" smooth="yes"/>
      <point x="153" y="-7"/>
      <point x="57" y="92"/>
      <point x="108" y="388" type="curve" smooth="yes"/>
      <point x="156" y="667"/>
      <point x="341" y="867"/>
      <point x="505" y="853" type="curve" smooth="yes"/>
      <point x="624" y="843"/>
      <point x="696" y="720"/>
      <point x="646" y="440" type="curve" smooth="yes"/>
      <point x="603" y="195"/>
      <point x="440" y="-7"/>
    </contour>
  </outline>
</glyph>
<glyph name="Tbar" format="2">
  <advance width="903"/>
  <unicode hex="0166"/>
  <outline>
    <contour>
      <point x="193" y="704.0" type="curve" smooth="yes"/>
      <point x="192" y="701.0"/>
      <point x="193" y="699.0"/>
      <point x="196" y="699.0" type="curve" smooth="yes"/>
      <point x="865" y="699.0" type="line" smooth="yes"/>
      <point x="868" y="699.0"/>
      <point x="871" y="701.0"/>
      <point x="872" y="704.0" type="curve" smooth="yes"/>
      <point x="872" y="707.0"/>
      <point x="871.0" y="709.0"/>
      <point x="868.0" y="709.0" type="curve" smooth="yes"/>
      <point x="199.0" y="709.0" type="line" smooth="yes"/>
      <point x="196.0" y="709.0"/>
      <point x="193" y="707.0"/>
    </contour>
    <component base="T"/>
  </outline>
</glyph>
<glyph name="Uogonek" format="2">
  <advance width="1591"/>
  <unicode hex="0172"/>
  <outline>
    <contour>
      <point x="1047" y="73" type="line"/>
      <point x="739" y="-12"/>
      <point x="615" y="-113"/>
      <point x="615" y="-270" type="curve" smooth="yes"/>
      <point x="615" y="-398"/>
      <point x="705" y="-479"/>
      <point x="876" y="-479" type="curve" smooth="yes"/>
      <point x="1021" y="-479"/>
      <point x="1127" y="-410"/>
      <point x="1167" y="-325" type="curve" smooth="yes"/>
      <point x="1195" y="-266"/>
      <point x="1168" y="-228"/>
      <point x="1139" y="-219" type="curve" smooth="yes"/>
      <point x="1112" y="-210"/>
      <point x="1093" y="-223"/>
      <point x="1069" y="-245" type="curve" smooth="yes"/>
      <point x="1043" y="-269"/>
      <point x="1022" y="-280"/>
      <point x="994" y="-280" type="curve" smooth="yes"/>
      <point x="954" y="-280"/>
      <point x="926" y="-254"/>
      <point x="926" y="-202" type="curve" smooth="yes"/>
      <point x="926" y="-126"/>
      <point x="974" y="-65"/>
      <point x="1083" y="0" type="curve"/>
    </contour>
    <component base="U"/>
  </outline>
</glyph>
<glyph name="uogonek" format="2">
  <advance width="832"/>
  <unicode hex="0173"/>
  <outline>
    <contour>
      <point x="609" y="5" type="line"/>
      <point x="452" y="-57"/>
      <point x="358" y="-178"/>
      <point x="358" y="-278" type="curve" smooth="yes"/>
      <point x="358" y="-345"/>
      <point x="405" y="-384"/>
      <point x="490" y="-384" type="curve" smooth="yes"/>
      <point x="560" y="-384"/>
      <point x="618" y="-342"/>
      <point x="644" y="-305" type="curve" smooth="yes"/>
      <point x="647" y="-301"/>
      <point x="648" y="-297"/>
      <point x="646" y="-296" type="curve" smooth="yes"/>
      <point x="643" y="-295"/>
      <point x="640" y="-297"/>
      <point x="637" y="-301" type="curve" smooth="yes"/>
      <point x="609" y="-339"/>
      <point x="555" y="-369"/>
      <point x="507" y="-369" type="curve" smooth="yes"/>
      <point x="445" y="-369"/>
      <point x="414" y="-333"/>
      <point x="414" y="-273" type="curve" smooth="yes"/>
      <point x="414" y="-180"/>
      <point x="490" y="-64"/>
      <point x="613" y="-4" type="curve"/>
    </contour>
    <component base="u"/>
  </outline>
</glyph>
<glyph name="Schwa" format="2">
  <advance width="1226"/>
  <unicode hex="018F"/>
  <outline>
    <contour>
      <point x="179.0" y="668"/>
      <point x="154.60336946550387" y="649.4890265352528"/>
      <point x="134" y="571" type="curve" smooth="yes"/>
      <point x="45" y="239"/>
      <point x="180" y="-20"/>
      <point x="476" y="-20" type="curve" smooth="yes"/>
      <point x="822" y="-20"/>
      <point x="1097" y="287"/>
      <point x="1200" y="674" type="curve" smooth="yes"/>
      <point x="1312" y="1092"/>
      <point x="1177" y="1416"/>
      <point x="866" y="1416" type="curve" smooth="yes"/>
      <point x="593" y="1416"/>
      <point x="381" y="1272"/>
      <point x="284" y="1067" type="curve" smooth="yes"/>
      <point x="283" y="1064"/>
      <point x="283" y="1062"/>
      <point x="285" y="1062" type="curve" smooth="yes"/>
      <point x="287" y="1062"/>
      <point x="287" y="1063"/>
      <point x="289" y="1066" type="curve" smooth="yes"/>
      <point x="392" y="1255"/>
      <point x="605" y="1389"/>
      <point x="836" y="1389" type="curve" smooth="yes"/>
      <point x="1119" y="1389"/>
      <point x="1250" y="1087"/>
      <point x="1128" y="634" type="curve" smooth="yes"/>
      <point x="1048" y="339"/>
      <point x="837" y="-12"/>
      <point x="485" y="-12" type="curve" smooth="yes"/>
      <point x="216" y="-12"/>
      <point x="119" y="290"/>
      <point x="194" y="572" type="curve" smooth="yes"/>
      <point x="212.19758655881563" y="639.735461080036"/>
      <point x="229.0" y="658"/>
      <point x="274" y="658" type="curve" smooth="yes"/>
      <point x="1159" y="658" type="line"/>
      <point x="1163" y="668" type="line"/>
      <point x="237" y="668" type="line" smooth="yes"/>
    </contour>
  </outline>
</glyph>
<glyph name="Ohorn" format="2">
  <advance width="1316"/>
  <unicode hex="01A0"/>
  <outline>
    <contour>
      <point x="1445" y="1590" type="curve" smooth="yes"/>
      <point x="1445.0" y="1621"/>
      <point x="1431" y="1639"/>
      <point x="1408" y="1639" type="curve" smooth="yes"/>
      <point x="1384" y="1639"/>
      <point x="1370" y="1620"/>
      <point x="1370" y="1588" type="curve" smooth="yes"/>
      <point x="1370" y="1544" type="line" smooth="yes"/>
      <point x="1370" y="1427.0"/>
      <point x="1253" y="1357"/>
      <point x="1007" y="1407" type="curve" smooth="yes"/>
      <point x="1002" y="1408"/>
      <point x="1000.0" y="1406"/>
      <point x="1000" y="1403" type="curve" smooth="yes"/>
      <point x="1000.0" y="1399"/>
      <point x="1001" y="1398"/>
      <point x="1007" y="1397" type="curve" smooth="yes"/>
      <point x="1293" y="1342"/>
      <point x="1445.0" y="1451.0"/>
    </contour>
    <component base="O"/>
  </outline>
</glyph>
<glyph name="ohorn" format="2">
  <advance width="759"/>
  <unicode hex="01A1"/>
  <outline>
    <contour>
      <point x="879" y="1014" type="curve" smooth="yes"/>
      <point x="892.2228975794915" y="1063.8401524150063"/>
      <point x="883.9411764705883" y="1086.0"/>
      <point x="858" y="1086.0" type="curve" smooth="yes"/>
      <point x="835.8461538461538" y="1086.0"/>
      <point x="818.6410437846221" y="1066.683827210281"/>
      <point x="810" y="1035" type="curve" smooth="yes"/>
      <point x="798" y="991.0" type="line" smooth="yes"/>
      <point x="764" y="867"/>
      <point x="684" y="823"/>
      <point x="545" y="854.0" type="curve" smooth="yes"/>
      <point x="541" y="855"/>
      <point x="538" y="853.0"/>
      <point x="538" y="851.0" type="curve" smooth="yes"/>
      <point x="536" y="847.0"/>
      <point x="537" y="846"/>
      <point x="543" y="845.0" type="curve" smooth="yes"/>
      <point x="725" y="809"/>
      <point x="847" y="898"/>
    </contour>
    <component base="o"/>
  </outline>
</glyph>
<glyph name="uhorn" format="2">
  <advance width="832"/>
  <unicode hex="01B0"/>
  <outline>
    <contour>
      <point x="1016" y="1017" type="curve" smooth="yes"/>
      <point x="1031" y="1074"/>
      <point x="1023" y="1095.0"/>
      <point x="1001" y="1095.0" type="curve" smooth="yes"/>
      <point x="976.0" y="1095.0"/>
      <point x="957" y="1079"/>
      <point x="947" y="1040" type="curve" smooth="yes"/>
      <point x="937" y="1000.0" type="line" smooth="yes"/>
      <point x="913" y="903"/>
      <point x="862" y="865.0"/>
      <point x="782" y="865.0" type="curve" smooth="yes"/>
      <point x="780" y="865"/>
      <point x="777" y="864.0"/>
      <point x="776" y="860.0" type="curve" smooth="yes"/>
      <point x="776" y="858.0"/>
      <point x="776" y="856"/>
      <point x="778" y="856.0" type="curve" smooth="yes"/>
      <point x="883" y="854.0"/>
      <point x="993" y="929"/>
    </contour>
    <component base="u"/>
  </outline>
</glyph>
<glyph name="Oogonek" format="2">
  <advance width="1316"/>
  <unicode hex="01EA"/>
  <outline>
    <contour>
      <point x="891" y="1420" type="curve" smooth="yes"/>
      <point x="478" y="1420"/>
      <point x="151" y="919"/>
      <point x="151" y="484" type="curve" smooth="yes"/>
      <point x="151" y="167"/>
      <point x="326" y="-20"/>
      <point x="581" y="-20" type="curve" smooth="yes"/>
      <point x="613" y="-20"/>
      <point x="652" y="-15"/>
      <point x="712" y="1" type="curve"/>
      <point x="710" y="8" type="line"/>
      <point x="540" y="-58"/>
      <point x="463" y="-194"/>
      <point x="463" y="-268" type="curve" smooth="yes"/>
      <point x="463" y="-341"/>
      <point x="510" y="-384"/>
      <point x="595" y="-384" type="curve" smooth="yes"/>
      <point x="665" y="-384"/>
      <point x="723" y="-342"/>
      <point x="749" y="-305" type="curve" smooth="yes"/>
      <point x="752" y="-301"/>
      <point x="753" y="-297"/>
      <point x="751" y="-296" type="curve" smooth="yes"/>
      <point x="748" y="-295"/>
      <point x="745" y="-297"/>
      <point x="742" y="-301" type="curve" smooth="yes"/>
      <point x="714" y="-339"/>
      <point x="660" y="-369"/>
      <point x="612" y="-369" type="curve" smooth="yes"/>
      <point x="550" y="-369"/>
      <point x="519" y="-331"/>
      <point x="519" y="-268" type="curve" smooth="yes"/>
      <point x="519" y="-184"/>
      <point x="591" y="-41"/>
      <point x="752" y="17" type="curve" smooth="yes"/>
      <point x="1059" y="128"/>
      <point x="1298" y="533"/>
      <point x="1298" y="926" type="curve" smooth="yes"/>
      <point x="1298" y="1219"/>
      <point x="1139" y="1420"/>
    </contour>
    <contour>
      <point x="208" y="470" type="curve" smooth="yes"/>
      <point x="208.0" y="905.0"/>
      <point x="506.8751835535976" y="1412.0"/>
      <point x="891" y="1412" type="curve" smooth="yes"/>
      <point x="1112.2643678160919" y="1412.0"/>
      <point x="1241.0" y="1242.0"/>
      <point x="1241" y="957" type="curve" smooth="yes"/>
      <point x="1241.0" y="479.0"/>
      <point x="919.0243161094224" y="-12.0"/>
      <point x="581" y="-12" type="curve" smooth="yes"/>
      <point x="331.66307277628033" y="-12.0"/>
      <point x="208.0" y="158.0"/>
    </contour>
  </outline>
</glyph>
<glyph name="oogonek" format="2">
  <advance width="1247"/>
  <unicode hex="01EB"/>
  <outline>
    <contour>
      <point x="802" y="82" type="line"/>
      <point x="493.0614969312378" y="-2.983083368429746"/>
      <point x="370.0" y="-108.88046647230323"/>
      <point x="370" y="-270" type="curve" smooth="yes"/>
      <point x="370" y="-398"/>
      <point x="460" y="-479"/>
      <point x="631" y="-479" type="curve" smooth="yes"/>
      <point x="776" y="-479"/>
      <point x="882" y="-410"/>
      <point x="922" y="-325" type="curve" smooth="yes"/>
      <point x="950" y="-266"/>
      <point x="923" y="-228"/>
      <point x="894" y="-219" type="curve" smooth="yes"/>
      <point x="867" y="-210"/>
      <point x="848" y="-223"/>
      <point x="824" y="-245" type="curve" smooth="yes"/>
      <point x="798" y="-269"/>
      <point x="777" y="-280"/>
      <point x="749" y="-280" type="curve" smooth="yes"/>
      <point x="709" y="-280"/>
      <point x="681" y="-254"/>
      <point x="681" y="-202" type="curve" smooth="yes"/>
      <point x="681.0" y="-122.6138613861386"/>
      <point x="728.1371089085901" y="-56.917734654845944"/>
      <point x="838" y="9" type="curve"/>
    </contour>
    <component base="o"/>
  </outline>
</glyph>
<glyph name="dotlessj" format="2">
  <advance width="335"/>
  <unicode hex="0237"/>
  <outline>
    <contour>
      <point x="295" y="697" type="line" smooth="yes"/>
      <point x="332" y="825"/>
      <point x="306" y="865"/>
      <point x="248" y="865" type="curve" smooth="yes"/>
      <point x="200" y="865"/>
      <point x="144" y="828"/>
      <point x="80" y="742" type="curve" smooth="yes"/>
      <point x="77" y="738"/>
      <point x="76" y="735"/>
      <point x="78" y="733" type="curve" smooth="yes"/>
      <point x="80" y="731"/>
      <point x="84" y="733"/>
      <point x="87" y="737" type="curve" smooth="yes"/>
      <point x="149" y="811"/>
      <point x="188" y="831"/>
      <point x="218" y="831" type="curve" smooth="yes"/>
      <point x="266" y="831"/>
      <point x="272" y="795"/>
      <point x="226" y="635" type="curve" smooth="yes"/>
      <point x="-21" y="-227" type="line" smooth="yes"/>
      <point x="-35" y="-274"/>
      <point x="-50" y="-328"/>
      <point x="-50" y="-357" type="curve" smooth="yes"/>
      <point x="-50" y="-413"/>
      <point x="-86" y="-441"/>
      <point x="-123" y="-441" type="curve" smooth="yes"/>
      <point x="-158" y="-441"/>
      <point x="-192" y="-417"/>
      <point x="-233" y="-417" type="curve" smooth="yes"/>
      <point x="-262" y="-417"/>
      <point x="-276" y="-435"/>
      <point x="-276" y="-453" type="curve" smooth="yes"/>
      <point x="-276" y="-473"/>
      <point x="-258" y="-490"/>
      <point x="-227" y="-490" type="curve" smooth="yes"/>
      <point x="-117" y="-490"/>
      <point x="-30" y="-426"/>
      <point x="8" y="-296" type="curve" smooth="yes"/>
    </contour>
  </outline>
</glyph>
<glyph name="primemod" format="2">
  <advance width="637"/>
  <unicode hex="02B9"/>
  <outline>
    <contour>
      <point x="228" y="704" type="curve" smooth="yes"/>
      <point x="273" y="704"/>
      <point x="312.7201963425342" y="730.8347577395041"/>
      <point x="344" y="825" type="curve" smooth="yes"/>
      <point x="536" y="1403" type="line" smooth="yes"/>
      <point x="569" y="1502"/>
      <point x="527.1641791044776" y="1549.0"/>
      <point x="462" y="1549" type="curve" smooth="yes"/>
      <point x="396.7441860465117" y="1549.0"/>
      <point x="365" y="1508"/>
      <point x="340" y="1428" type="curve" smooth="yes"/>
      <point x="161" y="850" type="line" smooth="yes"/>
      <point x="130.67655761754276" y="752.0840799046912"/>
      <point x="156" y="704"/>
    </contour>
  </outline>
</glyph>
<glyph name="tildecmb" format="2">
  <advance width="484"/>
  <unicode hex="0303"/>
  <outline>
    <contour>
      <point x="335" y="959.0" type="curve" smooth="yes"/>
      <point x="399" y="959.0"/>
      <point x="449" y="1004.0"/>
      <point x="472" y="1098.0" type="curve" smooth="yes"/>
      <point x="475" y="1110.0"/>
      <point x="473" y="1112.0"/>
      <point x="468" y="1112.0" type="curve" smooth="yes"/>
      <point x="463" y="1112.0"/>
      <point x="459" y="1107.0"/>
      <point x="457" y="1098.0" type="curve" smooth="yes"/>
      <point x="444" y="1046.0"/>
      <point x="417" y="1014.0"/>
      <point x="377" y="1014.0" type="curve" smooth="yes"/>
      <point x="297" y="1014.0"/>
      <point x="267" y="1098.0"/>
      <point x="190" y="1098.0" type="curve" smooth="yes"/>
      <point x="126" y="1098.0"/>
      <point x="77" y="1053.0"/>
      <point x="53" y="959.0" type="curve" smooth="yes"/>
      <point x="50" y="947.0"/>
      <point x="53.0" y="945.0"/>
      <point x="58.0" y="945.0" type="curve" smooth="yes"/>
      <point x="63.0" y="945.0"/>
      <point x="66" y="950.0"/>
      <point x="68" y="959.0" type="curve" smooth="yes"/>
      <point x="81" y="1011.0"/>
      <point x="108" y="1043.0"/>
      <point x="148" y="1043.0" type="curve" smooth="yes"/>
      <point x="228" y="1043.0"/>
      <point x="257" y="959.0"/>
    </contour>
  </outline>
</glyph>
<glyph name="dotaccentcmb" format="2">
  <advance width="188"/>
  <unicode hex="0307"/>
  <outline>
    <contour>
      <point x="94.0" y="957.0" type="curve" smooth="yes"/>
      <point x="121.0" y="957.0"/>
      <point x="145" y="984.0"/>
      <point x="152" y="1015.0" type="curve" smooth="yes"/>
      <point x="160" y="1046.0"/>
      <point x="149.67272032696576" y="1072.0"/>
      <point x="122.67272032696576" y="1072.0" type="curve" smooth="yes"/>
      <point x="96.67272032696576" y="1072.0"/>
      <point x="72.19019225304311" y="1046.0"/>
      <point x="64.46102416490453" y="1015.0" type="curve" smooth="yes"/>
      <point x="56.731856076765894" y="984.0"/>
      <point x="68.0" y="957.0"/>
    </contour>
  </outline>
</glyph>
<glyph name="dieresiscmb" format="2">
  <advance width="435"/>
  <unicode hex="0308"/>
  <outline>
    <contour>
      <point x="94.0" y="957.0" type="curve" smooth="yes"/>
      <point x="121.0" y="957.0"/>
      <point x="144.7318560767659" y="984.0"/>
      <point x="152.46102416490453" y="1015.0" type="curve" smooth="yes"/>
      <point x="160.1901922530431" y="1046.0"/>
      <point x="149.67272032696576" y="1072.0"/>
      <point x="122.67272032696576" y="1072.0" type="curve" smooth="yes"/>
      <point x="96.67272032696576" y="1072.0"/>
      <point x="72.19019225304311" y="1046.0"/>
      <point x="64.46102416490453" y="1015.0" type="curve" smooth="yes"/>
      <point x="56.731856076765894" y="984.0"/>
      <point x="68.0" y="957.0"/>
    </contour>
    <contour>
      <point x="341.0" y="957.0" type="curve" smooth="yes"/>
      <point x="368.0" y="957.0"/>
      <point x="391.7318560767659" y="984.0"/>
      <point x="399.46102416490453" y="1015.0" type="curve" smooth="yes"/>
      <point x="407.19019225304305" y="1046.0"/>
      <point x="396.67272032696576" y="1072.0"/>
      <point x="369.67272032696576" y="1072.0" type="curve" smooth="yes"/>
      <point x="343.67272032696576" y="1072.0"/>
      <point x="319.19019225304305" y="1046.0"/>
      <point x="311.46102416490453" y="1015.0" type="curve" smooth="yes"/>
      <point x="303.7318560767659" y="984.0"/>
      <point x="315.0" y="957.0"/>
    </contour>
  </outline>
</glyph>
<glyph name="invertedbrevecmb" format="2">
  <advance width="454"/>
  <unicode hex="0311"/>
  <outline>
    <contour>
      <point x="268.1391204691248" y="1095.0" type="curve" smooth="yes"/>
      <point x="350.1391204691248" y="1095.0"/>
      <point x="400.1660003553976" y="1055.0"/>
      <point x="390.2412640369614" y="943.0" type="curve" smooth="yes"/>
      <point x="389.49865600568637" y="932.0"/>
      <point x="393.0" y="930.0"/>
      <point x="397.0" y="930.0" type="curve" smooth="yes"/>
      <point x="401.0" y="930.0"/>
      <point x="405.99731201137274" y="934.0"/>
      <point x="407.73992004264767" y="945.0" type="curve" smooth="yes"/>
      <point x="427.407264392359" y="1068.0"/>
      <point x="396.8494726368725" y="1154.0"/>
      <point x="282.8494726368725" y="1154.0" type="curve" smooth="yes"/>
      <point x="168.8494726368725" y="1154.0"/>
      <point x="95.40726439235894" y="1068.0"/>
      <point x="53.7399200426477" y="945.0" type="curve" smooth="yes"/>
      <point x="49.99731201137271" y="934.0"/>
      <point x="52.99999999999997" y="930.0"/>
      <point x="56.99999999999997" y="930.0" type="curve" smooth="yes"/>
      <point x="60.99999999999997" y="930.0"/>
      <point x="65.49865600568634" y="932.0"/>
      <point x="70.24126403696138" y="943.0" type="curve" smooth="yes"/>
      <point x="116.16600035539759" y="1055.0"/>
      <point x="186.13912046912483" y="1095.0"/>
    </contour>
  </outline>
</glyph>
<glyph name="dieresisbelowcmb" format="2">
  <advance width="444"/>
  <unicode hex="0324"/>
  <outline>
    <contour>
      <point x="95.0" y="-225.0" type="curve" smooth="yes"/>
      <point x="120.0" y="-225.0"/>
      <point x="145.7318560767659" y="-198.0"/>
      <point x="153.46102416490447" y="-167.0" type="curve" smooth="yes"/>
      <point x="161.1901922530431" y="-136.0"/>
      <point x="148.6727203269658" y="-110.0"/>
      <point x="123.67272032696579" y="-110.0" type="curve" smooth="yes"/>
      <point x="96.67272032696579" y="-110.0"/>
      <point x="72.19019225304308" y="-136.0"/>
      <point x="64.46102416490449" y="-167.0" type="curve" smooth="yes"/>
      <point x="56.73185607676588" y="-198.0"/>
      <point x="68.0" y="-225.0"/>
    </contour>
    <contour>
      <point x="350.0" y="-225.0" type="curve" smooth="yes"/>
      <point x="377.0" y="-225.0"/>
      <point x="400.73185607676584" y="-198.0"/>
      <point x="408.4610241649045" y="-167.0" type="curve" smooth="yes"/>
      <point x="416.19019225304305" y="-136.0"/>
      <point x="405.67272032696576" y="-110.0"/>
      <point x="378.67272032696576" y="-110.0" type="curve" smooth="yes"/>
      <point x="352.67272032696576" y="-110.0"/>
      <point x="328.19019225304305" y="-136.0"/>
      <point x="320.4610241649045" y="-167.0" type="curve" smooth="yes"/>
      <point x="312.73185607676584" y="-198.0"/>
      <point x="324.0" y="-225.0"/>
    </contour>
  </outline>
</glyph>
<glyph name="commaaccentbelowcmb" format="2">
  <advance width="223"/>
  <unicode hex="0326"/>
  <outline>
    <contour>
      <point x="163.7547969393857" y="-223.0" type="curve" smooth="yes"/>
      <point x="181.7547969393857" y="-223.0" type="line" smooth="yes"/>
      <point x="191.7547969393857" y="-223.0"/>
      <point x="192.5081569251698" y="-228.0"/>
      <point x="190.014876896738" y="-238.0" type="curve" smooth="yes"/>
      <point x="179.29377277448123" y="-281.0"/>
      <point x="127.57804462947901" y="-332.0"/>
      <point x="55.09282856692903" y="-354.0" type="curve" smooth="yes"/>
      <point x="51.84350056408586" y="-355.0"/>
      <point x="50.095516555556316" y="-358.0"/>
      <point x="50.596860549869945" y="-360.0" type="curve" smooth="yes"/>
      <point x="50.8488765413404" y="-363.0"/>
      <point x="53.8488765413404" y="-363.0"/>
      <point x="59.34753254702677" y="-361.0" type="curve" smooth="yes"/>
      <point x="130.58342060673357" y="-340.0"/>
      <point x="192.04713276026533" y="-286.0"/>
      <point x="211.7440449848766" y="-207.0" type="curve" smooth="yes"/>
      <point x="227.2023811611538" y="-145.0"/>
      <point x="216.92886126066514" y="-110.0"/>
      <point x="184.92886126066514" y="-110.0" type="curve" smooth="yes"/>
      <point x="157.92886126066514" y="-110.0"/>
      <point x="133.19431719527196" y="-133.0"/>
      <point x="124.46783709576064" y="-168.0" type="curve" smooth="yes"/>
      <point x="116.48934100477886" y="-200.0"/>
      <point x="128.7547969393857" y="-223.0"/>
    </contour>
  </outline>
</glyph>
<glyph name="cedillacmb" format="2">
  <advance width="384"/>
  <unicode hex="0327"/>
  <outline>
    <contour>
      <point x="285.7419530917814" y="0.0" type="line"/>
      <point x="196.825280739227" y="-124.0" type="line" smooth="yes"/>
      <point x="190.83065671648154" y="-132.0"/>
      <point x="191.58401670226564" y="-137.0"/>
      <point x="199.58401670226564" y="-137.0" type="curve" smooth="yes"/>
      <point x="233.58401670226564" y="-137.0" type="line" smooth="yes"/>
      <point x="299.58401670226567" y="-137.0"/>
      <point x="318.61896055442025" y="-189.0"/>
      <point x="301.664656361084" y="-257.0" type="curve" smooth="yes"/>
      <point x="282.71572814500223" y="-333.0"/>
      <point x="240.99193603411817" y="-372.0"/>
      <point x="184.99193603411817" y="-372.0" type="curve" smooth="yes"/>
      <point x="128.99193603411817" y="-372.0"/>
      <point x="82.22513610519769" y="-347.0"/>
      <point x="85.18481627578853" y="-287.0" type="curve" smooth="yes"/>
      <point x="85.68078429284762" y="-281.0"/>
      <point x="84.42876830137716" y="-278.0"/>
      <point x="80.17944029853398" y="-279.0" type="curve" smooth="yes"/>
      <point x="75.9301122956908" y="-280.0"/>
      <point x="74.18212828716126" y="-283.0"/>
      <point x="73.68616027010218" y="-289.0" type="curve" smooth="yes"/>
      <point x="70.97312011372723" y="-344.0"/>
      <point x="114.0" y="-384.0"/>
      <point x="187.0" y="-384.0" type="curve" smooth="yes"/>
      <point x="273.0" y="-384.0"/>
      <point x="347.713040156375" y="-329.0"/>
      <point x="367.16062437814304" y="-251.0" type="curve" smooth="yes"/>
      <point x="384.1149285714793" y="-183.0"/>
      <point x="334.5759527363838" y="-125.0"/>
      <point x="236.5759527363838" y="-125.0" type="curve" smooth="yes"/>
      <point x="223.5759527363838" y="-125.0"/>
      <point x="218.5759527363838" y="-125.0"/>
      <point x="204.5759527363838" y="-125.0" type="curve"/>
      <point x="206.07998471932473" y="-131.0" type="line"/>
      <point x="299.7419530917814" y="0.0" type="line"/>
    </contour>
  </outline>
</glyph>
<glyph name="ogonekcmb" format="2">
  <advance width="399"/>
  <unicode hex="0328"/>
  <outline>
    <contour>
      <point x="367.9885931059973" y="5.0" type="line"/>
      <point x="203.27555294962235" y="-50.0"/>
      <point x="109.83872068236337" y="-144.0"/>
      <point x="86.65121641794757" y="-237.0" type="curve" smooth="yes"/>
      <point x="63.96236815921813" y="-328.0"/>
      <point x="112.0" y="-384.0"/>
      <point x="213.0" y="-384.0" type="curve" smooth="yes"/>
      <point x="283.0" y="-384.0"/>
      <point x="341.47177611941356" y="-342.0"/>
      <point x="367.6969122246113" y="-305.0" type="curve" smooth="yes"/>
      <point x="370.694224235984" y="-301.0"/>
      <point x="371.69153624735674" y="-297.0"/>
      <point x="368.9408642501999" y="-296.0" type="curve" smooth="yes"/>
      <point x="366.1901922530431" y="-295.0"/>
      <point x="363.69153624735674" y="-297.0"/>
      <point x="360.694224235984" y="-301.0" type="curve" smooth="yes"/>
      <point x="332.2197601279431" y="-339.0"/>
      <point x="278.7399200426477" y="-369.0"/>
      <point x="230.73992004264773" y="-369.0" type="curve" smooth="yes"/>
      <point x="151.73992004264773" y="-369.0"/>
      <point x="123.45564818764993" y="-318.0"/>
      <point x="144.6485284293203" y="-233.0" type="curve" smooth="yes"/>
      <point x="168.33468869942246" y="-138.0"/>
      <point x="237.02891293540645" y="-55.0"/>
      <point x="371.243297086095" y="-2.0" type="curve"/>
    </contour>
  </outline>
</glyph>
<glyph name="Germandbls" format="2">
  <advance width="1250"/>
  <unicode hex="1E9E"/>
  <outline>
    <contour>
      <point x="1382" y="1400" type="curve" smooth="yes"/>
      <point x="385" y="1400" type="line" smooth="yes"/>
      <point x="381" y="1400"/>
      <point x="379" y="1398"/>
      <point x="378" y="1396" type="curve" smooth="yes"/>
      <point x="378" y="1394"/>
      <point x="379" y="1393"/>
      <point x="383" y="1392" type="curve" smooth="yes"/>
      <point x="497" y="1376" type="line" smooth="yes"/>
      <point x="516" y="1373"/>
      <point x="522" y="1368"/>
      <point x="518" y="1352" type="curve" smooth="yes"/>
      <point x="169" y="48" type="line" smooth="yes"/>
      <point x="165" y="32"/>
      <point x="155" y="27"/>
      <point x="134" y="24" type="curve" smooth="yes"/>
      <point x="12" y="8" type="line" smooth="yes"/>
      <point x="8" y="7"/>
      <point x="6" y="6"/>
      <point x="5" y="4" type="curve" smooth="yes"/>
      <point x="5" y="2"/>
      <point x="6" y="0"/>
      <point x="10" y="0" type="curve" smooth="yes"/>
      <point x="196" y="0" type="line" smooth="yes"/>
      <point x="204" y="0"/>
      <point x="211" y="4"/>
      <point x="213" y="11" type="curve" smooth="yes"/>
      <point x="577" y="1368" type="line" smooth="yes"/>
      <point x="580" y="1382"/>
      <point x="589" y="1390"/>
      <point x="604" y="1390" type="curve" smooth="yes"/>
      <point x="1297" y="1390" type="line" smooth="yes"/>
      <point x="1302" y="1390"/>
      <point x="1305" y="1387"/>
      <point x="1303" y="1382" type="curve" smooth="yes"/>
      <point x="1303" y="1379"/>
      <point x="1301" y="1376"/>
      <point x="1297" y="1372" type="curve" smooth="yes"/>
      <point x="633" y="753" type="line" smooth="yes"/>
      <point x="627" y="748"/>
      <point x="626" y="746"/>
      <point x="625" y="742" type="curve" smooth="yes"/>
      <point x="623" y="736"/>
      <point x="625" y="733"/>
      <point x="633" y="733" type="curve" smooth="yes"/>
      <point x="739" y="733" type="line" smooth="yes"/>
      <point x="1029" y="733"/>
      <point x="1139" y="577"/>
      <point x="1074" y="330" type="curve" smooth="yes"/>
      <point x="1011" y="92"/>
      <point x="850" y="-10"/>
      <point x="675" y="-10" type="curve" smooth="yes"/>
      <point x="481" y="-10"/>
      <point x="408" y="65"/>
      <point x="435" y="243" type="curve" smooth="yes"/>
      <point x="445" y="311" type="line" smooth="yes"/>
      <point x="446" y="316"/>
      <point x="445" y="318"/>
      <point x="442" y="318" type="curve" smooth="yes"/>
      <point x="439" y="318"/>
      <point x="436" y="315"/>
      <point x="435" y="310" type="curve" smooth="yes"/>
      <point x="349" y="-10" type="line" smooth="yes"/>
      <point x="349" y="-13"/>
      <point x="350" y="-15"/>
      <point x="354" y="-15" type="curve" smooth="yes"/>
      <point x="359" y="-15"/>
      <point x="427" y="95"/>
      <point x="431" y="95" type="curve" smooth="yes"/>
      <point x="437" y="95"/>
      <point x="446" y="-20"/>
      <point x="674" y="-20" type="curve" smooth="yes"/>
      <point x="890" y="-20"/>
      <point x="1075" y="105"/>
      <point x="1134" y="325" type="curve" smooth="yes"/>
      <point x="1200" y="570"/>
      <point x="1044" y="742"/>
      <point x="743" y="742" type="curve" smooth="yes"/>
      <point x="724" y="742"/>
      <point x="694" y="742"/>
      <point x="679" y="742" type="curve"/>
      <point x="686" y="737" type="line"/>
      <point x="1376" y="1381" type="line" smooth="yes"/>
      <point x="1384" y="1388"/>
      <point x="1386" y="1391"/>
      <point x="1387" y="1395" type="curve" smooth="yes"/>
      <point x="1388" y="1398"/>
      <point x="1385" y="1400"/>
    </contour>
  </outline>
</glyph>
<glyph name="dagger" format="2">
  <advance width="986"/>
  <unicode hex="2020"/>
  <outline>
    <contour>
      <point x="628" y="1036" type="curve" smooth="yes"/>
      <point x="574.9246994381414" y="804.6718032115218"/>
      <point x="534.0245230496073" y="743.1026902702307"/>
      <point x="518" y="676" type="curve" smooth="yes"/>
      <point x="499.0144704009941" y="595.061689604238"/>
      <point x="486.87458643243025" y="428.45629529824157"/>
      <point x="317" y="-308" type="curve" smooth="yes"/>
      <point x="316" y="-313"/>
      <point x="317" y="-315"/>
      <point x="320" y="-315" type="curve" smooth="yes"/>
      <point x="323" y="-315"/>
      <point x="326" y="-313"/>
      <point x="327" y="-308" type="curve" smooth="yes"/>
      <point x="495.3958874349536" y="423.03626427644565"/>
      <point x="561.1794439215417" y="584.7838866046299"/>
      <point x="580" y="667" type="curve" smooth="yes"/>
      <point x="596.4059392833258" y="734.674499543719"/>
      <point x="580.6422709351119" y="799.0823506794503"/>
      <point x="635" y="1036" type="curve" smooth="yes"/>
      <point x="717" y="1392"/>
      <point x="754" y="1441"/>
      <point x="766" y="1494" type="curve" smooth="yes"/>
      <point x="771" y="1516"/>
      <point x="766" y="1529"/>
      <point x="745" y="1529" type="curve" smooth="yes"/>
      <point x="727" y="1529"/>
      <point x="715" y="1517"/>
      <point x="710" y="1494" type="curve" smooth="yes"/>
      <point x="698" y="1442"/>
      <point x="710" y="1392"/>
    </contour>
    <contour>
      <point x="633" y="1041" type="curve" smooth="yes"/>
      <point x="347" y="1041"/>
      <point x="277" y="1065"/>
      <point x="231" y="1065" type="curve" smooth="yes"/>
      <point x="203" y="1065"/>
      <point x="184" y="1056"/>
      <point x="179" y="1035" type="curve" smooth="yes"/>
      <point x="175" y="1016"/>
      <point x="188" y="1007"/>
      <point x="217" y="1007" type="curve" smooth="yes"/>
      <point x="262" y="1007"/>
      <point x="346" y="1034"/>
      <point x="632" y="1034" type="curve" smooth="yes"/>
      <point x="932" y="1034"/>
      <point x="995" y="1007"/>
      <point x="1043" y="1007" type="curve" smooth="yes"/>
      <point x="1066" y="1007"/>
      <point x="1081" y="1016"/>
      <point x="1085" y="1035" type="curve" smooth="yes"/>
      <point x="1090" y="1056"/>
      <point x="1079" y="1065"/>
      <point x="1057" y="1065" type="curve" smooth="yes"/>
      <point x="1008" y="1065"/>
      <point x="933" y="1041"/>
    </contour>
  </outline>
</glyph>
<glyph name="daggerdbl" format="2">
  <advance width="988"/>
  <unicode hex="2021"/>
  <outline>
    <contour>
      <point x="653" y="1041" type="curve" smooth="yes"/>
      <point x="367" y="1041"/>
      <point x="297" y="1065"/>
      <point x="251" y="1065" type="curve" smooth="yes"/>
      <point x="223" y="1065"/>
      <point x="204" y="1056"/>
      <point x="199" y="1035" type="curve" smooth="yes"/>
      <point x="195" y="1016"/>
      <point x="208" y="1007"/>
      <point x="237" y="1007" type="curve" smooth="yes"/>
      <point x="282" y="1007"/>
      <point x="366" y="1034"/>
      <point x="652" y="1034" type="curve" smooth="yes"/>
      <point x="952" y="1034"/>
      <point x="1015" y="1007"/>
      <point x="1063" y="1007" type="curve" smooth="yes"/>
      <point x="1086" y="1007"/>
      <point x="1101" y="1016"/>
      <point x="1105" y="1035" type="curve" smooth="yes"/>
      <point x="1110" y="1056"/>
      <point x="1099" y="1065"/>
      <point x="1077" y="1065" type="curve" smooth="yes"/>
      <point x="1028" y="1065"/>
      <point x="953" y="1041"/>
    </contour>
    <contour>
      <point x="599" y="667" type="curve" smooth="yes"/>
      <point x="615.4212608689883" y="734.7377010845764"/>
      <point x="600.5965545281272" y="798.8830961508937"/>
      <point x="655" y="1036" type="curve" smooth="yes"/>
      <point x="737" y="1392"/>
      <point x="774" y="1441"/>
      <point x="786" y="1494" type="curve" smooth="yes"/>
      <point x="791" y="1516"/>
      <point x="786" y="1529"/>
      <point x="765" y="1529" type="curve" smooth="yes"/>
      <point x="747" y="1529"/>
      <point x="735" y="1517"/>
      <point x="730" y="1494" type="curve" smooth="yes"/>
      <point x="718" y="1442"/>
      <point x="730" y="1392"/>
      <point x="648" y="1036" type="curve" smooth="yes"/>
      <point x="594.9246994381414" y="804.6718032115218"/>
      <point x="554.0245230496073" y="743.1026902702307"/>
      <point x="538" y="676" type="curve" smooth="yes"/>
      <point x="523.0384602687803" y="610.1692251826336"/>
      <point x="538.8539236694921" y="547.3751179194943"/>
      <point x="485" y="317" type="curve" smooth="yes"/>
      <point x="403" y="-39"/>
      <point x="367" y="-88"/>
      <point x="354" y="-141" type="curve" smooth="yes"/>
      <point x="349" y="-163"/>
      <point x="354" y="-176"/>
      <point x="375" y="-176" type="curve" smooth="yes"/>
      <point x="393" y="-176"/>
      <point x="405" y="-164"/>
      <point x="410" y="-141" type="curve" smooth="yes"/>
      <point x="422" y="-89"/>
      <point x="410" y="-39"/>
      <point x="492" y="317" type="curve" smooth="yes"/>
      <point x="544.5787739189108" y="541.9203106531181"/>
      <point x="584.396508921071" y="601.7710731807838"/>
    </contour>
    <contour>
      <point x="487" y="312" type="curve" smooth="yes"/>
      <point x="773" y="312"/>
      <point x="843" y="288"/>
      <point x="889" y="288" type="curve" smooth="yes"/>
      <point x="917" y="288"/>
      <point x="937" y="297"/>
      <point x="941" y="318" type="curve" smooth="yes"/>
      <point x="946" y="337"/>
      <point x="932" y="346"/>
      <point x="903" y="346" type="curve" smooth="yes"/>
      <point x="858" y="346"/>
      <point x="775" y="319"/>
      <point x="489" y="319" type="curve" smooth="yes"/>
      <point x="189" y="319"/>
      <point x="125" y="346"/>
      <point x="77" y="346" type="curve" smooth="yes"/>
      <point x="54" y="346"/>
      <point x="40" y="337"/>
      <point x="35" y="318" type="curve" smooth="yes"/>
      <point x="31" y="297"/>
      <point x="41" y="288"/>
      <point x="63" y="288" type="curve" smooth="yes"/>
      <point x="112" y="288"/>
      <point x="187" y="312"/>
    </contour>
  </outline>
</glyph>
<glyph name="perthousand" format="2">
  <advance width="1468"/>
  <unicode hex="2030"/>
  <outline>
    <contour>
      <point x="565" y="1421" type="curve" smooth="yes"/>
      <point x="419" y="1421"/>
      <point x="304" y="1295"/>
      <point x="252" y="1101" type="curve" smooth="yes"/>
      <point x="194" y="885"/>
      <point x="254" y="770"/>
      <point x="385" y="770" type="curve" smooth="yes"/>
      <point x="531" y="770"/>
      <point x="645" y="893"/>
      <point x="700" y="1101" type="curve" smooth="yes"/>
      <point x="754" y="1301"/>
      <point x="696" y="1421"/>
    </contour>
    <contour>
      <point x="642" y="1094" type="curve" smooth="yes"/>
      <point x="582" y="870"/>
      <point x="489" y="780"/>
      <point x="387" y="780" type="curve" smooth="yes"/>
      <point x="286" y="780"/>
      <point x="244" y="863"/>
      <point x="310" y="1108" type="curve" smooth="yes"/>
      <point x="365" y="1311"/>
      <point x="456" y="1411"/>
      <point x="562" y="1411" type="curve" smooth="yes"/>
      <point x="663" y="1411"/>
      <point x="705" y="1326"/>
    </contour>
    <contour>
      <point x="822" y="630" type="curve" smooth="yes"/>
      <point x="676" y="630"/>
      <point x="561" y="504"/>
      <point x="509" y="310" type="curve" smooth="yes"/>
      <point x="451" y="94"/>
      <point x="511" y="-21"/>
      <point x="642" y="-21" type="curve" smooth="yes"/>
      <point x="788" y="-21"/>
      <point x="902" y="102"/>
      <point x="957" y="310" type="curve" smooth="yes"/>
      <point x="1011" y="510"/>
      <point x="953" y="630"/>
    </contour>
    <contour>
      <point x="899" y="303" type="curve" smooth="yes"/>
      <point x="839" y="79"/>
      <point x="746" y="-11"/>
      <point x="644" y="-11" type="curve" smooth="yes"/>
      <point x="543" y="-11"/>
      <point x="502" y="72"/>
      <point x="567" y="317" type="curve" smooth="yes"/>
      <point x="622" y="520"/>
      <point x="713" y="620"/>
      <point x="819" y="620" type="curve" smooth="yes"/>
      <point x="920" y="620"/>
      <point x="962" y="535"/>
    </contour>
    <contour>
      <point x="1370" y="630" type="curve" smooth="yes"/>
      <point x="1224" y="630"/>
      <point x="1109" y="504"/>
      <point x="1057" y="310" type="curve" smooth="yes"/>
      <point x="999" y="94"/>
      <point x="1059" y="-21"/>
      <point x="1190" y="-21" type="curve" smooth="yes"/>
      <point x="1336" y="-21"/>
      <point x="1450" y="102"/>
      <point x="1505" y="310" type="curve" smooth="yes"/>
      <point x="1559" y="510"/>
      <point x="1501" y="630"/>
    </contour>
    <contour>
      <point x="1447" y="303" type="curve" smooth="yes"/>
      <point x="1387" y="79"/>
      <point x="1294" y="-11"/>
      <point x="1192" y="-11" type="curve" smooth="yes"/>
      <point x="1091" y="-11"/>
      <point x="1050" y="72"/>
      <point x="1115" y="317" type="curve" smooth="yes"/>
      <point x="1170" y="520"/>
      <point x="1261" y="620"/>
      <point x="1367" y="620" type="curve" smooth="yes"/>
      <point x="1468" y="620"/>
      <point x="1510" y="535"/>
    </contour>
    <component base="fraction"/>
  </outline>
</glyph>
<glyph name="minute" format="2">
  <advance width="617"/>
  <unicode hex="2032"/>
  <outline>
    <contour>
      <point x="194" y="724" type="curve" smooth="yes"/>
      <point x="238.56296296296298" y="724.0"/>
      <point x="276.22398849957125" y="755.8967614256173"/>
      <point x="322" y="847" type="curve" smooth="yes"/>
      <point x="526" y="1253" type="line" smooth="yes"/>
      <point x="610" y="1420"/>
      <point x="572.4553571428571" y="1549.0"/>
      <point x="405" y="1549" type="curve" smooth="yes"/>
      <point x="289.82142857142856" y="1549.0"/>
      <point x="219" y="1488"/>
      <point x="190" y="1328" type="curve" smooth="yes"/>
      <point x="105" y="858" type="line" smooth="yes"/>
      <point x="89.7922341475148" y="773.9100005803759"/>
      <point x="122.3658536585366" y="724.0"/>
    </contour>
  </outline>
</glyph>
<glyph name="zero.superior" format="2">
  <advance width="698"/>
  <unicode hex="2070"/>
  <outline>
    <contour>
      <point x="620" y="1410" type="curve" smooth="yes"/>
      <point x="462.7230320699708" y="1410.0"/>
      <point x="338.9007228012528" y="1284.6277105046981"/>
      <point x="287" y="1090" type="curve" smooth="yes"/>
      <point x="223.2629894687262" y="851.9821012972744"/>
      <point x="285.126582278481" y="719.0"/>
      <point x="435" y="719" type="curve" smooth="yes"/>
      <point x="570.8823529411765" y="719.0"/>
      <point x="706.1178104643442" y="833.4333028942827"/>
      <point x="765" y="1050" type="curve" smooth="yes"/>
      <point x="823.7585204791291" y="1272.0872892685725"/>
      <point x="756.5806451612902" y="1410.0"/>
    </contour>
    <contour>
      <point x="707" y="1043" type="curve" smooth="yes"/>
      <point x="643.1480571642384" y="802.5575277590851"/>
      <point x="536.3214285714286" y="729.0"/>
      <point x="437" y="729" type="curve" smooth="yes"/>
      <point x="327.8627450980392" y="729.0"/>
      <point x="272.46511241646647" y="828.7202788006293"/>
      <point x="345" y="1097" type="curve" smooth="yes"/>
      <point x="399.8700281934531" y="1300.5179227538988"/>
      <point x="500.290780141844" y="1400.0"/>
      <point x="617" y="1400" type="curve" smooth="yes"/>
      <point x="722.3" y="1400.0"/>
      <point x="776.5523269998619" y="1302.330819242342"/>
    </contour>
  </outline>
</glyph>
